<?xml version="1.0" encoding="UTF-8"?>
<!DOCTYPE svg PUBLIC "-//W3C//DTD SVG 1.1//EN" "http://www.w3.org/Graphics/SVG/1.1/DTD/svg11.dtd">
<svg version="1.1" id="Layer_1" xmlns="http://www.w3.org/2000/svg" xmlns:xlink="http://www.w3.org/1999/xlink" x="0px" y="0px" width="16px" height="16px" viewBox="0 0 16 16" enable-background="new 0 0 16 16" xml:space="preserve">
  <g id="main">
    <g id="icon">
      <path d="M13.76,0.6309L13.42,0.7711L12.61,1.327L11.61,2.179L10.16,3.515L2.087,3.195L1.93,3.245L0.727,4.162L0.6438,4.274L0.632,4.405L0.6867,4.524L0.802,4.601L7.356,6.638L4.397,9.589L1.656,9.414L1.548,9.432L1.458,9.497L0.583,10.49L0.525,10.61L0.5307,10.73L0.5928,10.83L0.7039,10.9L3.103,11.54L2.766,11.89L2.503,12.25L2.461,12.4L2.48,12.53L2.579,12.65L2.743,12.69L3.021,12.62L3.321,12.43L3.718,12.07L4.733,14.27L4.819,14.37L4.936,14.42L5.059,14.39L5.159,14.31L6.001,13.04L6.008,13L5.956,12.83L5.85,12.23L5.445,10.9L5.902,10.45L5.916,10.35L6.057,9.807L6.249,9.283L6.489,8.785L6.775,8.315L7.103,7.876L7.471,7.471L7.876,7.103L8.315,6.775L8.785,6.489L9.283,6.249L9.807,6.057L10.35,5.916L10.92,5.829L11.5,5.8L11.73,5.814L11.59,4.688L12.94,3.204L13.76,2.232L14.23,1.543L14.38,1.067L14.38,0.8852L14.33,0.742L14.22,0.6385L14.02,0.5859zz" fill="#FFFFFF"/>
      <path d="M13.94,0.09297L13.67,0.1379L13.62,0.1475L13.56,0.1693L13.23,0.3094L13.18,0.3297L13.13,0.3598L12.33,0.9156L12.31,0.9293L12.29,0.9449L11.28,1.797L11.28,1.804L11.27,1.811L9.968,3.007L2.107,2.695L2.019,2.692L1.935,2.719L1.778,2.769L1.696,2.795L1.627,2.847L0.4238,3.764L0.3678,3.807L0.3256,3.864L0.2424,3.976L0.1582,4.089L0.1457,4.23L0.1342,4.361L0.1223,4.493L0.1773,4.613L0.2318,4.732L0.2912,4.862L0.41,4.941L0.5254,5.018L0.5852,5.057L0.6535,5.079L6.416,6.869L4.204,9.076L1.688,8.915L1.63,8.911L1.573,8.921L1.465,8.939L1.349,8.959L1.255,9.027L1.165,9.092L1.12,9.124L1.083,9.166L0.2078,10.16L0.1648,10.21L0.1359,10.27L0.07793,10.38L0.01953,10.5L0.02559,10.63L0.03105,10.75L0.03672,10.88L0.09941,10.98L0.1615,11.09L0.2283,11.2L0.343,11.27L0.4543,11.33L0.5115,11.37L0.5756,11.38L2.201,11.81L2.098,11.96L2.045,12.03L2.021,12.12L1.979,12.27L1.952,12.37L1.966,12.47L1.985,12.6L2.005,12.75L2.101,12.86L2.199,12.97L2.302,13.09L2.456,13.13L2.62,13.17L2.738,13.2L2.857,13.17L3.135,13.11L3.217,13.09L3.288,13.05L3.542,12.88L4.279,14.48L4.307,14.54L4.351,14.6L4.436,14.7L4.525,14.8L4.654,14.85L4.772,14.89L4.895,14.93L5.024,14.91L5.146,14.89L5.282,14.86L5.386,14.77L5.486,14.69L5.538,14.64L5.575,14.58L6.217,13.62L6.145,13.45L5.956,12.83L5.84,12.18L5.8,11.5L5.829,10.92L5.916,10.35L6.057,9.807L6.184,9.46L5.092,10.55L4.879,10.76L4.967,11.05L5.52,12.86L4.996,13.65L4.172,11.86L3.948,11.38L4.053,11.27L3.231,11.05L1.223,10.52L1.751,9.921L4.365,10.09L4.59,10.1L4.75,9.943L7.709,6.992L8.296,6.407L7.504,6.161L1.413,4.267L2.16,3.698L10.14,4.015L10.34,4.023L10.49,3.883L11.94,2.553L12.92,1.725L13.66,1.212L13.84,1.139L13.78,1.322L13.36,1.927L12.56,2.877L11.22,4.352L11.07,4.522L11.1,4.75L11.23,5.814L11.5,5.8L12.18,5.84L12.24,5.852L12.12,4.854L13.31,3.54L13.31,3.533L13.32,3.526L14.14,2.554L14.15,2.536L14.17,2.517L14.64,1.828L14.69,1.765L14.71,1.691L14.86,1.215L14.88,1.141L14.88,1.063L14.88,0.8811L14.88,0.7959L14.85,0.7158L14.8,0.5727L14.76,0.4656L14.68,0.3859L14.58,0.2824L14.48,0.1879L14.35,0.1543L14.14,0.1018L14.04,0.0752zz" fill="#383838"/>
    </g>
    <g id="overlay">
      <path d="M7.5,11.5c0,-2.209,1.791,-4,4,-4s4,1.791,4,4s-1.791,4,-4,4S7.5,13.709,7.5,11.5zM9.06,14.669M13.96,14.654" fill="#FFFFFF" stroke="#383838" stroke-width="1" stroke-miterlimit="10"/>
      <path d="M11.5,9v2.534l1.737,1.926" fill="none" stroke="#228BCB" stroke-width="1" stroke-miterlimit="10"/>
    </g>
  </g>
</svg>
