<?xml version="1.0" encoding="UTF-8"?>
<!DOCTYPE svg PUBLIC "-//W3C//DTD SVG 1.1//EN" "http://www.w3.org/Graphics/SVG/1.1/DTD/svg11.dtd">
<svg version="1.1" id="Layer_1" xmlns="http://www.w3.org/2000/svg" xmlns:xlink="http://www.w3.org/1999/xlink" x="0px" y="0px" width="16px" height="16px" viewBox="0 0 16 16" enable-background="new 0 0 16 16" xml:space="preserve">
  <g id="icon">
    <path d="M11.901,4.435c0,2.173,-1.746,4.035,-3.9,4.035S4.1,6.608,4.1,4.435S5.846,0.5,8.001,0.5S11.901,2.262,11.901,4.435zM14.5,15.976c0,-3.799,-2.985,-7.48,-6.474,-7.48S1.5,12.177,1.5,15.976" fill="#FFFFFF" stroke="#383838" stroke-width="1" stroke-miterlimit="10"/>
    <polygon points="8.9,16 7.15,16 7.588,11.007 7.15,9.6 8.9,9.6 8.463,11.022" fill="#EF3E3B" stroke-linejoin="miter"/>
    <path d="M8.503,16l0.052,-0.237c0.107,-0.487,1.07,-4.797,2.061,-6.298l0.109,-0.166l0.774,0.474l-0.109,0.166c-0.848,1.283,-1.744,5.145,-1.915,5.906L9.441,16H8.503zM6.555,16l-0.035,-0.155c-0.171,-0.761,-1.064,-4.62,-1.911,-5.896L4.5,9.784l0.773,-0.476l0.11,0.165c0.993,1.496,1.952,5.803,2.058,6.29l0.052,0.237H6.555z" fill="#383838"/>
  </g>
</svg>
