<?xml version="1.0" encoding="UTF-8"?>
<!DOCTYPE svg PUBLIC "-//W3C//DTD SVG 1.1//EN" "http://www.w3.org/Graphics/SVG/1.1/DTD/svg11.dtd">
<svg version="1.1" id="Layer_1" xmlns="http://www.w3.org/2000/svg" xmlns:xlink="http://www.w3.org/1999/xlink" x="0px" y="0px" width="16px" height="16px" viewBox="0 0 16 16" enable-background="new 0 0 16 16" xml:space="preserve">
  <g id="main">
    <g id="icon">
      <path d="M0.5,0.501L0.5,14.5L1.429,14.5L3.286,13.26L4.828,14.21L4.8,14L4.801,12.3L4.832,11.91L4.923,11.53L5.073,11.18L5.278,10.84L5.535,10.52L5.843,10.23L6.199,9.962L6.601,9.727L6.601,9.176L6.627,8.816L6.703,8.469L6.998,7.823L7.47,7.248L8.103,6.754L8.88,6.353L9.784,6.052L10.8,5.865L11.91,5.8L13.14,5.88L13.5,5.955L13.5,0.501L12.58,0.5039L10.79,1.734L8.839,0.601L7,1.734L5.143,0.601L3.267,1.734L1.462,0.491zz" fill="#FFFFFF"/>
      <path d="M0.4947,0.0009766L0,0.00625L0,0.501L0,14.5L0,15L0.5,15L1.429,15L1.58,15L1.706,14.91L3.296,13.86L4.862,14.82L5.014,14.92L4.877,14.59L4.8,14L4.8,13.61L3.548,12.84L3.276,12.67L3.009,12.85L1.278,14L1,14L1,0.9959L1.309,0.9926L2.983,2.146L3.249,2.329L3.525,2.162L5.142,1.186L6.74,2.161L7.001,2.321L7.262,2.16L8.846,1.184L10.54,2.166L10.81,2.325L11.07,2.146L12.73,1.003L13,1.003L13,5.871L13.14,5.88L14,6.06L14,0.501L14,0L13.81,0L13.5,0.0009766L12.58,0.003906L12.42,0.004492L12.3,0.09199L10.77,1.143L9.09,0.1688L8.831,0.01836L8.577,0.1754L6.999,1.148L5.404,0.1742L5.144,0.01602L4.885,0.173L3.285,1.139L1.746,0.0791L1.63,0L0.5891,0zz" fill="#383838"/>
      <path d="M2,4.997L12,4.997L12,3.997L2,3.997zz" fill="#383838"/>
      <path d="M7,6.497L2,6.497zz" fill="#FFFFFF"/>
      <path d="M2,6.997L7,6.997L7,5.997L2,5.997zM2,8.997L6.614,8.997L6.627,8.816L6.703,8.469L6.919,7.997L2,7.997zz" fill="#383838"/>
      <path d="M9,6.313L9.784,6.052L10.08,5.997L9,5.997zz" fill="#787979"/>
    </g>
    <g id="overlay">
      <path d="M13.7,12.305c0,0,0,1.508,0,1.688c0,0.697,-1.61,1.507,-3.599,1.507C8.112,15.5,6.5,14.69,6.5,14.001c0,-0.154,0,-1.696,0,-1.696M13.7,12.296c0,0.913,-1.592,1.525,-3.587,1.525c-1.995,0,-3.612,-0.611,-3.612,-1.525c0,-0.54,0.689,-1.14,1.799,-1.381M15.5,9.185c0,0,0,1.528,0,1.711c0,0.707,-1.61,1.527,-3.599,1.527c-1.989,0,-3.601,-0.821,-3.601,-1.519c0,-0.156,0,-1.719,0,-1.719M11.913,7.5C13.908,7.5,15.5,8.25,15.5,9.176s-1.592,1.545,-3.587,1.545c-1.995,0,-3.612,-0.62,-3.612,-1.545S9.918,7.5,11.913,7.5z" fill="#F7DA8E" stroke="#E57428" stroke-width="1" stroke-linecap="round" stroke-miterlimit="10"/>
    </g>
  </g>
</svg>
