<?xml version="1.0" encoding="UTF-8"?>
<!DOCTYPE svg PUBLIC "-//W3C//DTD SVG 1.1//EN" "http://www.w3.org/Graphics/SVG/1.1/DTD/svg11.dtd">
<svg version="1.1" id="Layer_1" xmlns="http://www.w3.org/2000/svg" xmlns:xlink="http://www.w3.org/1999/xlink" x="0px" y="0px" width="16px" height="16px" viewBox="0 0 16 16" enable-background="new 0 0 16 16" xml:space="preserve">
  <g id="main">
    <g id="icon">
      <path d="M5.347,9.499L4.753,9.647L4.188,9.847L3.654,10.1L3.153,10.39L2.688,10.73L2.262,11.1L1.877,11.51L1.535,11.95L1.239,12.41L0.9908,12.9L0.7938,13.4L0.65,13.93L0.5619,14.46L0.532,15L4.169,15L4.077,14.82L3.871,14.13L3.8,13.4L3.8,12.6L3.877,11.84L4.099,11.12L4.45,10.48L4.914,9.914L5.434,9.486zz" fill="#FFFFFF"/>
      <path d="M6.587,8.877L5.943,8.908L5.919,8.909L5.894,8.913L5.274,9.004L5.25,9.008L5.226,9.014L4.632,9.162L4.609,9.167L4.586,9.175L4.021,9.376L3.998,9.384L3.976,9.394L3.442,9.644L3.421,9.654L3.4,9.666L2.899,9.96L2.879,9.972L2.86,9.986L2.395,10.32L2.376,10.34L2.359,10.35L1.932,10.73L1.915,10.74L1.899,10.76L1.513,11.17L1.497,11.18L1.483,11.2L1.141,11.64L1.126,11.66L1.113,11.68L0.817,12.14L0.8039,12.16L0.793,12.18L0.5451,12.67L0.5338,12.69L0.5248,12.72L0.3277,13.22L0.3186,13.25L0.3117,13.27L0.168,13.79L0.1609,13.82L0.1566,13.84L0.06855,14.38L0.06426,14.4L0.0627,14.43L0.03281,14.97L1.031,15.03L1.06,14.51L1.139,14.03L1.269,13.56L1.447,13.1L1.673,12.66L1.944,12.24L2.257,11.83L2.61,11.46L3,11.12L3.427,10.81L3.885,10.54L4.379,10.31L4.675,10.21L4.914,9.914L5.477,9.45L6.123,9.099L6.811,8.885L6.635,8.877L6.611,8.875zz" fill="#383838"/>
      <path d="M5.867,0.0373L5.824,0.04121L5.782,0.05254L5.114,0.233L5.075,0.2436L5.038,0.2604L4.412,0.5445L4.378,0.5602L4.346,0.5807L3.771,0.9547L3.741,0.974L3.714,0.9975L3.199,1.448L3.173,1.471L3.151,1.497L2.706,2.01L2.683,2.036L2.664,2.065L2.299,2.627L2.28,2.657L2.265,2.689L1.989,3.287L2.897,3.705L3.157,3.142L3.485,2.638L3.883,2.178L4.345,1.774L4.86,1.439L5.414,1.188L6,1.029L6.614,0.9736L7.232,1.021L7.821,1.158L8.369,1.377L8.873,1.672L9.32,2.033L9.706,2.454L10.02,2.925L10.28,3.478L11.19,3.056L10.91,2.469L10.9,2.433L10.87,2.401L10.52,1.865L10.49,1.833L10.47,1.805L10.03,1.329L10.01,1.301L9.977,1.278L9.471,0.8693L9.442,0.8459L9.409,0.8271L8.843,0.4953L8.81,0.4764L8.775,0.4625L8.156,0.2152L8.121,0.2014L8.084,0.1928L7.422,0.03828L7.385,0.02969L7.346,0.02676L6.996,0L6.279,0zz" fill="#383838"/>
      <path d="M2.064,6.398L2.345,7.067L2.358,7.099L2.376,7.129L2.738,7.739L2.757,7.769L2.779,7.797L3.215,8.338L3.238,8.366L3.265,8.391L3.768,8.854L3.796,8.88L3.828,8.901L4.388,9.277L4.421,9.299L4.458,9.316L5.067,9.596L5.105,9.613L5.146,9.624L5.237,9.649L5.477,9.45L6.123,9.099L6.836,8.877L7.601,8.8L9.511,8.8L9.938,8.41L9.965,8.385L9.988,8.357L10.42,7.823L10.45,7.795L10.47,7.765L10.83,7.163L10.85,7.133L10.86,7.101L11.14,6.44L10.22,6.046L9.954,6.677L9.627,7.219L9.237,7.697L8.792,8.103L8.3,8.43L7.768,8.672L7.204,8.822L6.611,8.874L6.014,8.822L5.446,8.669L4.911,8.424L4.417,8.092L3.971,7.681L3.58,7.197L3.253,6.647L2.986,6.012zz" fill="#383838"/>
      <path d="M5.745,0.5596L4.909,0.8189L4.153,1.229L3.494,1.773L2.95,2.432L2.54,3.189L2.28,4.025L2.19,4.922L2.28,5.819L2.54,6.655L2.951,7.412L3.494,8.071L4.154,8.614L4.91,9.025L5.746,9.285L5.776,9.288L6.123,9.099L6.836,8.877L7.601,8.8L8.791,8.8L9.133,8.614L9.792,8.071L10.34,7.412L10.75,6.655L11.01,5.819L11.1,4.922L11.01,4.024L10.75,3.188L10.34,2.432L9.792,1.773L9.133,1.229L8.377,0.8188L7.541,0.5594L6.643,0.4689zz" fill="#FFFFFF"/>
      <path d="M5.746,0.5594L4.91,0.8189L4.153,1.229L3.494,1.773L2.951,2.432L2.54,3.189L2.28,4.025L2.19,4.922L2.28,5.82L2.54,6.655L2.951,7.412L3.494,8.071L4.153,8.614L4.91,9.025L5.746,9.285L5.776,9.288L6.123,9.099L6.836,8.877L7.601,8.8L8.791,8.8L9.133,8.614L9.792,8.071L10.34,7.412L10.75,6.655L11.01,5.82L11.1,4.922L11.01,4.025L10.75,3.189L10.34,2.432L9.792,1.773L9.133,1.229L8.376,0.8189L7.54,0.5594L6.643,0.4689zz" fill="#FFFFFF"/>
      <path d="M2.752,7.531L5.658,7.531L5.658,6.531L2.752,6.531zz" fill="#787979"/>
      <path d="M6.14,0.02539L5.652,0.1002L4.729,0.3875L3.893,0.8418L3.164,1.443L2.563,2.172L2.108,3.008L1.821,3.931L1.746,4.42L1.721,4.922L1.746,5.425L1.821,5.913L2.108,6.836L2.563,7.672L3.164,8.401L3.893,9.002L4.729,9.457L5.267,9.624L5.477,9.45L6.123,9.099L6.792,8.891L6.643,8.906L5.841,8.825L5.094,8.592L4.417,8.225L3.827,7.738L3.34,7.148L2.972,6.471L2.74,5.724L2.659,4.922L2.74,4.12L2.972,3.373L3.34,2.696L3.827,2.106L4.417,1.619L5.094,1.252L5.841,1.019L6.643,0.9381L7.445,1.019L8.192,1.252L8.869,1.619L9.459,2.106L9.946,2.696L10.31,3.373L10.55,4.12L10.63,4.922L10.55,5.724L10.31,6.471L9.946,7.148L9.459,7.738L8.869,8.225L8.192,8.592L7.489,8.811L7.601,8.8L9.638,8.8L10.12,8.401L10.72,7.672L11.18,6.836L11.46,5.913L11.54,5.425L11.57,4.922L11.54,4.42L11.46,3.931L11.18,3.008L10.72,2.172L10.12,1.443L9.393,0.8418L8.557,0.3875L7.634,0.1002L7.146,0.02539L6.643,0zz" fill="#383838"/>
      <path d="M1.747,3.299L1.28,3.421L1.256,3.434L1.049,3.6L0.9711,3.813L0.9711,6.053L1.081,6.26L1.355,6.449L1.711,6.588L2.065,6.641L2.357,6.602L2.583,6.496L2.746,6.339L2.846,6.147L2.846,3.719L2.774,3.527L2.676,3.37L2.513,3.264L2.25,3.225zM10.68,3.264L10.52,3.37L10.42,3.527L10.34,3.719L10.34,6.147L10.45,6.339L10.61,6.496L10.83,6.602L11.13,6.641L11.48,6.588L11.84,6.449L12.11,6.26L12.22,6.053L12.22,3.813L12.14,3.6L11.93,3.434L11.91,3.421L11.44,3.299L10.94,3.225zM6.136,6.26L5.788,6.427L5.575,6.673L5.502,6.975L5.575,7.277L5.789,7.523L6.137,7.689L6.611,7.751L7.086,7.69L7.434,7.523L7.647,7.277L7.72,6.975L7.647,6.673L7.434,6.426L7.086,6.26L6.611,6.199zz" fill="#FFFFFF"/>
      <path d="M2.177,2.73L1.675,2.804L1.647,2.808L1.621,2.815L1.154,2.937L1.095,2.953L1.042,2.981L1.018,2.994L0.9785,3.016L0.9438,3.044L0.7363,3.209L0.6268,3.297L0.5789,3.429L0.5012,3.642L0.4711,3.725L0.4711,3.813L0.4711,6.053L0.4711,6.177L0.5293,6.287L0.6391,6.494L0.6961,6.602L0.7967,6.671L1.071,6.861L1.119,6.894L1.174,6.915L1.529,7.054L1.581,7.074L1.636,7.082L1.99,7.135L2.061,7.146L2.131,7.137L2.423,7.098L2.5,7.088L2.569,7.055L2.795,6.949L2.871,6.914L2.931,6.855L3.093,6.698L3.151,6.642L3.189,6.571L3.289,6.379L3.346,6.27L3.346,6.147L3.346,3.719L3.346,3.629L3.315,3.545L3.243,3.352L3.225,3.304L3.198,3.261L3.099,3.104L3.041,3.011L2.949,2.951L2.786,2.845L2.695,2.785L2.586,2.769L2.323,2.73L2.25,2.72zM10.87,2.73L10.6,2.769L10.5,2.785L10.4,2.845L10.24,2.951L10.15,3.011L10.09,3.104L9.993,3.261L9.966,3.304L9.948,3.352L9.876,3.545L9.845,3.629L9.845,3.719L9.845,6.147L9.845,6.27L9.902,6.379L10,6.571L10.04,6.642L10.1,6.698L10.26,6.855L10.32,6.914L10.4,6.949L10.62,7.055L10.69,7.088L10.77,7.098L11.06,7.137L11.13,7.146L11.2,7.135L11.56,7.082L11.61,7.074L11.66,7.054L12.02,6.915L12.07,6.894L12.12,6.861L12.39,6.671L12.49,6.602L12.55,6.494L12.66,6.287L12.72,6.177L12.72,6.053L12.72,3.813L12.72,3.726L12.69,3.643L12.61,3.43L12.57,3.297L12.45,3.209L12.25,3.043L12.21,3.015L12.17,2.994L12.15,2.981L12.1,2.953L12.04,2.937L11.57,2.815L11.54,2.808L11.52,2.804L11.01,2.73L10.94,2.72zM2.318,3.74L2.324,3.749L2.346,3.809L2.346,6.024L2.34,6.037L2.296,6.079L2.215,6.117L2.069,6.136L1.84,6.101L1.591,6.004L1.471,5.922L1.471,3.902L1.498,3.881L1.847,3.79L2.25,3.73zM11.34,3.79L11.69,3.881L11.72,3.902L11.72,5.922L11.6,6.004L11.35,6.101L11.12,6.136L10.98,6.117L10.9,6.079L10.85,6.037L10.84,6.024L10.84,3.809L10.87,3.749L10.87,3.74L10.94,3.73zM6.547,5.703L6.072,5.764L5.993,5.774L5.92,5.809L5.572,5.976L5.479,6.021L5.41,6.099L5.197,6.346L5.117,6.438L5.089,6.556L5.016,6.858L4.988,6.975L5.016,7.092L5.089,7.394L5.117,7.512L5.197,7.604L5.411,7.851L5.479,7.929L5.573,7.974L5.921,8.141L5.993,8.175L6.072,8.185L6.547,8.247L6.611,8.255L6.675,8.247L7.15,8.186L7.229,8.176L7.302,8.141L7.649,7.974L7.743,7.929L7.812,7.851L8.025,7.604L8.105,7.512L8.133,7.394L8.206,7.092L8.234,6.975L8.206,6.858L8.133,6.556L8.105,6.438L8.025,6.345L7.812,6.099L7.743,6.02L7.649,5.975L7.302,5.809L7.229,5.774L7.15,5.764L6.675,5.703L6.611,5.695zM6.943,6.746L7.124,6.832L7.19,6.908L7.206,6.975L7.19,7.041L7.124,7.117L6.943,7.204L6.611,7.247L6.28,7.204L6.098,7.117L6.032,7.041L6.016,6.975L6.032,6.909L6.098,6.833L6.279,6.746L6.611,6.703zz" fill="#228BCB"/>
    </g>
    <g id="overlay">
      <path d="M9.5,14v-1.399c0,-1.155,0.945,-2.101,2.101,-2.101h1.799c1.155,0,2.101,0.945,2.101,2.101v0.799c0,1.155,-0.945,2.101,-2.101,2.101H12.4M8.6,10.5h-0.999C6.445,10.5,5.5,11.445,5.5,12.601v0.799C5.5,14.555,6.445,15.5,7.601,15.5h1.799c1.155,0,2.101,-0.945,2.101,-2.101V12" fill="none" stroke="#228BCB" stroke-width="1" stroke-miterlimit="10"/>
    </g>
  </g>
</svg>
