<?xml version="1.0" encoding="UTF-8"?>
<!DOCTYPE svg PUBLIC "-//W3C//DTD SVG 1.1//EN" "http://www.w3.org/Graphics/SVG/1.1/DTD/svg11.dtd">
<svg version="1.1" id="Layer_1" xmlns="http://www.w3.org/2000/svg" xmlns:xlink="http://www.w3.org/1999/xlink" x="0px" y="0px" width="16px" height="16px" viewBox="0 0 16 16" enable-background="new 0 0 16 16" xml:space="preserve">
  <g id="main">
    <g id="icon">
      <path d="M0.5,14.5L5.711,14.5L8.282,11.93L5.894,11.25L9.441,8.624L9.284,4.23L12.88,6.78L14.5,6.191L14.5,2.5L0.5,2.5zz" fill="#FFFFFF"/>
      <path d="M0,2.5L0,14.5L0,15L0.5,15L5.211,15L6.211,14L1,14L1,3L14,3L14,6.372L15,6.01L15,2.5L15,2L14.5,2L0.5,2L0,2zz" fill="#383838"/>
      <path d="M2.5,12.5L6.25,12.5L6.505,12.53L6.741,12.63L6.953,12.77L7.138,12.96L7.178,13.03L7.5,12.71L7.5,11.71L5.894,11.25L7.5,10.06L7.5,1.75L7.475,1.498L7.402,1.264L7.134,0.8662L6.736,0.5982L6.502,0.5254L6.25,0.5L2.5,0.5zz" fill="#FFFFFF"/>
      <path d="M2,0.5L2,12.5L2,13L2.5,13L6.217,13L6.377,13.02L6.503,13.07L6.63,13.16L6.735,13.27L6.811,13.4L8,12.21L8,11.85L7,11.56L7,12.2L6.978,12.18L6.927,12.16L6.691,12.07L6.632,12.05L6.57,12.04L6.315,12L6.283,12L6.25,12L3,12L3,1L6.225,1L6.401,1.018L6.518,1.054L6.773,1.227L6.946,1.482L6.982,1.599L7,1.775L7,10.43L8,9.689L8,1.75L8,1.725L7.997,1.7L7.972,1.448L7.967,1.398L7.952,1.35L7.879,1.115L7.857,1.045L7.816,0.984L7.548,0.5867L7.494,0.5061L7.413,0.4518L7.016,0.1838L6.955,0.1426L6.885,0.1207L6.65,0.04785L6.602,0.03301L6.552,0.02793L6.3,0.002539L6.275,0L6.25,0L2.5,0L2,0zz" fill="#383838"/>
      <path d="M8.498,0.5254L8.264,0.5982L7.866,0.8662L7.598,1.264L7.525,1.498L7.5,1.75L7.5,10.06L9.441,8.624L9.284,4.23L12.5,6.513L12.5,0.5L8.75,0.5zM7.5,12.71L8.282,11.93L7.5,11.71zz" fill="#FFFFFF"/>
      <path d="M8.7,0.002539L8.448,0.02793L8.398,0.03301L8.35,0.04785L8.115,0.1207L8.045,0.1426L7.984,0.1838L7.587,0.4518L7.506,0.5061L7.452,0.5867L7.184,0.984L7.143,1.045L7.121,1.115L7.048,1.35L7.033,1.398L7.028,1.448L7.003,1.7L7,1.725L7,1.75L7,10.43L8,9.689L8,1.775L8.018,1.599L8.054,1.482L8.227,1.227L8.482,1.054L8.599,1.018L8.775,1L12,1L12,6.158L12.88,6.78L13,6.735L13,0.5L13,0L12.5,0L8.75,0L8.725,0zM7,13.21L8.029,12.18L8.022,12.18L8,12.2L8,11.85L7,11.56zz" fill="#383838"/>
      <path d="M6,2.5L4,2.5zM6,4.5L4,4.5zM6,6.5L4,6.5zM6,8.5L4,8.5zM6,10.5L4,10.5zz" fill="#FFFFFF"/>
      <path d="M4,3L6,3L6,2L4,2zM4,5L6,5L6,4L4,4zM4,7L6,7L6,6L4,6zM4,9L6,9L6,8L4,8zM4,11L6,11L6,10L4,10zz" fill="#228BCB"/>
      <path d="M11,2.5L9,2.5zz" fill="#FFFFFF"/>
      <path d="M9,3L11,3L11,2L9,2zM9,5L9.312,5L9.284,4.23L10.37,5L11,5L11,4L9,4zM9,7L9.383,7L9.347,6L9,6zM9,8.95L9.441,8.624L9.419,8L9,8zz" fill="#228BCB"/>
    </g>
    <g id="overlay">
      <path d="M12.618,8.682l1.744,-0.633l-0.556,1.766l1.144,1.459l-1.856,0.017l0,0l-1.037,1.535l-0.591,-1.755l-1.785,-0.51l1.491,-1.102l-0.066,-1.85L12.618,8.682C12.618,8.682,12.618,8.683,12.618,8.682zM7.014,15.6l4.434,-4.434" fill="#FFFFFF" stroke="#ED8730" stroke-width="1" stroke-miterlimit="10"/>
    </g>
  </g>
</svg>
