<?xml version="1.0" encoding="UTF-8"?>
<!DOCTYPE svg PUBLIC "-//W3C//DTD SVG 1.1//EN" "http://www.w3.org/Graphics/SVG/1.1/DTD/svg11.dtd">
<svg version="1.1" id="Layer_1" xmlns="http://www.w3.org/2000/svg" xmlns:xlink="http://www.w3.org/1999/xlink" x="0px" y="0px" width="16px" height="16px" viewBox="0 0 16 16" enable-background="new 0 0 16 16" xml:space="preserve">
  <g id="main">
    <g id="icon">
      <path d="M0.5,14.5L6.435,14.5L7.018,13.2L5.054,13.2L8.987,5.8L14.5,5.8L14.5,2.5L0.5,2.5zz" fill="#FFFFFF"/>
      <path d="M0,2.5L0,14.5L0,15L0.5,15L6.211,15L6.659,14L1,14L1,3L14,3L14,5.8L15,5.8L15,2.5L15,2L14.5,2L0.5,2L0,2zz" fill="#383838"/>
      <path d="M2.5,12.5L5.426,12.5L7.5,8.598L7.5,1.75L7.475,1.498L7.402,1.264L7.134,0.8662L6.736,0.5982L6.502,0.5254L6.25,0.5L2.5,0.5zz" fill="#FFFFFF"/>
      <path d="M2,0.5L2,12.5L2,13L2.5,13L5.16,13L5.692,12L3,12L3,1L6.225,1L6.401,1.018L6.518,1.054L6.773,1.227L6.946,1.482L6.982,1.599L7,1.775L7,9.538L8,7.657L8,1.75L8,1.725L7.997,1.7L7.972,1.448L7.967,1.398L7.952,1.35L7.879,1.115L7.857,1.045L7.816,0.984L7.548,0.5867L7.494,0.5061L7.413,0.4518L7.016,0.1838L6.955,0.1426L6.885,0.1207L6.65,0.04785L6.602,0.03301L6.552,0.02793L6.3,0.002539L6.275,0L6.25,0L2.5,0L2,0zM6.735,13.27L6.877,13.51L7.018,13.2L6.67,13.2zz" fill="#383838"/>
      <path d="M8.498,0.5254L8.264,0.5982L7.866,0.8662L7.598,1.264L7.525,1.498L7.5,1.75L7.5,8.598L8.987,5.8L12.5,5.8L12.5,0.5L8.75,0.5zz" fill="#FFFFFF"/>
      <path d="M8.7,0.002539L8.448,0.02793L8.398,0.03301L8.35,0.04785L8.115,0.1207L8.045,0.1426L7.984,0.1838L7.587,0.4518L7.506,0.5061L7.452,0.5867L7.184,0.984L7.143,1.045L7.121,1.115L7.048,1.35L7.033,1.398L7.028,1.448L7.003,1.7L7,1.725L7,1.75L7,9.538L8,7.657L8,1.775L8.018,1.599L8.054,1.482L8.227,1.227L8.482,1.054L8.599,1.018L8.775,1L12,1L12,5.8L13,5.8L13,0.5L13,0L12.5,0L8.75,0L8.725,0zM7,13.24L7.018,13.2L7,13.2zz" fill="#383838"/>
      <path d="M6,2.5L4,2.5zM6,4.5L4,4.5zM6,6.5L4,6.5zM6,8.5L4,8.5zM6,10.5L4,10.5zz" fill="#FFFFFF"/>
      <path d="M4,3L6,3L6,2L4,2zM4,5L6,5L6,4L4,4zM4,7L6,7L6,6L4,6zM4,9L6,9L6,8L4,8zM4,11L6,11L6,10L4,10zz" fill="#228BCB"/>
      <path d="M11,2.5L9,2.5zM11,4.5L9,4.5zz" fill="#FFFFFF"/>
      <path d="M9,3L11,3L11,2L9,2zM9,5L11,5L11,4L9,4zz" fill="#228BCB"/>
    </g>
    <g id="overlay">
      <path d="M12.39,10.5h2.058l-6.19,5l-0.408,0.001L9.643,11.5H7.883l2.126,-4h4.931L12.39,10.5z" fill="#F7DA8E" stroke="#E57428" stroke-width="1" stroke-linecap="round" stroke-miterlimit="10"/>
    </g>
  </g>
</svg>
