<?xml version="1.0" encoding="UTF-8"?>
<!DOCTYPE svg PUBLIC "-//W3C//DTD SVG 1.1//EN" "http://www.w3.org/Graphics/SVG/1.1/DTD/svg11.dtd">
<svg version="1.1" id="Layer_1" xmlns="http://www.w3.org/2000/svg" xmlns:xlink="http://www.w3.org/1999/xlink" x="0px" y="0px" width="32px" height="32px" viewBox="0 0 32 32" enable-background="new 0 0 32 32" xml:space="preserve">
  <g id="main">
    <g id="icon">
      <path d="M7.5,15.31L7.585,15.25L8.199,14.93L8.853,14.69L9.54,14.55L10.25,14.5L10.78,14.53L11.29,14.61L11.78,14.73L12.25,14.91L13.13,15.38L13.89,16.02L14.52,16.78L14.99,17.66L15.17,18.14L15.3,18.63L15.37,19.14L15.4,19.67L15.34,20.44L15.17,21.19L14.89,21.91L14.52,22.57L15.01,23.02L15.47,23.52L15.92,24.11L16.33,24.74L16.68,25.4L16.97,26.09L17.2,26.79L17.36,27.52L17.47,28.24L17.5,28.98L17.5,29.5L29.5,29.5L29.5,0.5L7.5,0.5zz" fill="#FFFFFF"/>
      <path d="M7,0.5L7,15.66L7.018,15.64L7.585,15.25L8,15.03L8,1L29,1L29,29L17.5,29L17.5,30L29.5,30L30,30L30,29.5L30,0.5L30,0L29.5,0L7.5,0L7,0zz" fill="#383838"/>
      <path d="M10,5L21,5L21,4L10,4zM10,8L21,8L21,7L10,7zM10,11L21,11L21,10L10,10zM10,14L21,14L21,13L10,13zM13.89,16.02L14.52,16.78L14.64,17L21,17L21,16L13.87,16zM15.37,19.14L15.4,19.67L15.38,20L21,20L21,19L15.35,19zM14.52,22.57L14.98,23L21,23L21,22L14.84,22zM16.68,25.4L16.93,26L21,26L21,25L16.47,25zz" fill="#C8C6C4"/>
      <path d="M23,5L27,5L27,4L23,4zM23,8L27,8L27,7L23,7zM23,11L27,11L27,10L23,10zM23,14L27,14L27,13L23,13zM23,17L27,17L27,16L23,16zM23,20L27,20L27,19L23,19zM23,23L27,23L27,22L23,22zM23,26L27,26L27,25L23,25zz" fill="#EF3E3B"/>
      <path d="M4.5,17.66L4.592,17.63L5.568,17.51L5.688,17.28L6.062,16.66L6.508,16.12L7.018,15.64L7.5,15.31L7.5,0.5L4.5,0.5zz" fill="#FFFFFF"/>
      <path d="M4,0.5L4,17.83L4.592,17.63L5,17.58L5,1L7,1L7,15.66L7.018,15.64L7.585,15.25L8,15.03L8,0.5L8,0L7.5,0L4.5,0L4,0zz" fill="#383838"/>
    </g>
    <g id="overlay">
      <path d="M8.901,22.672c0,1.752,-1.41,3.253,-3.15,3.253S2.6,24.424,2.6,22.672S4.011,19.5,5.75,19.5S8.901,20.92,8.901,22.672zM11,31.976c0,-3.062,-2.411,-6.03,-5.229,-6.03S0.5,28.914,0.5,31.976" fill="#FFFFFF" stroke="#228BCB" stroke-width="1" stroke-miterlimit="10"/>
      <path d="M10.591,22.96c2.678,0.214,4.909,3.071,4.909,6.016h-3.399c-0.331,-0.818,-0.79,-1.589,-1.363,-2.264c-0.342,-0.403,-0.72,-0.766,-1.125,-1.081C10.185,24.858,10.533,23.926,10.591,22.96zM10.601,22.672c0,0.078,-0.002,0.155,-0.006,0.232c1.578,-0.182,2.806,-1.598,2.806,-3.232c0,-1.752,-1.41,-3.172,-3.15,-3.172c-1.183,0,-2.214,0.657,-2.752,1.629C9.311,18.835,10.601,20.604,10.601,22.672z" fill="#FFFFFF"/>
      <path d="M14.324,24.489c-0.624,-0.735,-1.368,-1.293,-2.164,-1.638c1.036,-0.671,1.741,-1.858,1.741,-3.179c0,-2.025,-1.638,-3.672,-3.65,-3.672c-1.402,0,-2.622,0.8,-3.233,1.97c0.328,0.089,0.642,0.213,0.939,0.366C8.416,17.538,9.272,17,10.25,17c1.461,0,2.65,1.199,2.65,2.672c0,1.372,-1.026,2.547,-2.308,2.728c0.005,0.09,0.008,0.181,0.008,0.272c0,0.264,-0.022,0.527,-0.065,0.785c2.369,0.179,4.464,2.729,4.464,5.519h1C16,27.379,15.389,25.744,14.324,24.489z" fill="#383838"/>
    </g>
  </g>
</svg>
