<?xml version="1.0" encoding="UTF-8"?>
<!DOCTYPE svg PUBLIC "-//W3C//DTD SVG 1.1//EN" "http://www.w3.org/Graphics/SVG/1.1/DTD/svg11.dtd">
<svg version="1.1" id="Layer_1" xmlns="http://www.w3.org/2000/svg" xmlns:xlink="http://www.w3.org/1999/xlink" x="0px" y="0px" width="16px" height="16px" viewBox="0 0 16 16" enable-background="new 0 0 16 16" xml:space="preserve">
  <g id="main">
    <g id="icon">
      <path d="M3.5,6.673L3.733,6.445L4.409,5.986L5.173,5.699L5.578,5.624L5.993,5.599L6.689,5.67L7.337,5.872L7.924,6.192L8.436,6.616L8.858,7.13L9.177,7.719L9.379,8.37L9.449,9.068L9.359,9.854L9.098,10.59L9.354,10.88L9.896,11.64L10.3,12.49L10.55,13.39L10.63,14.31L10.63,14.5L14.5,14.5L14.5,0.5L3.5,0.5zz" fill="#FFFFFF"/>
      <path d="M3,0.5L3,7.303L3.005,7.302L3.177,7.059L3.438,6.734L3.733,6.445L4,6.264L4,1L14,1L14,14L10.6,14L10.63,14.31L10.63,15L14.5,15L15,15L15,14.5L15,0.5L15,0L14.5,0L3.5,0L3,0zz" fill="#383838"/>
      <path d="M5,3L10,3L10,2L5,2zM5,5L10,5L10,4L5,4zM7.924,6.192L8.436,6.616L8.751,7L10,7L10,6L7.572,6zM9.379,8.37L9.442,9L10,9L10,8L9.264,8zM9.098,10.59L9.354,10.88L9.442,11L10,11L10,10L9.308,10zz" fill="#C8C6C4"/>
      <path d="M11,3L13,3L13,2L11,2zM11,5L13,5L13,4L11,4zM11,7L13,7L13,6L11,6zM11,9L13,9L13,8L11,8zM11,11L13,11L13,10L11,10zM11,13L13,13L13,12L11,12zz" fill="#EF3E3B"/>
      <path d="M1.5,7.889L1.71,7.747L2.115,7.544L2.548,7.394L3.005,7.302L3.177,7.059L3.438,6.734L3.5,6.673L3.5,0.5L1.5,0.5zz" fill="#FFFFFF"/>
      <path d="M1,0.5L1,8L1.337,8L1.71,7.747L2,7.602L2,1L3,1L3,7.303L3.005,7.302L3.177,7.059L3.438,6.734L3.733,6.445L4,6.264L4,0.5L4,0L3.5,0L1.5,0L1,0zz" fill="#383838"/>
    </g>
    <g id="overlay">
      <path d="M5.233,10.759c0,0.987,-0.795,1.832,-1.775,1.832s-1.775,-0.845,-1.775,-1.832s0.795,-1.787,1.775,-1.787S5.233,9.772,5.233,10.759zM6.415,16c0,-1.725,-1.358,-3.397,-2.946,-3.397S0.5,14.275,0.5,16" fill="#FFFFFF" stroke="#228BCB" stroke-width="1" stroke-miterlimit="10"/>
      <g>
        <path d="M6.1,12.359c0.585,0.523,1.036,1.201,1.311,1.951H8.95c0,-1.533,-1.072,-3.022,-2.425,-3.335C6.492,11.466,6.344,11.94,6.1,12.359z" fill="#FFFFFF"/>
        <path d="M6.533,10.759c0,0.018,-0.001,0.035,-0.002,0.053c0.717,-0.241,1.237,-0.945,1.237,-1.743c0,-0.987,-0.795,-1.787,-1.775,-1.787c-0.541,0,-1.025,0.244,-1.351,0.628C5.751,8.377,6.533,9.478,6.533,10.759z" fill="#FFFFFF"/>
      </g>
      <path d="M8.44,11.653c-0.289,-0.34,-0.628,-0.622,-0.994,-0.829c0.502,-0.441,0.803,-1.087,0.803,-1.756C8.249,7.818,7.237,6.8,5.993,6.8c-0.737,0,-1.416,0.359,-1.837,0.953c0.334,0.078,0.647,0.211,0.929,0.388c0.239,-0.238,0.565,-0.378,0.908,-0.378c0.713,0,1.293,0.585,1.293,1.305c0,0.537,-0.326,1.025,-0.787,1.237c0.022,0.148,0.033,0.299,0.033,0.453c0,0.236,-0.028,0.468,-0.078,0.694c1.104,0.277,2.014,1.527,2.014,2.858v0.2h0.963v-0.2C9.432,13.364,9.07,12.395,8.44,11.653z" fill="#383838"/>
    </g>
  </g>
</svg>
