<?xml version="1.0" encoding="UTF-8"?>
<!DOCTYPE svg PUBLIC "-//W3C//DTD SVG 1.1//EN" "http://www.w3.org/Graphics/SVG/1.1/DTD/svg11.dtd">
<svg version="1.1" id="Layer_1" xmlns="http://www.w3.org/2000/svg" xmlns:xlink="http://www.w3.org/1999/xlink" x="0px" y="0px" width="16px" height="16px" viewBox="0 0 16 16" enable-background="new 0 0 16 16" xml:space="preserve">
  <g id="main">
    <g id="icon">
      <path d="M0.5,14.5L5.551,14.5L5.707,13.99L6.189,13.09L6.832,12.3L6.573,11.55L6.484,10.76L6.544,10.11L6.717,9.504L6.991,8.946L7.356,8.451L7.801,8.027L8.315,7.688L8.887,7.442L9.506,7.302L9.678,7.059L9.939,6.734L10.23,6.445L10.91,5.986L11.67,5.699L12.08,5.624L12.49,5.599L12.91,5.625L13.32,5.699L14.07,5.981L14.5,6.271L14.5,3.5L0.5,3.5zz" fill="#FFFFFF"/>
      <path d="M0,3.5L0,14.5L0,15L0.5,15L5.401,15L5.405,14.97L5.706,14L1,14L1,4L14,4L14,5.956L14.07,5.981L14.73,6.423L15,6.716L15,3.5L15,3L14.5,3L0.5,3L0,3zz" fill="#49263B"/>
      <path d="M0.5,3.5L14.5,3.5L14.5,0.5L0.5,0.5zz" fill="#D3ACC4"/>
      <path d="M0,0.5L0,3.5L0,4L0.5,4L14.5,4L15,4L15,3.5L15,0.5L15,0L14.5,0L0.5,0L0,0zM14,1L14,3L1,3L1,1zz" fill="#793F63"/>
      <path d="M3,7L9.725,7L9.939,6.734L10.23,6.445L10.89,6L3,6zz" fill="#9D5381"/>
      <path d="M3,9L6.965,9L6.991,8.946L7.356,8.451L7.801,8.027L7.843,8L3,8zz" fill="#9D5381"/>
      <path d="M3,11L6.511,11L6.484,10.76L6.544,10.11L6.576,10L3,10zz" fill="#9D5381"/>
    </g>
    <g id="overlay">
      <path d="M11.733,10.759c0,0.987,-0.795,1.832,-1.775,1.832s-1.775,-0.845,-1.775,-1.832s0.795,-1.787,1.775,-1.787S11.733,9.772,11.733,10.759zM12.915,16c0,-1.725,-1.358,-3.397,-2.946,-3.397S7,14.275,7,16" fill="#FFFFFF" stroke="#228BCB" stroke-width="1" stroke-miterlimit="10"/>
      <g>
        <path d="M12.6,12.359c0.585,0.523,1.036,1.201,1.311,1.951h1.539c0,-1.533,-1.072,-3.022,-2.425,-3.335C12.992,11.466,12.844,11.94,12.6,12.359z" fill="#FFFFFF"/>
        <path d="M13.033,10.759c0,0.018,-0.001,0.035,-0.002,0.053c0.717,-0.241,1.237,-0.945,1.237,-1.743c0,-0.987,-0.795,-1.787,-1.775,-1.787c-0.541,0,-1.025,0.244,-1.351,0.628C12.251,8.377,13.033,9.478,13.033,10.759z" fill="#FFFFFF"/>
      </g>
      <path d="M14.94,11.653c-0.289,-0.34,-0.628,-0.622,-0.994,-0.829c0.502,-0.441,0.803,-1.087,0.803,-1.756c0,-1.251,-1.012,-2.269,-2.256,-2.269c-0.737,0,-1.416,0.359,-1.837,0.953c0.334,0.078,0.647,0.211,0.929,0.388c0.239,-0.238,0.565,-0.378,0.908,-0.378c0.713,0,1.293,0.585,1.293,1.305c0,0.537,-0.326,1.025,-0.787,1.237c0.022,0.148,0.033,0.299,0.033,0.453c0,0.236,-0.028,0.468,-0.078,0.694c1.104,0.277,2.014,1.527,2.014,2.858v0.2h0.963v-0.2C15.932,13.364,15.57,12.395,14.94,11.653z" fill="#383838"/>
    </g>
  </g>
</svg>
