<?xml version="1.0" encoding="UTF-8"?>
<!DOCTYPE svg PUBLIC "-//W3C//DTD SVG 1.1//EN" "http://www.w3.org/Graphics/SVG/1.1/DTD/svg11.dtd">
<svg version="1.1" id="Layer_1" xmlns="http://www.w3.org/2000/svg" xmlns:xlink="http://www.w3.org/1999/xlink" x="0px" y="0px" width="16px" height="16px" viewBox="0 0 16 16" enable-background="new 0 0 16 16" xml:space="preserve">
  <g id="main">
    <g id="icon">
      <path d="M1.91,2.573L1.758,2.672L1.632,2.819L1.196,4.111L0.6641,6.136L0.6,6.585L0.6,9.165L0.6332,9.298L0.7205,9.404L0.982,9.5L1.9,9.5L5.633,9.5L6.169,9.5L6.249,9.283L6.489,8.785L6.775,8.315L7.103,7.876L7.471,7.471L7.876,7.103L8.315,6.775L8.767,6.5L6.5,6.5L6.5,2.792L6.421,2.574L6.2,2.5L2.222,2.5zM14.5,6.663L14.5,6.5L14.22,6.5zz" fill="#FFFFFF"/>
      <path d="M3.206,8.219L2.896,8.316L2.614,8.47L2.369,8.674L2.167,8.921L2.014,9.205L1.918,9.519L1.884,9.855L1.918,10.19L2.014,10.5L2.167,10.79L2.369,11.04L2.614,11.24L2.895,11.39L3.206,11.49L3.54,11.52L3.874,11.49L4.184,11.39L4.466,11.24L4.711,11.04L4.913,10.79L5.066,10.5L5.162,10.19L5.196,9.855L5.162,9.519L5.066,9.205L4.913,8.922L4.711,8.675L4.466,8.471L4.184,8.317L3.874,8.219L3.54,8.185zz" fill="#C8C6C4"/>
      <path d="M3.489,7.688L3.156,7.721L3.105,7.727L3.057,7.742L2.746,7.839L2.699,7.854L2.655,7.878L2.374,8.032L2.332,8.055L2.295,8.086L2.049,8.29L2.013,8.321L1.982,8.358L1.78,8.605L1.75,8.642L1.727,8.684L1.574,8.968L1.551,9.011L1.536,9.058L1.44,9.371L1.425,9.419L1.42,9.469L1.387,9.805L1.381,9.855L1.387,9.905L1.42,10.24L1.425,10.29L1.44,10.34L1.536,10.65L1.551,10.7L1.574,10.74L1.726,11.03L1.749,11.07L1.78,11.11L1.982,11.35L2.012,11.39L2.049,11.42L2.294,11.62L2.331,11.66L2.374,11.68L2.655,11.83L2.699,11.86L2.746,11.87L3.057,11.97L3.105,11.98L3.156,11.99L3.489,12.02L3.54,12.03L3.591,12.02L3.924,11.99L3.975,11.98L4.023,11.97L4.334,11.87L4.381,11.86L4.424,11.83L4.706,11.68L4.748,11.66L4.785,11.62L5.03,11.42L5.067,11.39L5.098,11.35L5.3,11.11L5.33,11.07L5.353,11.03L5.506,10.74L5.529,10.7L5.544,10.65L5.64,10.34L5.655,10.29L5.66,10.24L5.694,9.905L5.698,9.855L5.694,9.805L5.66,9.469L5.655,9.419L5.64,9.371L5.544,9.058L5.529,9.011L5.506,8.968L5.353,8.685L5.33,8.642L5.3,8.605L5.098,8.358L5.067,8.321L5.03,8.29L4.785,8.086L4.748,8.055L4.706,8.032L4.424,7.878L4.381,7.854L4.334,7.84L4.023,7.742L3.975,7.727L3.925,7.722L3.591,7.688L3.54,7.682zM3.772,8.712L3.987,8.779L4.184,8.887L4.354,9.028L4.496,9.201L4.602,9.399L4.67,9.618L4.694,9.855L4.67,10.09L4.602,10.31L4.496,10.51L4.354,10.68L4.183,10.82L3.987,10.93L3.773,11L3.54,11.02L3.307,11L3.092,10.93L2.896,10.82L2.726,10.68L2.584,10.51L2.478,10.31L2.41,10.09L2.387,9.855L2.41,9.618L2.478,9.399L2.584,9.201L2.726,9.028L2.897,8.885L3.093,8.779L3.307,8.711L3.54,8.688zz" fill="#383838"/>
      <path d="M4,3L5.475,3L5.679,3.041L5.846,3.154L5.959,3.321L6,3.525L6,6L6,7L6,9L5.3,9L5.3,10L6.007,10L6.057,9.807L6.249,9.283L6.489,8.785L6.775,8.315L7,8.014L7,7L8.014,7L8.315,6.775L8.785,6.489L9.283,6.249L9.807,6.057L10.03,6L7,6L7,3.525L6.969,3.218L6.88,2.932L6.739,2.673L6.553,2.447L6.327,2.261L6.068,2.12L5.782,2.031L5.475,2L4,2zM13.45,6.145L14.04,6.401L14.6,6.72L15,7.014L15,7L15,6L14,6L12.97,6zM0,9.166L0.07988,9.507L0.2881,9.77L0.5783,9.94L0.9039,10L2.1,10L2.1,9L1,9L1,7L0,7zz" fill="#383838"/>
      <path d="M1.952,2.555L1.659,2.711L1.429,2.95L1.284,3.257L0.6,6.5L3.5,6.5L3.5,2.5L2.287,2.5zz" fill="#92CBEE"/>
      <path d="M2.206,2.007L1.87,2.062L1.79,2.075L1.718,2.113L1.425,2.269L1.354,2.306L1.298,2.364L1.068,2.604L1.012,2.662L0.9771,2.736L0.8318,3.043L0.8068,3.096L0.7947,3.154L0.1107,6.397L-0,6.922L0,7L0.6,7L3.5,7L4,7L4,6.5L4,2.5L4,2L3.5,2L2.287,2L2.246,2zM3,3L3,6L1.216,6L1.761,3.418L1.846,3.237L1.964,3.115L2.113,3.035L2.328,3zz" fill="#0964B0"/>
      <path d="M8.5,4.5L11.5,4.5L11.5,1.5L8.5,1.5zz" fill="#F7DA8E"/>
      <path d="M8,1.5L8,4.5L8,5L8.5,5L11.5,5L12,5L12,4.5L12,1.5L12,1L11.5,1L8.5,1L8,1zM11,2L11,4L9,4L9,2zz" fill="#E57428"/>
      <path d="M11.5,4.5L14.5,4.5L14.5,1.5L11.5,1.5zz" fill="#F7DA8E"/>
      <path d="M11,1.5L11,4.5L11,5L11.5,5L14.5,5L15,5L15,4.5L15,1.5L15,1L14.5,1L11.5,1L11,1zM14,2L14,4L12,4L12,2zz" fill="#E57428"/>
    </g>
    <g id="overlay">
      <path d="M7.5,11.5c0,-2.209,1.791,-4,4,-4s4,1.791,4,4s-1.791,4,-4,4S7.5,13.709,7.5,11.5zM9.06,14.669M13.96,14.654" fill="#FFFFFF" stroke="#383838" stroke-width="1" stroke-miterlimit="10"/>
      <path d="M11.5,9v2.534l1.737,1.926" fill="none" stroke="#228BCB" stroke-width="1" stroke-miterlimit="10"/>
    </g>
  </g>
</svg>
