<?xml version="1.0" encoding="UTF-8"?>
<!DOCTYPE svg PUBLIC "-//W3C//DTD SVG 1.1//EN" "http://www.w3.org/Graphics/SVG/1.1/DTD/svg11.dtd">
<svg version="1.1" id="Layer_1" xmlns="http://www.w3.org/2000/svg" xmlns:xlink="http://www.w3.org/1999/xlink" x="0px" y="0px" width="16px" height="16px" viewBox="0 0 16 16" enable-background="new 0 0 16 16" xml:space="preserve">
  <g id="icon">
    <path d="M6.5,10.5V6.792c0,-0.191,-0.112,-0.292,-0.3,-0.292H2.222c-0.188,0,-0.448,0.088,-0.59,0.319c-0.141,0.23,-0.699,2.11,-0.968,3.317C0.644,10.233,0.6,10.431,0.6,10.585c0,1.199,0,2.58,0,2.58c0,0.191,0.194,0.334,0.382,0.334H1.9h3.733h0.617c0.167,0,0.25,-0.192,0.25,-0.335V13.4l4.6,0.1h3.35H15.5v-3H6.5z" fill="#FFFFFF"/>
    <path d="M12.34,12.186c-0.915,0,-1.656,0.748,-1.656,1.67c0,0.922,0.742,1.67,1.656,1.67c0.915,0,1.656,-0.748,1.656,-1.67C13.996,12.933,13.254,12.186,12.34,12.186zM5.196,13.855c0,0.922,-0.742,1.67,-1.656,1.67c-0.915,0,-1.656,-0.748,-1.656,-1.67c0,-0.922,0.742,-1.67,1.656,-1.67C4.454,12.186,5.196,12.933,5.196,13.855z" fill="#FFFFFF" stroke="#383838" stroke-width="1" stroke-miterlimit="10"/>
    <path d="M16,10v1v3h-1.8v-1h0.8v-2H7v2h3.9v1H5.3v-1h0.7v-2v-1V7.525c0,-0.29,-0.235,-0.525,-0.525,-0.525H4V6h1.475C6.316,6,7,6.684,7,7.525V10h8H16zM1,11H0v2.166c0,0.499,0.467,0.834,0.904,0.834H2.1v-1H1V11z" fill="#383838"/>
    <path d="M3.5,10.5H0.6l0.684,-3.243C1.412,6.809,1.821,6.5,2.287,6.5H3.5V10.5z" fill="#FFFFFF" stroke="#228BCB" stroke-width="1" stroke-miterlimit="10"/>
    <path d="M11.5,8.5H8.5V5.5h3V8.5z" fill="#FFFFFF" stroke="#ED8730" stroke-width="1" stroke-miterlimit="10"/>
    <path d="M14.5,8.5h-3V5.5h3V8.5z" fill="#FFFFFF" stroke="#ED8730" stroke-width="1" stroke-miterlimit="10"/>
  </g>
</svg>
