<?xml version="1.0" encoding="UTF-8"?>
<!DOCTYPE svg PUBLIC "-//W3C//DTD SVG 1.1//EN" "http://www.w3.org/Graphics/SVG/1.1/DTD/svg11.dtd">
<svg version="1.1" id="Layer_1" xmlns="http://www.w3.org/2000/svg" xmlns:xlink="http://www.w3.org/1999/xlink" x="0px" y="0px" width="16px" height="16px" viewBox="0 0 16 16" enable-background="new 0 0 16 16" xml:space="preserve">
  <g id="main">
    <g id="icon">
      <path d="M6.784,0.5361L6.089,0.6422L5.418,0.8146L4.775,1.05L4.163,1.345L3.586,1.696L3.047,2.098L2.55,2.55L2.098,3.047L1.696,3.586L1.345,4.163L1.05,4.775L0.8146,5.418L0.6422,6.089L0.5361,6.784L0.5,7.5L0.5361,8.216L0.6422,8.911L0.8146,9.582L1.05,10.22L1.345,10.84L1.696,11.41L2.098,11.95L2.55,12.45L3.047,12.9L3.586,13.3L4.163,13.66L4.775,13.95L5.418,14.19L6.089,14.36L6.784,14.46L7.293,14.49L4.322,11.52L11.06,4.8L13.96,4.8L13.95,4.775L13.66,4.163L13.3,3.586L12.9,3.047L12.45,2.55L11.95,2.098L11.41,1.696L10.84,1.345L10.22,1.05L9.582,0.8146L8.911,0.6422L8.216,0.5361L7.5,0.5zz" fill="#FFFFFF"/>
      <path d="M7.475,0.0005859L6.759,0.03672L6.734,0.03809L6.709,0.0418L6.014,0.1479L5.989,0.1518L5.965,0.158L5.294,0.3305L5.27,0.3367L5.246,0.3451L4.604,0.5805L4.58,0.5891L4.558,0.5996L3.946,0.8943L3.925,0.9049L3.904,0.9176L3.327,1.268L3.306,1.281L3.287,1.295L2.748,1.698L2.729,1.712L2.711,1.729L2.214,2.18L2.196,2.196L2.18,2.214L1.729,2.711L1.712,2.729L1.698,2.748L1.295,3.287L1.281,3.306L1.268,3.327L0.9176,3.904L0.9049,3.925L0.8943,3.946L0.5996,4.558L0.5891,4.58L0.5805,4.604L0.3451,5.246L0.3367,5.27L0.3305,5.294L0.158,5.965L0.1518,5.989L0.1479,6.014L0.0418,6.709L0.03809,6.734L0.03672,6.759L0.0005859,7.475L-0,7.488L0,7.512L0.0005859,7.525L0.03672,8.241L0.03809,8.266L0.0418,8.291L0.1479,8.986L0.1518,9.011L0.158,9.035L0.3305,9.706L0.3367,9.73L0.3451,9.754L0.5805,10.4L0.5891,10.42L0.5996,10.44L0.8943,11.05L0.9049,11.08L0.9176,11.1L1.268,11.67L1.281,11.69L1.295,11.71L1.698,12.25L1.712,12.27L1.729,12.29L2.18,12.79L2.196,12.8L2.214,12.82L2.711,13.27L2.729,13.29L2.748,13.3L3.287,13.7L3.306,13.72L3.327,13.73L3.904,14.08L3.925,14.1L3.946,14.11L4.558,14.4L4.58,14.41L4.604,14.42L5.246,14.65L5.27,14.66L5.294,14.67L5.965,14.84L5.989,14.85L6.014,14.85L6.709,14.96L6.734,14.96L6.759,14.96L7.475,15L7.5,15L7.525,15L7.789,14.99L6.757,13.95L6.188,13.87L5.566,13.71L4.97,13.49L4.403,13.22L3.866,12.89L3.366,12.52L2.904,12.1L2.484,11.63L2.111,11.13L1.785,10.6L1.512,10.03L1.293,9.434L1.133,8.812L1.034,8.165L1.001,7.5L1.034,6.835L1.133,6.188L1.293,5.566L1.512,4.97L1.785,4.403L2.111,3.866L2.484,3.366L2.904,2.904L3.366,2.484L3.866,2.111L4.403,1.785L4.97,1.512L5.566,1.293L6.188,1.133L6.835,1.034L7.5,1.001L8.165,1.034L8.812,1.133L9.434,1.293L10.03,1.512L10.6,1.785L11.13,2.111L11.63,2.484L12.1,2.904L12.52,3.366L12.89,3.866L13.22,4.403L13.41,4.8L14.49,4.8L14.42,4.604L14.41,4.58L14.4,4.558L14.11,3.946L14.1,3.925L14.08,3.904L13.73,3.327L13.72,3.306L13.7,3.287L13.3,2.748L13.29,2.729L13.27,2.711L12.82,2.214L12.8,2.196L12.79,2.18L12.29,1.729L12.27,1.712L12.25,1.698L11.71,1.295L11.69,1.281L11.67,1.268L11.1,0.9176L11.08,0.9049L11.05,0.8943L10.44,0.5996L10.42,0.5891L10.4,0.5805L9.754,0.3451L9.73,0.3367L9.706,0.3305L9.035,0.158L9.011,0.1518L8.986,0.1479L8.291,0.0418L8.266,0.03809L8.241,0.03672L7.525,0.0005859L7.512,0L7.488,0zz" fill="#383838"/>
      <path d="M7,7.959L7,8.169L7.15,8.316L7.343,8.505L8.05,7.798L8,7.749L8,2L7,2zz" fill="#228BCB"/>
    </g>
    <g id="overlay">
      <path d="M14.98,6.5h-3.222l-5.031,5.021l3.764,3.764L15.5,10.241V7.02C15.5,6.733,15.267,6.5,14.98,6.5zM13.31,9.581c-0.492,0,-0.89,-0.398,-0.89,-0.89c0,-0.492,0.398,-0.89,0.89,-0.89s0.89,0.398,0.89,0.89C14.2,9.182,13.802,9.581,13.31,9.581z" fill="#92CBEE" stroke="#0964B0" stroke-width="1" stroke-miterlimit="10"/>
    </g>
  </g>
</svg>
