<?xml version="1.0" encoding="UTF-8"?>
<!DOCTYPE svg PUBLIC "-//W3C//DTD SVG 1.1//EN" "http://www.w3.org/Graphics/SVG/1.1/DTD/svg11.dtd">
<svg version="1.1" id="Layer_1" xmlns="http://www.w3.org/2000/svg" xmlns:xlink="http://www.w3.org/1999/xlink" x="0px" y="0px" width="16px" height="16px" viewBox="0 0 16 16" enable-background="new 0 0 16 16" xml:space="preserve">
  <g id="main">
    <g id="icon">
      <path d="M9.662,0.5529L9.424,0.7109L5.067,5.067L7.471,7.471L7.876,7.103L8.315,6.775L8.785,6.489L9.283,6.249L9.807,6.057L10.35,5.916L10.92,5.829L11.5,5.8L12.18,5.84L12.83,5.956L13.45,6.145L13.64,6.226L14.29,5.577L14.45,5.339L14.5,5.068L14.45,4.797L14.29,4.559L10.44,0.7109L10.2,0.5529L9.933,0.5002zz" fill="#F3B8B8"/>
      <path d="M9.838,0.009375L9.567,0.06211L9.469,0.08125L9.386,0.1363L9.147,0.2945L9.106,0.3221L9.071,0.3574L4.713,4.713L5.421,5.421L9.742,1.1L9.856,1.025L9.933,1.01L10.01,1.025L10.12,1.1L13.9,4.877L13.98,4.991L13.99,5.068L13.98,5.145L13.9,5.259L13.12,6.043L13.45,6.145L14.04,6.401L14.13,6.448L14.64,5.93L14.68,5.895L14.71,5.854L14.86,5.615L14.92,5.532L14.94,5.434L14.99,5.163L15.01,5.068L14.99,4.972L14.94,4.702L14.92,4.604L14.86,4.521L14.71,4.282L14.68,4.241L14.64,4.205L10.8,0.3574L10.76,0.3221L10.72,0.2945L10.48,0.1363L10.4,0.08125L10.3,0.06211L10.03,0.009375L9.98,0L9.886,0zz" fill="#E42D2C"/>
      <path d="M0.7109,9.424L0.5529,9.662L0.5002,9.933L0.5529,10.2L0.7109,10.44L4.559,14.29L4.797,14.45L5.068,14.5L5.339,14.45L5.577,14.29L6.226,13.64L6.145,13.45L5.956,12.83L5.84,12.18L5.8,11.5L5.829,10.92L5.916,10.35L6.057,9.807L6.249,9.283L6.489,8.785L6.775,8.315L7.103,7.876L7.471,7.471L5.067,5.068zz" fill="#92CBEE"/>
      <path d="M0.3574,9.071L0.3221,9.106L0.2945,9.147L0.1363,9.386L0.08125,9.469L0.06211,9.567L0.009375,9.838L-0,9.886L0,9.98L0.009375,10.03L0.06211,10.3L0.08125,10.4L0.1363,10.48L0.2945,10.72L0.3221,10.76L0.3574,10.8L4.205,14.64L4.241,14.68L4.282,14.71L4.521,14.86L4.604,14.92L4.702,14.94L4.972,14.99L5.068,15.01L5.163,14.99L5.434,14.94L5.532,14.92L5.615,14.86L5.854,14.71L5.895,14.68L5.93,14.64L6.448,14.13L6.401,14.04L6.145,13.45L6.043,13.12L5.259,13.9L5.145,13.98L5.068,13.99L4.991,13.98L4.877,13.9L1.1,10.12L1.025,10.01L1.01,9.933L1.025,9.856L1.1,9.742L5.421,5.421L4.713,4.714zz" fill="#0964B0"/>
    </g>
    <g id="overlay">
      <path d="M11.5,7.5c-2.209,0,-4,1.791,-4,4c0,2.209,1.791,4,4,4s4,-1.791,4,-4C15.5,9.291,13.709,7.5,11.5,7.5zM10.714,14.007l-2.01,-2.01l0.707,-0.707l1.303,1.303l2.932,-2.932l0.707,0.707L10.714,14.007z" fill="#B2DBB4"/>
      <path d="M11.5,7.5c-2.209,0,-4,1.791,-4,4c0,2.209,1.791,4,4,4s4,-1.791,4,-4C15.5,9.291,13.709,7.5,11.5,7.5zM10.714,14.007l-2.01,-2.01l0.707,-0.707l1.303,1.303l2.932,-2.932l0.707,0.707L10.714,14.007z" fill="#009949" opacity="0.2"/>
      <path d="M11.5,16c-2.481,0,-4.5,-2.019,-4.5,-4.5s2.019,-4.5,4.5,-4.5s4.5,2.019,4.5,4.5S13.981,16,11.5,16zM11.5,8c-1.93,0,-3.5,1.57,-3.5,3.5s1.57,3.5,3.5,3.5s3.5,-1.57,3.5,-3.5S13.43,8,11.5,8z" fill="#009949"/>
      <polygon points="10.714,14.007 8.704,11.997 9.411,11.29 10.714,12.593 13.646,9.661 14.353,10.368" fill="#FFFFFF" stroke-linejoin="miter"/>
    </g>
  </g>
</svg>
