<?xml version="1.0" encoding="UTF-8"?>
<!DOCTYPE svg PUBLIC "-//W3C//DTD SVG 1.1//EN" "http://www.w3.org/Graphics/SVG/1.1/DTD/svg11.dtd">
<svg version="1.1" id="Layer_1" xmlns="http://www.w3.org/2000/svg" xmlns:xlink="http://www.w3.org/1999/xlink" x="0px" y="0px" width="16px" height="16px" viewBox="0 0 16 16" enable-background="new 0 0 16 16" xml:space="preserve">
  <g id="main">
    <g id="icon">
      <path d="M2.5,3.933L2.5,14.5L7.8,14.5L7.8,9.39L12.53,5.491L14.5,7.138L14.5,4.557L10.53,0.5L2.5,0.5zz" fill="#FFFFFF"/>
      <path d="M2,9.3L3,9.3L3,1L10.32,1L14,4.761L14,6.719L15,7.557L15,4.353L10.74,0L2,0zz" fill="#383838"/>
      <path d="M10,4.5L10,5L10.5,5L14.5,5L14.5,4L11,4L11,0.5L10,0.5zz" fill="#383838"/>
      <path d="M4.973,10.12L4.249,10.23L4.219,10.23L3.511,10.39L3.474,10.4L2.625,10.69L2.58,10.7L2.179,10.89L2.132,10.92L1.787,11.14L1.721,11.2L1.463,11.46L1.386,11.57L1.246,11.86L1.207,12.02L1.198,12.26L1.245,12.47L1.333,12.63L1.481,12.78L1.644,12.88L1.701,12.9L1.498,13.02L1.466,13.04L0.8156,13.52L0.7711,13.55L0.2543,14.06L0.2221,14.09L0.08809,14.26L0.0005859,14.54L0.1191,14.8L0.3824,14.91L0.3857,14.91L1.257,14.94L1.325,14.94L2.252,14.81L2.319,14.8L3.218,14.52L3.273,14.5L3.636,14.32L3.79,14.46L4.004,14.57L4.136,14.61L4.425,14.64L4.527,14.64L4.86,14.59L4.949,14.57L5.295,14.44L5.379,14.39L5.626,14.22L5.756,14.35L5.949,14.47L6.229,14.54L6.374,14.54L6.706,14.5L6.79,14.49L7.144,14.36L7.197,14.34L7.544,14.16L7.603,14.12L7.735,14.02L7.75,14.04L7.8,14.09L7.8,13.01L7.669,13.06L7.145,13.46L6.854,13.62L6.567,13.72L6.351,13.74L6.255,13.72L6.212,13.67L6.151,13.41L5.989,13.17L5.711,13.1L5.458,13.24L5.455,13.24L5.207,13.53L4.96,13.71L4.702,13.81L4.468,13.84L4.3,13.82L4.276,13.81L4.284,13.74L4.211,13.46L3.971,13.31L3.687,13.35L3.67,13.36L3.316,13.59L2.951,13.76L2.112,14.03L1.329,14.13L1.92,13.7L3.252,12.92L3.431,12.69L3.413,12.41L3.207,12.21L3.038,12.17L2.569,12.19L2.566,12.19L2.108,12.18L2.002,12.16L2.004,12.13L2.079,11.97L2.259,11.79L2.545,11.61L2.901,11.44L3.707,11.17L4.382,11.02L5.062,10.91L5.497,10.91L5.462,10.99L5.295,11.14L5.019,11.34L4.987,11.36L4.707,11.61L4.576,11.87L4.65,12.15L4.891,12.3L5.174,12.26L5.241,12.21L5.506,11.97L5.782,11.77L5.815,11.75L6.057,11.53L6.149,11.4L6.279,11.14L6.318,10.97L6.319,10.79L6.281,10.61L6.22,10.48L6.093,10.33L5.971,10.24L5.844,10.18L5.663,10.13L5.556,10.11L5.033,10.11zz" fill="#238BCB"/>
      <path d="M4,3L9,3L9,2L4,2zM4,5L9,5L9,4L4,4zM4,7L10.7,7L11.92,6L4,6zM4,9L8.274,9L9.488,8L4,8zz" fill="#787979" opacity="0.6"/>
    </g>
    <g id="overlay">
      <polygon points="12.525,7.701 9.5,10.192 9.5,15.5 11.5,15.5 11.5,12.5 13.5,12.5 13.5,15.5 15.5,15.5 15.5,10.194" fill="#92CBEE" stroke="#0964B0" stroke-width="1" stroke-miterlimit="10" stroke-linejoin="miter"/>
    </g>
  </g>
</svg>
