<?xml version="1.0" encoding="UTF-8"?>
<!DOCTYPE svg PUBLIC "-//W3C//DTD SVG 1.1//EN" "http://www.w3.org/Graphics/SVG/1.1/DTD/svg11.dtd">
<svg version="1.1" id="Layer_1" xmlns="http://www.w3.org/2000/svg" xmlns:xlink="http://www.w3.org/1999/xlink" x="0px" y="0px" width="16px" height="16px" viewBox="0 0 16 16" enable-background="new 0 0 16 16" xml:space="preserve">
  <g id="main">
    <g id="icon">
      <path d="M1.5,6.663L1.956,6.401L2.548,6.145L3.172,5.956L3.825,5.84L4.5,5.8L5.082,5.829L5.647,5.916L6.193,6.057L6.717,6.249L7.215,6.489L7.685,6.775L8.124,7.103L8.529,7.471L8.897,7.876L9.225,8.315L9.511,8.785L9.751,9.283L9.943,9.807L10.08,10.35L10.17,10.92L10.2,11.5L10.16,12.18L10.04,12.83L9.855,13.45L9.599,14.04L9.337,14.5L15.5,14.5L15.5,3.5L1.5,3.5zz" fill="#FFFFFF"/>
      <path d="M1,3.5L1,7.014L1.401,6.72L1.956,6.401L2,6.382L2,4L15,4L15,14L9.618,14L9.599,14.04L9.28,14.6L8.986,15L15.5,15L16,15L16,14.5L16,3.5L16,3L15.5,3L1.5,3L1,3zz" fill="#383838"/>
      <path d="M1.5,3.5L15.5,3.5L15.5,0.5L1.5,0.5zz" fill="#C8C6C4"/>
      <path d="M1,0.5L1,3.5L1,4L1.5,4L15.5,4L16,4L16,3.5L16,0.5L16,0L15.5,0L1.5,0L1,0zM15,1L15,3L2,3L2,1zz" fill="#383838"/>
      <path d="M6,6.007L6.193,6.057L6.717,6.249L7,6.385L7,4L6,4zz" fill="#787979"/>
      <path d="M11,14L12,14L12,4L11,4zz" fill="#787979"/>
      <path d="M10.2,11.5L10.17,12L15,12L15,11L10.17,11zz" fill="#787979"/>
      <path d="M8.124,7.103L8.529,7.471L8.897,7.876L8.989,8L15,8L15,7L7.986,7zz" fill="#787979"/>
    </g>
    <g id="overlay">
      <path d="M0.5,11.5c0,-2.209,1.791,-4,4,-4s4,1.791,4,4s-1.791,4,-4,4S0.5,13.709,0.5,11.5zM2.06,14.669M6.96,14.654" fill="#FFFFFF" stroke="#383838" stroke-width="1" stroke-miterlimit="10"/>
      <path d="M4.5,9v2.534l1.737,1.926" fill="none" stroke="#228BCB" stroke-width="1" stroke-miterlimit="10"/>
    </g>
  </g>
</svg>
