<?xml version="1.0" encoding="UTF-8"?>
<!DOCTYPE svg PUBLIC "-//W3C//DTD SVG 1.1//EN" "http://www.w3.org/Graphics/SVG/1.1/DTD/svg11.dtd">
<svg version="1.1" id="Layer_1" xmlns="http://www.w3.org/2000/svg" xmlns:xlink="http://www.w3.org/1999/xlink" x="0px" y="0px" width="16px" height="16px" viewBox="0 0 16 16" enable-background="new 0 0 16 16" xml:space="preserve">
  <g id="icon">
    <polyline points="2.5,3.933 2.5,0.5 10.533,0.5 14.5,4.557 14.5,15.5 2.5,15.5" fill="#FFFFFF" stroke-linejoin="miter"/>
    <polygon points="15,16 12,16 12,15 14,15 14,4.761 10.323,1 3,1 3,10.3 2,10.3 2,0 10.744,0 15,4.353" fill="#383838" stroke-linejoin="miter"/>
    <polyline points="14.5,4.5 10.5,4.5 10.5,0.5" fill="none" stroke="#383838" stroke-width="1" stroke-miterlimit="10" stroke-linejoin="miter"/>
    <path d="M10.174,14.991c0.282,-0.352,0.385,-0.479,0.251,-0.943c-0.529,0.155,-2.425,1.645,-2.513,0.333c-0.531,0.547,-2.096,1.351,-2.151,0.118c-0.662,1.033,-2.151,0.889,-1.875,0.197c-0.938,0.692,-2.399,0.961,-3.486,0.816l0.134,-0.167c0.561,-0.69,1.713,-1.329,2.515,-1.772c-0.528,-0.027,-1.616,0.231,-1.442,-0.538c0.19,-0.839,1.96,-1.274,2.701,-1.413c1.09,-0.203,1.7,-0.196,1.61,0.34c-0.069,0.411,-0.607,0.573,-0.944,0.951" fill="none" stroke="#238BCB" stroke-width="0.8" stroke-linecap="round" stroke-miterlimit="10" stroke-linejoin="round"/>
    <path d="M4,5.5h5M4,3.5h5M4,7.5h9M4,9.5h9" fill="none" stroke="#787979" stroke-width="1" stroke-miterlimit="10" opacity="0.6"/>
  </g>
</svg>
