<?xml version="1.0" encoding="UTF-8"?>
<!DOCTYPE svg PUBLIC "-//W3C//DTD SVG 1.1//EN" "http://www.w3.org/Graphics/SVG/1.1/DTD/svg11.dtd">
<svg version="1.1" id="Layer_1" xmlns="http://www.w3.org/2000/svg" xmlns:xlink="http://www.w3.org/1999/xlink" x="0px" y="0px" width="16px" height="16px" viewBox="0 0 16 16" enable-background="new 0 0 16 16" xml:space="preserve">
  <g id="main">
    <g id="icon">
      <path d="M12.83,0.5195L12.52,0.6508L11.77,1.171L10.82,1.969L9.471,3.219L1.939,2.92L1.792,2.966L0.6699,3.825L0.5924,3.929L0.5814,4.052L0.6324,4.164L0.7402,4.236L6.859,6.142L4.096,8.904L1.538,8.74L1.353,8.817L0.5355,9.747L0.4814,9.856L0.4867,9.971L0.5445,10.07L0.6482,10.13L2.888,10.73L2.573,11.05L2.328,11.39L2.289,11.54L2.307,11.66L2.399,11.77L2.552,11.8L2.812,11.74L3.091,11.57L3.462,11.23L4.41,13.29L4.49,13.38L4.6,13.42L4.714,13.4L4.807,13.32L5.594,12.14L5.623,11.94L5.075,10.13L6.592,8.616L6.775,8.315L7.103,7.876L7.471,7.471L7.876,7.103L8.315,6.775L8.785,6.489L9.283,6.249L9.807,6.057L10.35,5.916L10.92,5.829L11,5.825L10.81,4.316L12.07,2.927L12.83,2.017L13.28,1.372L13.42,0.9273L13.42,0.7574L13.37,0.6234L13.27,0.5266L13.08,0.4777zz" fill="#FFFFFF" opacity="0.5"/>
      <path d="M12.72,0.05508L12.3,0.2238L11.62,0.6789L10.78,1.374L9.288,2.734L1.957,2.442L1.928,2.442L1.704,2.479L1.503,2.586L0.3809,3.445L0.2428,3.584L0.1496,3.753L0.1049,3.94L0.1125,4.137L0.1725,4.324L0.2781,4.484L0.4225,4.609L0.5988,4.692L5.963,6.363L3.912,8.413L1.568,8.263L1.522,8.262L1.233,8.324L0.9951,8.501L0.1781,9.431L0.01602,9.752L0.03125,10.11L0.2164,10.42L0.5262,10.59L2.013,10.99L1.888,11.21L1.822,11.43L1.815,11.64L1.866,11.84L1.976,12.02L2.133,12.16L2.33,12.25L2.556,12.28L2.924,12.21L3.297,12.01L3.978,13.49L4.079,13.65L4.215,13.77L4.38,13.86L4.563,13.9L4.618,13.9L4.95,13.82L5.204,13.58L5.904,12.53L5.84,12.18L5.8,11.5L5.827,10.97L5.614,10.27L6.05,9.833L6.057,9.807L6.249,9.283L6.489,8.785L6.775,8.315L7.103,7.876L7.471,7.471L7.876,7.103L8.315,6.775L8.339,6.76L8.162,6.372L4.535,9.997L5.134,11.97L4.657,12.68L3.692,10.59L3.802,10.47L1.151,9.769L1.63,9.224L4.28,9.395L7.755,5.921L1.331,3.92L2.01,3.401L9.654,3.704L9.8,3.564L11.49,2.018L12.22,1.422L12.73,1.078L12.92,0.9957L12.85,1.175L12.59,1.548L12.08,2.187L10.46,3.99L10.31,4.154L10.53,5.889L10.92,5.829L11.48,5.801L11.31,4.478L12.72,2.898L13.35,2.125L13.71,1.569L13.85,1.212L13.9,0.8943L13.87,0.6148L13.77,0.3707L13.64,0.2148L13.48,0.09902L13.29,0.02617L13.08,0zz" fill="#6D6E71"/>
    </g>
    <g id="overlay">
      <path d="M7.9,11.5c0,-1.9882,1.6118,-3.6,3.6,-3.6s3.6,1.6118,3.6,3.6s-1.6118,3.6,-3.6,3.6S7.9,13.4882,7.9,11.5zM9.3039,14.3525M13.714,14.3388" fill="#FFFFFF" opacity="0.5"/>
      <polygon points="11,11.9047 11,9 12,9 12,11.4854 13.7345,13.0891 13.14,13.7927" fill="#6485C3" stroke-linejoin="miter"/>
      <path d="M11.5,16c-2.4813,0,-4.5,-2.0187,-4.5,-4.5s2.0187,-4.5,4.5,-4.5s4.5,2.0187,4.5,4.5S13.9813,16,11.5,16zM11.5,8.0929c-1.8787,0,-3.4071,1.5284,-3.4071,3.4071S9.6213,14.9071,11.5,14.9071s3.4071,-1.5284,3.4071,-3.4071S13.3787,8.0929,11.5,8.0929z" fill="#6485C3"/>
      <path d="M11.1515,14.2643v-0.6971h0.6971v0.6971H11.1515zM9.4669,13.5672v-0.6971h0.6971v0.6971H9.4669zM13.5912,11.8826v-0.6971h0.6971v0.6971H13.5912zM8.7117,11.8826v-0.6971h0.6971v0.6971H8.7117zM12.8361,10.1399v-0.6971h0.6971v0.6971H12.8361zM9.4669,10.1399v-0.6971h0.6971v0.6971H9.4669z" fill="#6485C3"/>
    </g>
  </g>
</svg>
