<?xml version="1.0" encoding="UTF-8"?>
<!DOCTYPE svg PUBLIC "-//W3C//DTD SVG 1.1//EN" "http://www.w3.org/Graphics/SVG/1.1/DTD/svg11.dtd">
<svg version="1.1" id="Layer_1" xmlns="http://www.w3.org/2000/svg" xmlns:xlink="http://www.w3.org/1999/xlink" x="0px" y="0px" width="16px" height="16px" viewBox="0 0 16 16" enable-background="new 0 0 16 16" xml:space="preserve">
  <g id="icon">
    <path d="M15.4638,15.3164c-0.0819,-1.1166,-0.4276,-2.1222,-1.0275,-2.989c-0.7226,-1.0443,-2.0852,-2.152,-3.501,-2.7289c0,0,-0.5396,-0.5722,-0.7863,-0.7151c-0.6373,0.6818,-1.3716,1.0481,-2.1292,1.0481c-0.7619,0,-1.5004,-0.3702,-2.1401,-1.0595c-0.2405,0.1381,-0.8717,0.6599,-0.8717,0.6599C1.5973,10.9356,0.6564,13.8683,0.5461,15.316l-0.0109,0.1433h14.9391L15.4638,15.3164z" fill="#FFFFFF" opacity="0.5"/>
    <path d="M11.5143,4.2764c0,2.4229,-1.5646,5.1818,-3.4946,5.1818S4.5252,6.6993,4.5252,4.2764S6.0898,0.549,8.0198,0.549S11.5143,1.8534,11.5143,4.2764z" fill="#FFFFFF" opacity="0.5"/>
    <path d="M8.0198,10.04c-1.112,0,-2.1663,-0.6914,-2.9687,-1.9467c-0.696,-1.0889,-1.1116,-2.5057,-1.1116,-3.7899c0,-1.3038,0.4145,-2.4038,1.1988,-3.1813C5.8682,0.3985,6.8915,0,8.0198,0c1.1283,0,2.1516,0.3985,2.8814,1.1221C11.6855,1.8996,12.1,2.9996,12.1,4.3034c0,1.2842,-0.4156,2.701,-1.1116,3.7899C10.186,9.3486,9.1317,10.04,8.0198,10.04zM8.0198,1.2612c-1.7186,0,-2.8291,1.1941,-2.8291,3.0422c0,2.0145,1.3055,4.4753,2.8291,4.4753c1.5236,0,2.8291,-2.4608,2.8291,-4.4753C10.8489,2.4554,9.7384,1.2612,8.0198,1.2612z" fill="#6D6E71"/>
    <path d="M8.0365,10.6829c-0.7332,0,-0.8047,-0.1276,-0.8312,0.5315c0,0.3048,0.1213,0.4054,0.3225,0.7146c-0.0135,0.4867,-0.2197,2.6787,-0.3221,3.7788c0.2634,0.0117,0.5298,0.018,0.7991,0.018c0.2686,0,0.5343,-0.0063,0.7969,-0.0179c-0.1072,-1.0204,-0.2679,-3.3,-0.2619,-3.7778c0.2666,-0.293,0.2933,-0.4187,0.2865,-0.717C8.8529,10.5553,8.7697,10.6829,8.0365,10.6829z" fill="#CB535D"/>
    <path d="M15.9624,15.3032c-0.1188,-1.5096,-0.8632,-4.2593,-4.5143,-5.7134l-0.4879,-0.2083c-0.0774,0.1009,-0.1562,0.2015,-0.2378,0.3017c-0.2255,0.277,-0.4808,0.516,-0.7597,0.7152c0.4059,0.1217,1.3327,0.5103,1.5589,0.6311c1.9922,0.9765,2.764,2.4256,3.0238,3.6819H1.4841c0.2598,-1.2563,1.0316,-2.7054,3.0238,-3.6819c0.236,-0.1261,1.1578,-0.5319,1.5342,-0.6462c-0.2707,-0.1963,-0.5191,-0.4299,-0.7391,-0.7002c-0.0804,-0.0987,-0.1593,-0.1992,-0.237,-0.3005l-0.4845,0.2072C0.9303,11.0439,0.1859,13.7936,0.0671,15.3032l-0.0338,0.4297c-0.011,0.1399,0.1041,0.2593,0.2501,0.2593h15.4627c0.146,0,0.2611,-0.1194,0.2501,-0.2593L15.9624,15.3032z" fill="#6D6E71"/>
    <polygon points="7.2057,14.9932 6.4065,14.9932 5.2077,10.3978 6.0391,10.3825" fill="#6D6E71" stroke-linejoin="miter"/>
    <polygon points="8.8041,14.9932 9.6033,14.9932 10.8021,10.3978 9.9565,10.3947" fill="#6D6E71" stroke-linejoin="miter"/>
    <path d="M11.158,3.9982c-1.1513,-1.0681,-1.7154,-0.831,-2.3127,-0.5801c-0.2787,0.1172,-0.5669,0.2383,-0.9023,0.2383c-0.3403,0,-0.627,-0.1261,-0.9042,-0.2481c-0.6,-0.264,-1.1181,-0.492,-2.2623,0.5877l-0.5028,-0.5328c1.4975,-1.4129,2.4007,-1.0156,3.0602,-0.7254c0.2269,0.0998,0.4229,0.186,0.6092,0.186c0.1876,0,0.3873,-0.0839,0.6184,-0.1811c0.674,-0.2833,1.597,-0.6713,3.0948,0.7183L11.158,3.9982z" fill="#6D6E71"/>
  </g>
</svg>
