<?xml version="1.0" encoding="UTF-8"?>
<!DOCTYPE svg PUBLIC "-//W3C//DTD SVG 1.1//EN" "http://www.w3.org/Graphics/SVG/1.1/DTD/svg11.dtd">
<svg version="1.1" id="Layer_1" xmlns="http://www.w3.org/2000/svg" xmlns:xlink="http://www.w3.org/1999/xlink" x="0px" y="0px" width="16px" height="16px" viewBox="0 0 16 16" enable-background="new 0 0 16 16" xml:space="preserve">
  <g id="main">
    <g id="icon">
      <path d="M6.083,0.6379L5.375,0.7953L4.822,1.051L4.407,1.399L4.114,1.833L3.925,2.347L3.824,2.937L3.794,3.596L3.856,4.504L4.054,5.417L4.402,6.298L4.915,7.108L5.006,7.275L5.04,7.451L4.951,7.81L4.676,8.139L4.241,8.394L3.246,8.866L2.449,9.41L1.828,10L1.362,10.62L1.028,11.24L0.8064,11.84L0.6748,12.39L0.6119,12.88L0.5848,13.21L0.6379,13.36L0.7857,13.42L7.235,13.42L6.304,12.49L10.18,8.598L9.746,8.394L9.309,8.139L9.033,7.81L8.944,7.451L8.978,7.275L9.069,7.108L9.348,6.714L9.584,6.298L9.934,5.417L10.13,4.504L10.19,3.596L10.16,2.937L10.06,2.347L9.873,1.833L9.579,1.399L9.162,1.051L8.607,0.7953L7.896,0.6379L7.013,0.5842L6.963,0.5842zz" fill="#FFFFFF" opacity="0.5"/>
      <path d="M5.847,0.08672L5.381,0.1891L4.973,0.3271L4.619,0.4975L4.314,0.6971L3.839,1.171L3.521,1.723L3.329,2.328L3.235,2.961L3.21,3.596L3.292,4.679L3.531,5.701L3.92,6.636L4.452,7.462L4.454,7.494L4.324,7.672L4.026,7.852L2.932,8.372L2.055,8.974L1.371,9.631L0.8574,10.32L0.4902,11.01L0.2457,11.67L0.1002,12.29L0.03047,12.83L0.00332,13.17L0.04316,13.48L0.2047,13.75L0.468,13.93L0.7857,14L7.819,14L6.651,12.83L1.201,12.83L1.267,12.4L1.394,11.92L1.601,11.4L1.905,10.86L2.325,10.33L2.877,9.818L3.58,9.348L4.452,8.938L4.458,8.936L4.853,8.731L5.18,8.466L5.425,8.154L5.577,7.808L5.623,7.531L5.604,7.259L5.524,6.999L5.382,6.758L5.373,6.746L4.946,6.082L4.634,5.323L4.442,4.488L4.377,3.596L4.398,3.029L4.474,2.537L4.619,2.12L4.85,1.778L5.184,1.511L5.637,1.321L6.224,1.206L6.963,1.168L7.013,1.168L7.755,1.206L8.346,1.321L8.8,1.511L9.136,1.778L9.368,2.12L9.514,2.537L9.59,3.029L9.611,3.596L9.546,4.487L9.353,5.322L9.04,6.081L8.612,6.745L8.603,6.757L8.46,6.998L8.379,7.258L8.361,7.53L8.406,7.807L8.558,8.154L8.804,8.466L9.132,8.731L9.529,8.936L9.535,8.938L9.743,9.036L10.61,8.162L9.96,7.852L9.754,7.744L9.618,7.63L9.526,7.472L9.532,7.462L10.07,6.636L10.46,5.701L10.7,4.679L10.78,3.596L10.75,2.961L10.66,2.328L10.47,1.723L10.15,1.171L9.671,0.6971L9.365,0.4975L9.009,0.3271L8.6,0.1891L8.133,0.08672L7.013,0.0007812L6.963,0.0007812zz" fill="#7B7B7B"/>
    </g>
    <g id="overlay">
      <path d="M15.2369,8.663h-2.5248l-3.902,3.7996l2.7028,2.6801l3.8712,-3.83l-0.0463,-2.5498C15.3377,8.7078,15.2925,8.663,15.2369,8.663zM13.7675,10.8839c-0.3432,0,-0.6214,-0.283,-0.6214,-0.6321c0,-0.3491,0.2782,-0.6321,0.6214,-0.6321s0.6214,0.283,0.6214,0.6321C14.3889,10.6009,14.1107,10.8839,13.7675,10.8839z" fill="#FFFFFF" opacity="0.5"/>
      <path d="M8,12.4857L12.468,8h2.6122c0.5071,0,0.9197,0.412,0.9197,0.9185v2.6082L11.5191,16L8,12.4857zM11.5178,14.5521l3.4581,-3.4482V9.0231h-2.0834l-3.4442,3.4622L11.5178,14.5521z" fill="#6485C3"/>
      <path d="M13.7552,11.0599c-0.4509,0,-0.8177,-0.3665,-0.8177,-0.8169c0,-0.4505,0.3668,-0.8169,0.8177,-0.8169s0.8177,0.3665,0.8177,0.8169C14.5729,10.6935,14.2061,11.0599,13.7552,11.0599zM13.7552,9.8578c-0.2127,0,-0.3857,0.1728,-0.3857,0.3852s0.173,0.3852,0.3857,0.3852s0.3857,-0.1728,0.3857,-0.3852S13.9679,9.8578,13.7552,9.8578z" fill="#6485C3"/>
    </g>
  </g>
</svg>
