<?xml version="1.0" encoding="UTF-8"?>
<!DOCTYPE svg PUBLIC "-//W3C//DTD SVG 1.1//EN" "http://www.w3.org/Graphics/SVG/1.1/DTD/svg11.dtd">
<svg version="1.1" id="Layer_1" xmlns="http://www.w3.org/2000/svg" xmlns:xlink="http://www.w3.org/1999/xlink" x="0px" y="0px" width="16px" height="16px" viewBox="0 0 16 16" enable-background="new 0 0 16 16" xml:space="preserve">
  <g id="main">
    <g id="icon">
      <path d="M6.083,0.6379L5.375,0.7953L4.822,1.051L4.407,1.399L4.114,1.833L3.925,2.347L3.824,2.937L3.794,3.596L3.856,4.504L4.054,5.417L4.402,6.298L4.915,7.108L5.006,7.275L5.04,7.451L4.951,7.81L4.676,8.139L4.241,8.394L3.246,8.866L2.449,9.41L1.828,10L1.362,10.62L1.028,11.24L0.8064,11.84L0.6748,12.39L0.6119,12.88L0.5848,13.21L0.6379,13.36L0.7857,13.42L10.28,13.42L10.28,11.62L9.943,11.34L9.65,11.02L9.397,10.66L9.187,10.28L9.02,9.86L8.899,9.418L8.825,8.951L8.8,8.464L8.85,7.85L8.946,7.463L8.944,7.451L8.978,7.275L9.04,7.16L9.232,6.712L9.551,6.204L9.681,6.054L9.934,5.417L10.13,4.504L10.19,3.596L10.16,2.937L10.06,2.347L9.873,1.833L9.579,1.399L9.162,1.051L8.607,0.7953L7.896,0.6379L7.013,0.5842L6.963,0.5842zz" fill="#FFFFFF" opacity="0.5"/>
      <path d="M5.847,0.08672L5.381,0.1891L4.973,0.3271L4.619,0.4975L4.314,0.6971L3.839,1.171L3.521,1.723L3.329,2.328L3.235,2.961L3.21,3.596L3.292,4.679L3.531,5.701L3.92,6.636L4.452,7.462L4.454,7.494L4.324,7.672L4.026,7.852L2.932,8.372L2.055,8.974L1.371,9.631L0.8574,10.32L0.4902,11.01L0.2457,11.67L0.1002,12.29L0.03047,12.83L0.00332,13.17L0.04316,13.48L0.2047,13.75L0.468,13.93L0.7857,14L10.28,14L10.28,13.71L10.28,12.83L1.201,12.83L1.267,12.4L1.394,11.92L1.601,11.4L1.905,10.86L2.325,10.33L2.877,9.818L3.58,9.348L4.452,8.938L4.458,8.936L4.853,8.731L5.18,8.466L5.425,8.154L5.577,7.808L5.623,7.531L5.604,7.259L5.524,6.999L5.382,6.758L5.373,6.746L4.946,6.082L4.634,5.323L4.442,4.488L4.377,3.596L4.398,3.029L4.474,2.537L4.619,2.12L4.85,1.778L5.184,1.511L5.637,1.321L6.224,1.206L6.963,1.168L7.013,1.168L7.755,1.206L8.346,1.321L8.8,1.511L9.136,1.778L9.368,2.12L9.514,2.537L9.59,3.029L9.611,3.596L9.546,4.487L9.353,5.322L9.04,6.081L8.612,6.745L8.603,6.757L8.46,6.998L8.379,7.258L8.361,7.53L8.406,7.807L8.558,8.154L8.8,8.461L8.85,7.85L8.996,7.263L9.232,6.712L9.551,6.204L9.946,5.75L10.41,5.358L10.56,5.269L10.7,4.679L10.78,3.596L10.75,2.961L10.66,2.328L10.47,1.723L10.15,1.171L9.671,0.6971L9.365,0.4975L9.009,0.3271L8.6,0.1891L8.133,0.08672L7.013,0.0007812L6.963,0.0007812zz" fill="#6485C3"/>
    </g>
    <g id="overlay">
      <path d="M15.9,8.4642c0.0002,1.0818,-0.494,2.0447,-1.4747,2.4736l0.0004,2.7759l-0.0016,0.7606l0.0001,0.4922c0.0001,0.5336,-0.4374,0.966,-0.9771,0.966l-0.9956,-0.0001c-0.5397,-0.0001,-0.9772,-0.4327,-0.9773,-0.9662l-0.0001,-0.528l0.0016,-0.7247l-0.0004,-2.7759c-0.9807,-0.4291,-1.4752,-1.3921,-1.4753,-2.474c-0.0002,-1.1462,0.7719,-2.1614,1.894,-2.526L12.0092,5.9l0.0003,1.9495c0.0001,0.5889,0.2921,1.0957,0.8871,1.1235c0.6353,0.0297,1.0938,-0.4707,1.0937,-1.0923l-0.0003,-1.9804l0.1152,0.0375C15.2274,6.3027,15.8998,7.318,15.9,8.4642z" fill="#6D6E71"/>
    </g>
  </g>
</svg>
