<?xml version="1.0" encoding="UTF-8"?>
<!DOCTYPE svg PUBLIC "-//W3C//DTD SVG 1.1//EN" "http://www.w3.org/Graphics/SVG/1.1/DTD/svg11.dtd">
<svg version="1.1" id="Layer_1" xmlns="http://www.w3.org/2000/svg" xmlns:xlink="http://www.w3.org/1999/xlink" x="0px" y="0px" width="16px" height="16px" viewBox="0 0 16 16" enable-background="new 0 0 16 16" xml:space="preserve">
  <g id="main">
    <g id="icon">
      <path d="M1.136,0.5785L0.818,0.793L0.6035,1.111L0.525,1.5L0.5,12L0.5305,12.3L0.618,12.58L0.7562,12.84L0.9393,13.06L1.161,13.24L1.416,13.38L1.698,13.47L2,13.5L7.233,13.5L7.789,12.19L5.55,12.19L9.281,4.8L12.5,4.8L12.5,2.5L12.01,2.207L11.68,1.889L11.57,1.702L11.52,1.5L11.55,1.111L11.66,0.793L11.77,0.6707L11.92,0.5785L12.38,0.5L1.525,0.5zz" fill="#FFFFFF" opacity="0.4"/>
      <path d="M1.009,0.09141L0.5707,0.3436L0.2418,0.724L0.05527,1.2L0,1.2L0,12L0.04062,12.4L0.1574,12.78L0.342,13.12L0.5865,13.41L0.8826,13.66L1.222,13.84L1.597,13.96L2,14L7.021,14L7.445,13L2,13L1.611,12.92L1.293,12.71L1.079,12.39L1,12L1,2.903L1.254,2.975L1.525,3L12,3L12,4.8L13,4.8L13,2L12.78,2L12.52,1.952L12.28,1.831L12.1,1.669L12.02,1.5L12.1,1.337L12.29,1.175L12.59,1.05L12.98,1L12.98,0L1.525,0zM11.14,1L11.05,1.243L11.02,1.5L11.05,1.758L11.14,2L1.525,2L1.33,1.961L1.172,1.853L1.064,1.695L1.025,1.5L1.064,1.305L1.172,1.147L1.33,1.039L1.525,1zz" fill="#6D6E71"/>
      <path d="M3,9L7.16,9L9.18,5L3,5zz" fill="#6485C3"/>
    </g>
    <g id="overlay">
      <path d="M13.084,9.7408h2.4894L7.702,15.9776c-0.0862,0.0665,-0.2029,-0.0262,-0.1614,-0.128l2.0595,-4.8618H7.5002L10.0192,6h5.9695L13.084,9.7408z" fill="#EEAC55"/>
    </g>
  </g>
</svg>
