<?xml version="1.0" encoding="UTF-8"?>
<!DOCTYPE svg PUBLIC "-//W3C//DTD SVG 1.1//EN" "http://www.w3.org/Graphics/SVG/1.1/DTD/svg11.dtd">
<svg version="1.1" id="Layer_1" xmlns="http://www.w3.org/2000/svg" xmlns:xlink="http://www.w3.org/1999/xlink" x="0px" y="0px" width="24px" height="24px" viewBox="0 0 24 24" enable-background="new 0 0 24 24" xml:space="preserve">
  <g id="main">
    <g id="icon">
      <path d="M5,10.51L5.12,10.28L5.377,9.917L5.665,9.606L6.31,9.124L7.004,8.804L7.697,8.614L8.339,8.523L8.88,8.5L8.915,8.5L9.481,8.525L10.15,8.625L10.88,8.834L11.6,9.189L11.94,9.431L12.26,9.723L12.54,10.07L12.79,10.47L13,10.94L13.16,11.48L13.26,12.08L13.29,12.76L13.22,13.77L12.99,14.73L13.68,15.26L14.22,15.83L14.64,16.42L14.96,17.01L15.19,17.57L15.34,18.1L15.47,18.94L15.49,19.17L15.48,19.65L15.4,20L21,20L21,2L5,2zz" fill="#FFFFFF" opacity="0.5"/>
      <path d="M3,12.7L3.308,12.58L3.939,12.42L4.524,12.34L4.595,11.72L4.722,11.18L4.899,10.7L5,10.51L5,2L21,2L21,20L15.4,20L15.37,20.12L15.17,20.55L14.88,20.93L14.52,21.25L14.1,21.49L13.64,21.64L13.16,21.69L11.47,21.69L11.54,22L23,22L23,0L3,0zz" fill="#7B7B7B"/>
      <path d="M7,5L14,5L14,4L7,4zM7,7L14,7L14,6L7,6zM7,8.806L7.004,8.804L7.697,8.614L8.339,8.523L8.88,8.5L8.915,8.5L9.481,8.525L10.15,8.625L10.88,8.834L11.22,9L14,9L14,8L7,8zM12.54,10.07L12.79,10.47L13,10.94L13.02,11L14,11L14,10L12.49,10zM13.26,12.08L13.29,12.76L13.28,13L14,13L14,12L13.25,12zM12.99,14.73L13.34,15L14,15L14,14L13.16,14zz" fill="#6D6E71"/>
      <path d="M16,7L19,7L19,6L16,6zM16,9L19,9L19,8L16,8zM16,13L19,13L19,12L16,12zM16,15L19,15L19,14L16,14zz" fill="#CB535D"/>
      <path d="M16,5L19,5L19,4L16,4zM16,11L19,11L19,10L16,10zM16,17L19,17L19,16L16,16zz" fill="#CB535D"/>
    </g>
    <g id="overlay">
      <path d="M9.3483,23.2987c0.0806,0,0.1442,-0.0641,0.1382,-0.1393l-0.0187,-0.2308c-0.0656,-0.8108,-0.4769,-2.2876,-2.4941,-3.0686c-0.4636,-0.1854,-0.6841,-0.588,-0.4636,-0.8809c0.5513,-0.6955,0.7708,-1.589,0.7708,-2.4041c0,-1.2623,-0.3986,-2.0619,-2.1781,-2.0619h-0.0346c-1.7725,0,-2.1696,0.7996,-2.1696,2.0619c0,0.8151,0.2187,1.7086,0.7678,2.4041c0.2196,0.2929,0,0.6955,-0.4618,0.8809c-2.0093,0.781,-2.419,2.2578,-2.4844,3.0686l-0.0186,0.2308c-0.0061,0.0752,0.0573,0.1393,0.1376,0.1393H9.3483z" fill="#FFFFFF" opacity="0.5"/>
      <path d="M0.8393,24c-0.2353,0,-0.4612,-0.0986,-0.6198,-0.2706c-0.1562,-0.1692,-0.2352,-0.3975,-0.2169,-0.6263l0.0186,-0.2308c0.0785,-0.9739,0.5632,-2.7451,2.927,-3.665c0.0042,-0.0017,0.0083,-0.0034,0.0122,-0.0051c-0.4933,-0.7215,-0.7631,-1.6463,-0.7631,-2.6272c0,-0.6834,0,-2.7632,2.8709,-2.7632h0.0346c2.8794,0,2.8794,2.0798,2.8794,2.7632c0,0.9789,-0.2706,1.9035,-0.7654,2.6266c0.0052,0.0023,0.0105,0.0046,0.0161,0.0068c2.3689,0.9183,2.8551,2.6897,2.934,3.6637l0.0187,0.2308c0.0185,0.2286,-0.0605,0.4569,-0.2167,0.6263C9.8101,23.9013,9.584,24,9.3484,24H0.8393zM8.7089,22.5974c-0.1604,-0.702,-0.6477,-1.5644,-1.9884,-2.0834c-0.4818,-0.1926,-0.838,-0.5568,-0.9549,-0.9749c-0.0969,-0.3467,-0.0315,-0.6954,0.1842,-0.9819l0.0082,-0.0108c0.4013,-0.5064,0.6215,-1.2058,0.6215,-1.9715c0,-0.946,-0.1397,-1.3606,-1.4768,-1.3606h-0.0346c-1.3294,0,-1.4683,0.4146,-1.4683,1.3606c0,0.7661,0.2191,1.4656,0.6169,1.9696l0.0082,0.0107c0.2169,0.2892,0.2822,0.6382,0.1854,0.9847c-0.1169,0.4175,-0.47,0.7804,-0.9446,0.9708c-1.3415,0.5215,-1.8273,1.3844,-1.987,2.0866H8.7089z" fill="#6485C3"/>
      <path d="M13.2797,19.1168c-0.0656,-0.8108,-0.4769,-2.2876,-2.4941,-3.0686c-0.4636,-0.1854,-0.6841,-0.588,-0.4636,-0.8809c0.5513,-0.6955,0.7708,-1.589,0.7708,-2.4041c0,-1.2623,-0.3986,-2.0619,-2.1781,-2.0619h-0.0346c-1.7725,0,-2.1696,0.7996,-2.1696,2.0619c0,0.0857,0.003,0.1724,0.008,0.2594c0.7076,0.1579,1.2487,0.4878,1.6149,0.9865c0.4899,0.6671,0.5466,1.4746,0.5466,2.024c0,0.8919,-0.2111,1.7442,-0.6023,2.4598c0.6177,0.2841,1.1003,0.6263,1.4777,0.9939h3.4049c0.0806,0,0.1442,-0.0641,0.1382,-0.1393L13.2797,19.1168z" fill="#FFFFFF" opacity="0.5"/>
      <path d="M10.1111,20.1882l-0.0567,-0.0758c-0.2773,-0.3702,-0.6248,-0.7006,-1.0329,-0.9818l-0.5006,-0.345h3.9998c-0.1603,-0.702,-0.6476,-1.5644,-1.9883,-2.0834c-0.4818,-0.1926,-0.838,-0.5568,-0.9549,-0.9749c-0.0969,-0.3467,-0.0315,-0.6955,0.1842,-0.9819l0.0082,-0.0107c0.4013,-0.5064,0.6215,-1.2058,0.6215,-1.9715c0,-0.946,-0.1397,-1.3606,-1.4768,-1.3606H8.88c-1.3294,0,-1.4683,0.4146,-1.4683,1.3606c0,0.1325,0.0071,0.2675,0.021,0.4015l0.0324,0.3121l-0.2911,-0.117c-0.2869,-0.1153,-0.6204,-0.1926,-0.9912,-0.2296l-0.1645,-0.0164l-0.0058,-0.1652c-0.0022,-0.0615,-0.0034,-0.1233,-0.0034,-0.1853c0,-0.6834,0,-2.7632,2.8709,-2.7632h0.0346c2.8794,0,2.8794,2.0798,2.8794,2.7632c0,0.979,-0.2707,1.9035,-0.7654,2.6266c0.0052,0.0023,0.0105,0.0045,0.0161,0.0068c2.3689,0.9183,2.8551,2.6897,2.934,3.6637l0.0187,0.2308c0.0185,0.2286,-0.0605,0.4569,-0.2167,0.6263c-0.1587,0.1721,-0.3848,0.2708,-0.6205,0.2708H10.1111z" fill="#6485C3"/>
    </g>
  </g>
</svg>
