<?xml version="1.0" encoding="UTF-8"?>
<!DOCTYPE svg PUBLIC "-//W3C//DTD SVG 1.1//EN" "http://www.w3.org/Graphics/SVG/1.1/DTD/svg11.dtd">
<svg version="1.1" id="Layer_1" xmlns="http://www.w3.org/2000/svg" xmlns:xlink="http://www.w3.org/1999/xlink" x="0px" y="0px" width="24px" height="24px" viewBox="0 0 24 24" enable-background="new 0 0 24 24" xml:space="preserve">
  <g id="main">
    <g id="icon">
      <path d="M5,8.847L5.224,8.778L6.105,8.638L6.914,8.6L6.962,8.6L7.773,8.638L8.657,8.778L9.557,9.056L9.996,9.259L10.42,9.51L10.82,9.815L11.19,10.18L11.52,10.6L11.8,11.1L12.04,11.66L12.21,12.3L12.32,13.03L12.36,13.84L12.33,14.61L12.22,15.37L12.05,16.11L11.82,16.81L12.8,17.5L13.58,18.25L14.19,19.03L14.65,19.81L14.73,20L21,20L21,2L5,2zz" fill="#FFFFFF" opacity="0.5"/>
      <path d="M3,9.882L3.068,9.815L3.466,9.51L3.887,9.259L4.325,9.056L5,8.847L5,2L21,2L21,20L14.73,20L14.97,20.57L15.18,21.27L15.31,21.89L15.32,22L23,22L23,0L3,0zz" fill="#7B7B7B"/>
      <path d="M7,5L14,5L14,4L7,4zM7,7L14,7L14,6L7,6zM7,8.602L7.773,8.638L8.657,8.778L9.377,9L14,9L14,8L7,8zM11.19,10.18L11.52,10.6L11.75,11L14,11L14,10L11,10zM12.21,12.3L12.32,13L14,13L14,12L12.13,12zM12.33,14.61L12.27,15L14,15L14,14L12.35,14zM12.05,16.11L11.82,16.81L12.09,17L14,17L14,16L12.08,16zz" fill="#6D6E71"/>
      <path d="M16,7L19,7L19,6L16,6zM16,9L19,9L19,8L16,8zM16,13L19,13L19,12L16,12zM16,15L19,15L19,14L16,14zz" fill="#CB535D"/>
      <path d="M16,5L19,5L19,4L16,4zM16,11L19,11L19,10L16,10zM16,17L19,17L19,16L16,16zz" fill="#CB535D"/>
    </g>
    <g id="overlay">
      <path d="M12.8586,23.1459c0.111,0,0.1986,-0.089,0.1903,-0.1933l-0.0257,-0.3202c-0.0904,-1.1251,-0.6567,-3.1743,-3.4346,-4.2581c-0.6384,-0.2572,-0.9421,-0.8159,-0.6384,-1.2223c0.7591,-0.9651,1.0614,-2.2049,1.0614,-3.336c0,-1.7516,-0.549,-2.8611,-2.9994,-2.8611h-0.0476c-2.4409,0,-2.9877,1.1095,-2.9877,2.8611c0,1.131,0.3011,2.3708,1.0573,3.336c0.3025,0.4064,0,0.9651,-0.6359,1.2223c-2.767,1.0837,-3.3312,3.133,-3.4212,4.2581l-0.0256,0.3202c-0.0083,0.1043,0.0789,0.1933,0.1895,0.1933H12.8586z" fill="#FFFFFF" opacity="0.5"/>
      <path d="M1.0901,24c-0.3062,0,-0.6,-0.1281,-0.8061,-0.3516c-0.2021,-0.2191,-0.3044,-0.5143,-0.2806,-0.8099l0.0256,-0.3179c0.1068,-1.3257,0.7671,-3.737,3.9886,-4.9912c0.0366,-0.0148,0.0675,-0.0304,0.0932,-0.0454c-0.7,-0.9933,-1.0845,-2.2834,-1.0845,-3.6454c0,-1.6049,0.4031,-3.7385,3.8881,-3.7385h0.0476c3.4956,0,3.8998,2.1336,3.8998,3.7385c0,1.3617,-0.3855,2.6513,-1.0874,3.6445c0.0268,0.0157,0.0591,0.0321,0.0976,0.0476c3.2294,1.2523,3.8917,3.6637,3.9989,4.9896l0.0257,0.318c0.0239,0.2955,-0.0783,0.5907,-0.2804,0.8098c-0.2063,0.2236,-0.5004,0.3519,-0.807,0.3519H1.0901zM12.0106,22.2046c-0.2023,-0.9789,-0.8596,-2.2526,-2.7976,-3.0032c-0.6434,-0.2573,-1.1196,-0.7424,-1.2749,-1.298c-0.1274,-0.456,-0.0413,-0.9147,0.2423,-1.2915l0.0111,-0.0144c0.5614,-0.7087,0.8702,-1.6882,0.8702,-2.759c0,-1.434,-0.3172,-1.9431,-2.0997,-1.9431h-0.0476c-1.7726,0,-2.088,0.5091,-2.088,1.9431c0,1.0715,0.3071,2.0506,0.8646,2.7571l0.0116,0.0151c0.2841,0.3788,0.37,0.8381,0.2426,1.2938c-0.1551,0.5546,-0.6266,1.0379,-1.2613,1.2928c-1.9374,0.7534,-2.5934,2.028,-2.7948,3.0072H12.0106z" fill="#6485C3"/>
    </g>
  </g>
</svg>
