<?xml version="1.0" encoding="UTF-8"?>
<!DOCTYPE svg PUBLIC "-//W3C//DTD SVG 1.1//EN" "http://www.w3.org/Graphics/SVG/1.1/DTD/svg11.dtd">
<svg version="1.1" id="Layer_1" xmlns="http://www.w3.org/2000/svg" xmlns:xlink="http://www.w3.org/1999/xlink" x="0px" y="0px" width="16px" height="16px" viewBox="0 0 16 16" enable-background="new 0 0 16 16" xml:space="preserve">
  <g id="main">
    <g id="icon">
      <path d="M6.374,1.535L6.154,1.65L6.005,1.819L5.95,2.019L5.95,4.784L5.871,4.566L5.651,4.492L2.172,4.492L1.916,4.542L1.667,4.705L1.432,4.946L1.284,5.257L0.9895,6.653L0.6152,8.128L0.55,8.577L0.55,11.16L0.5834,11.29L0.6707,11.4L0.932,11.49L1.85,11.49L1.924,11.49L1.883,11.86L1.917,12.19L2.013,12.51L2.166,12.79L2.368,13.04L2.613,13.24L2.895,13.39L3.206,13.49L3.54,13.52L3.873,13.49L4.184,13.39L4.466,13.24L4.711,13.04L4.913,12.79L5.066,12.51L5.162,12.19L5.196,11.86L5.155,11.49L5.583,11.49L5.7,11.49L5.809,11.46L5.888,11.38L5.95,11.16L5.95,11.39L8.013,11.46L8.371,11.1L7.128,11.1L7.128,7.703L11.18,7.703L11.11,7.639L13.45,5.301L13.45,2.119L13.4,1.861L13.27,1.663L13.06,1.536L12.8,1.492L6.641,1.492zz" fill="#FFFFFF" opacity="0.5"/>
      <path d="M6.445,1.026L6.219,1.101L5.841,1.373L5.591,1.764L5.5,2.227L5.5,4L3.1,4L3.1,5L5.5,5L5.5,10.97L5.197,10.47L4.739,10.05L4.177,9.782L3.54,9.686L2.902,9.782L2.34,10.05L1.883,10.47L1.558,11L1,11L1,9L0,9L0,11.17L0.07988,11.51L0.2881,11.77L0.5783,11.94L0.9035,12L1.389,12L1.456,12.41L1.596,12.79L1.801,13.14L2.064,13.44L2.377,13.68L2.733,13.87L3.123,13.98L3.54,14.02L3.956,13.98L4.346,13.87L4.702,13.68L5.015,13.44L5.278,13.14L5.484,12.79L5.624,12.41L5.691,12L7.474,12L8.371,11.1L7.128,11.1L7.128,11L6.5,11L6.5,2.127L6.561,2.068L6.691,2L12.85,2L12.98,2.039L13,2.127L13,5.751L13.52,5.235L14,5.719L14,2.127L13.91,1.68L13.67,1.323L13.31,1.086L12.85,1L6.691,1zM3.989,10.78L4.357,11.03L4.605,11.4L4.696,11.86L4.605,12.31L4.357,12.68L3.989,12.93L3.54,13.02L3.09,12.93L2.722,12.68L2.474,12.31L2.383,11.86L2.474,11.4L2.722,11.03L3.09,10.78L3.54,10.69zz" fill="#6D6E71"/>
      <path d="M1.792,4.082L1.359,4.312L1.018,4.666L0.8031,5.119L-0,8.922L0,9L4,9L4,4L2.287,4zM3,5L3,8L1.216,8L1.769,5.38L1.846,5.226L1.966,5.106L2.116,5.028L2.287,5zz" fill="#6485C3"/>
      <path d="M7,7L11.75,7L12,6.751L12,3L7,3zM11,4L11,6L8,6L8,4zz" fill="#6485C3"/>
    </g>
    <g id="overlay">
      <polygon points="12.8089,11.1929 14.0989,9.9029 8.3275,9.9029 8.3275,8.9029 14.0726,8.9029 12.8089,7.6392 13.516,6.932 16,9.416 13.516,11.9" fill="#6485C3" stroke-linejoin="miter"/>
      <polygon points="11.0462,15.2929 9.6562,13.9029 15.4275,13.9029 15.4275,12.9029 9.6825,12.9029 11.0462,11.5392 10.3391,10.832 7.7551,13.416 10.3391,16" fill="#CB535D" stroke-linejoin="miter"/>
    </g>
  </g>
</svg>
