<?xml version="1.0" encoding="UTF-8"?>
<!DOCTYPE svg PUBLIC "-//W3C//DTD SVG 1.1//EN" "http://www.w3.org/Graphics/SVG/1.1/DTD/svg11.dtd">
<svg version="1.1" id="Layer_1" xmlns="http://www.w3.org/2000/svg" xmlns:xlink="http://www.w3.org/1999/xlink" x="0px" y="0px" width="16px" height="16px" viewBox="0 0 16 16" enable-background="new 0 0 16 16" xml:space="preserve">
  <g id="icon">
    <path d="M14.8015,2.4917H7.1413c-0.3772,0,-0.6913,0.2476,-0.6913,0.5273v2.7645c0,-0.1907,-0.112,-0.2918,-0.2995,-0.2918H2.1724c-0.1551,0,-0.3592,0.0619,-0.5055,0.213c-0.1805,0.1335,-0.3181,0.3246,-0.383,0.5519L0.9894,7.653C0.849,8.159,0.7129,8.6878,0.6152,9.1277C0.5938,9.2243,0.55,9.4222,0.55,9.5772c0,1.199,0,2.5802,0,2.5802c0,0.1907,0.1945,0.3343,0.382,0.3343h0.918h0.0739c-0.0259,0.1172,-0.0406,0.2386,-0.0406,0.3637c0,0.9221,0.7416,1.6696,1.6563,1.6696c0.9148,0,1.6563,-0.7475,1.6563,-1.6696c0,-0.1251,-0.0147,-0.2465,-0.0406,-0.3637h0.428H6.2c0.1667,0,0.25,-0.1919,0.25,-0.3343v0.2343l4.2757,0.093c-0.0269,0.1194,-0.0424,0.2432,-0.0424,0.3708c0,0.9221,0.7416,1.6696,1.6563,1.6696c0.9148,0,1.6563,-0.7475,1.6563,-1.6696c0,-0.1251,-0.0147,-0.2465,-0.0406,-0.3637H14.4h1.05V3.119C15.45,2.7393,15.1786,2.4917,14.8015,2.4917z" fill="#FFFFFF" opacity="0.5"/>
    <path d="M16,3.1273C16,2.4846,15.5063,2,14.8515,2H7.1914C6.5122,2,6,2.5846,6,3.2273V5H3.1v1h2.9v6h-0.479c-0.3305,-0.7722,-1.0941,-1.3143,-1.9813,-1.3143S1.8889,11.2278,1.5583,12H1v-2H0v2.1658C0,12.6648,0.4672,13,0.9035,13h0.4851c0.0743,1.1291,1.0104,2.025,2.151,2.025s2.0767,-0.8959,2.151,-2.025h4.4981c0.0743,1.1291,1.0104,2.025,2.151,2.025s2.0767,-0.8959,2.151,-2.025H16V3.1273zM3.5396,14.025c-0.6376,0,-1.1563,-0.5247,-1.1563,-1.1696s0.5187,-1.1696,1.1563,-1.1696s1.1563,0.5247,1.1563,1.1696S4.1772,14.025,3.5396,14.025zM12.3396,14.025c-0.5891,0,-1.0757,-0.4482,-1.1465,-1.025H11.3v-0.6532c0.1875,-0.3905,0.5824,-0.661,1.0396,-0.661c0.6376,0,1.1563,0.5247,1.1563,1.1696S12.9772,14.025,12.3396,14.025zM15,12h-0.679c-0.3305,-0.7722,-1.0941,-1.3143,-1.9813,-1.3143s-1.6508,0.5421,-1.9813,1.3143H7V3.1273C7,3.1398,7.0992,3,7.1914,3h7.6601c0.1371,0,0.1485,0.0629,0.1485,0.1273V12z" fill="#6D6E71"/>
    <path d="M4,10H-0.0164l0.8195,-3.8807C0.9913,5.4603,1.6015,5,2.2869,5H4V10zM1.2164,9H3V6h-0.7131c-0.2363,0,-0.4473,0.1555,-0.5181,0.3798L1.2164,9z" fill="#6485C3"/>
    <path d="M14,8H8V4h6V8zM9,7h4V5H9V7z" fill="#6485C3"/>
  </g>
</svg>
