<?xml version="1.0" encoding="UTF-8"?>
<!DOCTYPE svg PUBLIC "-//W3C//DTD SVG 1.1//EN" "http://www.w3.org/Graphics/SVG/1.1/DTD/svg11.dtd">
<svg version="1.1" id="Layer_1" xmlns="http://www.w3.org/2000/svg" xmlns:xlink="http://www.w3.org/1999/xlink" x="0px" y="0px" width="16px" height="16px" viewBox="0 0 16 16" enable-background="new 0 0 16 16" xml:space="preserve">
  <g id="main">
    <g id="icon">
      <path d="M4.111,8.054L3.472,8.345L2.844,8.695L2.244,9.092L1.692,9.525L1.186,10L0.7182,10.57L0.3744,11.2L0.276,11.53L0.2408,11.87L0.2723,12.22L0.3662,12.53L0.5223,12.81L0.7398,13.05L1.035,13.27L1.384,13.43L2.215,13.65L3.17,13.75L4.189,13.78L5.542,13.76L7.004,13.74L7.8,13.74L7.8,8.036zz" fill="#FFFFFF" opacity="0.5"/>
      <path d="M3.349,8.156L2.711,8.513L2.1,8.917L1.537,9.358L1.004,9.863L0.5109,10.47L0.1488,11.14L0.04512,11.5L0.008008,11.87L0.04414,12.27L0.152,12.62L0.3309,12.94L0.5809,13.22L0.8834,13.44L1.236,13.62L2.074,13.86L3.068,13.97L4.189,14L5.547,13.98L7.004,13.96L7.8,13.97L7.8,12.98L7.004,12.97L5.523,12.99L4.215,13.01L3.002,12.97L2.002,12.82L1.619,12.69L1.333,12.51L1.169,12.29L1.108,12.11L1.084,11.87L1.169,11.45L1.407,11.01L1.773,10.55L2.241,10.11L2.787,9.678L3.385,9.288L4.01,8.951L4.637,8.681L4.496,8.52L3.996,7.858zz" fill="#6D6E71"/>
      <path d="M6.392,0.8758L5.875,0.9709L5.424,1.129L5.038,1.351L4.716,1.638L4.458,1.988L4.264,2.404L4.132,2.886L4.061,3.477L4.086,4.015L4.162,4.549L4.289,5.077L4.468,5.601L4.981,6.641L5.705,7.676L5.975,7.949L6.287,8.15L6.632,8.275L7.004,8.321L7.018,8.321L7.388,8.275L7.734,8.15L7.8,8.108L7.8,6.8L8.929,6.8L9.04,6.641L9.554,5.601L9.732,5.077L9.859,4.549L9.935,4.016L9.961,3.477L9.889,2.886L9.758,2.404L9.564,1.988L9.306,1.638L8.984,1.351L8.598,1.129L8.147,0.9709L7.629,0.8758L7.046,0.8436L6.976,0.8436zz" fill-rule="evenodd" fill="#FFFFFF" opacity="0.5"/>
      <path d="M6.338,0.03984L5.754,0.133L5.226,0.2865L4.754,0.5L4.34,0.7725L3.983,1.103L3.686,1.492L3.448,1.937L3.924,2.156L4.296,2.533L4.454,2.162L4.661,1.84L4.919,1.569L5.227,1.348L5.586,1.176L5.997,1.053L6.46,0.9795L6.976,0.9545L7.046,0.9545L7.559,0.9793L8.021,1.052L8.431,1.174L8.789,1.345L9.097,1.564L9.355,1.833L9.563,2.152L9.721,2.52L10.1,2.149L10.57,1.934L10.33,1.489L10.04,1.101L9.68,0.7711L9.266,0.4992L8.794,0.2861L8.266,0.1328L7.684,0.03984L7.046,0.008008L6.975,0.008008zM9.171,6.241L9.192,6.514L9.164,6.8L9.875,6.8L9.637,6.531L9.383,6.069L9.336,5.931L9.336,5.915zM4.948,8.152L5.37,8.57L5.86,8.877L6.407,9.068L6.997,9.136L7.002,9.136L7.023,9.136L7.614,9.067L7.8,9.003L7.8,8.259L7.522,8.334L7.019,8.376L6.43,8.317L5.932,8.154L5.526,7.904L5.213,7.587L4.519,7.587zz" fill="#6D6E71"/>
      <path d="M3.503,5.741L3.417,5.909L3.28,6.049L3.092,6.149L2.851,6.197L3.106,6.527L3.435,6.781L3.822,6.946L4.254,7.004L5.779,7.004L5.779,6.129L4.254,6.129L3.962,6.07L3.723,5.908L3.562,5.669L3.503,5.377zz" fill="#6D6E71"/>
      <path d="M2.477,3.081L2.041,3.195L2.019,3.207L1.824,3.362L1.752,3.562L1.752,5.653L1.854,5.847L2.11,6.023L2.442,6.153L2.773,6.203L3.046,6.166L3.257,6.067L3.409,5.921L3.503,5.741L3.503,3.474L3.344,3.147L3.192,3.048L2.946,3.012zM10.82,3.049L10.66,3.147L10.51,3.474L10.51,5.741L10.6,5.921L10.75,6.067L10.96,6.166L11.23,6.203L11.57,6.153L11.9,6.024L12.15,5.847L12.26,5.653L12.26,3.562L12.18,3.362L11.99,3.207L11.97,3.195L11.53,3.081L11.06,3.012zM6.575,5.846L6.251,6.002L6.051,6.232L5.983,6.514L6.051,6.796L6.251,7.026L6.575,7.181L7.019,7.238L7.462,7.181L7.787,7.026L7.8,7.011L7.8,6.8L7.983,6.8L7.987,6.796L8.054,6.514L7.987,6.232L7.787,6.002L7.462,5.846L7.019,5.789zz" fill="#6485C3"/>
      <path d="M2.389,2.653L1.852,2.801L1.816,2.819L1.605,2.962L1.447,3.139L1.348,3.342L1.314,3.562L1.314,5.653L1.356,5.879L1.472,6.077L1.645,6.246L1.858,6.386L2.337,6.576L2.773,6.64L3.162,6.588L3.491,6.439L3.747,6.201L3.916,5.883L3.94,5.814L3.94,3.401L3.911,3.316L3.823,3.091L3.662,2.848L3.385,2.654L2.946,2.574zM10.62,2.654L10.35,2.848L10.18,3.091L10.1,3.317L10.07,3.401L10.07,5.814L10.09,5.883L10.26,6.201L10.52,6.439L10.85,6.588L11.23,6.64L11.67,6.576L12.15,6.386L12.36,6.246L12.54,6.077L12.65,5.879L12.69,5.653L12.69,3.562L12.66,3.342L12.56,3.139L12.4,2.962L12.19,2.819L12.16,2.801L11.62,2.653L11.06,2.575zM3.029,3.456L3.065,3.547L3.065,5.65L2.976,5.727L2.773,5.765L2.445,5.693L2.189,5.56L2.189,3.614L2.22,3.596L2.228,3.591L2.946,3.45zM11.78,3.591L11.79,3.595L11.82,3.614L11.82,5.56L11.56,5.693L11.23,5.765L11.03,5.727L10.94,5.65L10.94,3.547L10.98,3.456L11.06,3.45zM6.665,5.379L6.362,5.455L6.108,5.572L5.903,5.723L5.745,5.9L5.633,6.096L5.546,6.514L5.633,6.931L5.745,7.127L5.903,7.304L6.108,7.455L6.362,7.573L6.665,7.649L7.019,7.676L7.373,7.649L7.676,7.573L7.8,7.515L7.8,6.8L8.432,6.8L8.492,6.514L8.404,6.096L8.293,5.9L8.135,5.723L7.93,5.572L7.676,5.455L7.373,5.379L7.019,5.352zM7.45,6.307L7.573,6.398L7.617,6.514L7.573,6.63L7.45,6.72L7.019,6.8L6.588,6.72L6.465,6.63L6.421,6.514L6.465,6.398L6.588,6.307L7.019,6.227zz" fill="#6485C3"/>
    </g>
    <g id="overlay">
      <path d="M9.5,8.5v7h6V8.5H9.5zM14,13h-3v-1h3V13zM14,11h-3v-1h3V11z" fill="#EEAC55" opacity="0.2"/>
      <path d="M16,16H9V8h7V16zM10,15h5V9h-5V15z" fill="#EEAC55"/>
      <path d="M14,11h-3v-1h3V11zM14,12h-3v1h3V12z" fill="#7B7B7B"/>
    </g>
  </g>
</svg>
