<?xml version="1.0" encoding="UTF-8"?>
<!DOCTYPE svg PUBLIC "-//W3C//DTD SVG 1.1//EN" "http://www.w3.org/Graphics/SVG/1.1/DTD/svg11.dtd">
<svg version="1.1" id="Layer_1" xmlns="http://www.w3.org/2000/svg" xmlns:xlink="http://www.w3.org/1999/xlink" x="0px" y="0px" width="16px" height="16px" viewBox="0 0 16 16" enable-background="new 0 0 16 16" xml:space="preserve">
  <g id="main">
    <g id="icon">
      <path d="M6.336,0.5361L5.69,0.6346L5.068,0.7945L4.471,1.013L3.903,1.287L3.367,1.612L2.867,1.986L2.406,2.406L1.986,2.867L1.612,3.367L1.287,3.903L1.013,4.471L0.7945,5.068L0.6346,5.69L0.5361,6.336L0.5025,7L0.5361,7.664L0.6346,8.31L0.7945,8.932L1.013,9.529L1.287,10.1L1.612,10.63L1.986,11.13L2.406,11.59L2.867,12.01L3.367,12.39L3.903,12.71L4.471,12.99L5.068,13.21L5.69,13.37L6.336,13.46L7,13.5L7.3,13.48L6.304,12.49L11.97,6.8L13.49,6.8L13.46,6.336L13.37,5.69L13.21,5.068L12.99,4.471L12.71,3.903L12.39,3.367L12.01,2.867L11.59,2.406L11.13,1.986L10.63,1.612L10.1,1.287L9.529,1.013L8.932,0.7945L8.31,0.6346L7.664,0.5361L7,0.5025zz" fill="#FFFFFF" opacity="0.5"/>
      <path d="M6.285,0.03613L5.591,0.1424L4.921,0.3152L4.278,0.551L3.666,0.8461L3.089,1.197L2.55,1.6L2.053,2.053L1.6,2.55L1.197,3.089L0.8461,3.666L0.551,4.278L0.3152,4.921L0.1424,5.591L0.03613,6.285L0,7L0.03613,7.715L0.1424,8.409L0.3152,9.079L0.551,9.722L0.8461,10.33L1.197,10.91L1.6,11.45L2.053,11.95L2.55,12.4L3.089,12.8L3.666,13.15L4.278,13.45L4.921,13.68L5.591,13.86L6.285,13.96L7,14L7.715,13.96L7.773,13.95L6.802,12.98L6.388,12.96L5.793,12.87L5.219,12.72L4.669,12.52L4.145,12.27L3.65,11.97L3.189,11.62L2.763,11.24L2.376,10.81L2.03,10.35L1.73,9.855L1.477,9.331L1.275,8.781L1.127,8.207L1.036,7.612L1.005,7L1.036,6.388L1.127,5.793L1.275,5.219L1.477,4.669L1.73,4.145L2.03,3.651L2.376,3.189L2.763,2.763L3.189,2.376L3.65,2.03L4.145,1.73L4.669,1.477L5.219,1.275L5.793,1.127L6.388,1.036L7,1.005L7.612,1.036L8.207,1.127L8.781,1.275L9.331,1.477L9.855,1.73L10.35,2.03L10.81,2.376L11.24,2.763L11.62,3.189L11.97,3.651L12.27,4.145L12.52,4.669L12.72,5.219L12.87,5.793L12.96,6.388L12.98,6.8L13.99,6.8L13.96,6.285L13.86,5.591L13.68,4.921L13.45,4.278L13.15,3.666L12.8,3.089L12.4,2.55L11.95,2.053L11.45,1.6L10.91,1.197L10.33,0.8461L9.722,0.551L9.079,0.3152L8.409,0.1424L7.715,0.03613L7,0zz" fill="#6E6F72"/>
      <path d="M6.134,7.505L8.858,9.924L9.47,9.309L7,7.116L7,1.802L6.134,1.802zz" fill="#6486C4"/>
    </g>
    <g id="overlay">
      <path d="M15.2369,8.663h-2.5248l-3.902,3.7996l2.7028,2.6801l3.8712,-3.83l-0.0463,-2.5498C15.3377,8.7078,15.2925,8.663,15.2369,8.663zM13.7675,10.8839c-0.3432,0,-0.6214,-0.283,-0.6214,-0.6321c0,-0.3491,0.2782,-0.6321,0.6214,-0.6321s0.6214,0.283,0.6214,0.6321C14.3889,10.6009,14.1107,10.8839,13.7675,10.8839z" fill="#FFFFFF" opacity="0.5"/>
      <path d="M8,12.4857L12.468,8h2.6122c0.5071,0,0.9197,0.412,0.9197,0.9185v2.6082L11.5191,16L8,12.4857zM11.5178,14.5521l3.4581,-3.4482V9.0231h-2.0834l-3.4442,3.4622L11.5178,14.5521z" fill="#6485C3"/>
      <path d="M13.7552,11.0599c-0.4509,0,-0.8177,-0.3665,-0.8177,-0.8169c0,-0.4505,0.3668,-0.8169,0.8177,-0.8169s0.8177,0.3665,0.8177,0.8169C14.5729,10.6935,14.2061,11.0599,13.7552,11.0599zM13.7552,9.8578c-0.2127,0,-0.3857,0.1728,-0.3857,0.3852s0.173,0.3852,0.3857,0.3852s0.3857,-0.1728,0.3857,-0.3852S13.9679,9.8578,13.7552,9.8578z" fill="#6485C3"/>
    </g>
  </g>
</svg>
