<?xml version="1.0" encoding="UTF-8"?>
<!DOCTYPE svg PUBLIC "-//W3C//DTD SVG 1.1//EN" "http://www.w3.org/Graphics/SVG/1.1/DTD/svg11.dtd">
<svg version="1.1" id="Layer_1" xmlns="http://www.w3.org/2000/svg" xmlns:xlink="http://www.w3.org/1999/xlink" x="0px" y="0px" width="16px" height="16px" viewBox="0 0 16 16" enable-background="new 0 0 16 16" xml:space="preserve">
  <g id="main">
    <g id="icon">
      <path d="M9.674,0.5795L9.416,0.7502L3.578,6.572L3.717,6.712L9.555,0.8896L9.748,0.7623L9.968,0.7199L10.19,0.7623L10.38,0.8896L13.11,3.61L13.23,3.798L13.28,4.02L13.23,4.243L13.11,4.431L11.74,5.8L12.01,5.8L13.25,4.571L13.42,4.318L13.48,4.02L13.42,3.722L13.25,3.47L10.52,0.7502L10.26,0.5795L9.968,0.5227zz" fill="#FFFFFF" opacity="0.5"/>
      <path d="M0.7113,9.429L0.5418,9.682L0.4828,9.98L0.5418,10.28L0.7113,10.53L3.439,13.25L3.697,13.42L3.991,13.48L4.285,13.42L4.542,13.25L6.77,11.03L6.593,10.93L4.403,13.11L4.21,13.24L3.991,13.28L3.771,13.24L3.579,13.11L0.8506,10.39L0.724,10.2L0.6799,9.979L0.724,9.757L0.8506,9.569L3.973,6.457L3.834,6.317zz" fill="#FFFFFF" opacity="0.5"/>
      <path d="M0.7674,8.635L0.4357,9.01L0.1955,9.383L0.04941,9.749L0,10.1L0.08535,10.53L0.34,10.9L3.068,13.62L3.267,13.78L3.491,13.9L3.734,13.98L3.991,14L4.247,13.98L4.491,13.9L4.714,13.78L4.914,13.62L5.606,12.93L5.522,12.78L6.059,12.48L7.187,11.35L7.183,11.34L7.018,11.17L6.121,10.66L4.032,12.74L3.991,12.76L3.95,12.74L1.233,10.03L1.309,9.894L1.649,9.513L4.313,6.857L3.43,5.98zz" fill="#CB525D"/>
      <path d="M9.711,0.025L9.468,0.09844L9.244,0.2178L9.045,0.3811L3.103,6.305L6.114,9.302L6.762,8.192L4.866,6.305L9.927,1.259L9.968,1.244L10.01,1.259L12.74,3.979L12.75,4.02L12.74,4.062L10.99,5.8L11.6,5.8L12.76,5.8L13.62,4.94L13.78,4.742L13.9,4.519L13.98,4.276L14,4.021L13.98,3.765L13.9,3.522L13.78,3.299L13.62,3.101L10.89,0.3811L10.69,0.2178L10.47,0.09844L10.22,0.025L9.968,0zM8.903,7.884L8.946,7.909L9.171,7.967L9.382,7.907L9.539,7.754L9.6,7.529L9.6,7.189zz" fill="#6485C3"/>
    </g>
    <g id="overlay">
      <polygon points="10.8,16 10.8,12.7501 7.8689,14.425 7.1689,13.225 10.1,11.55 7.1689,9.875 7.8689,8.675 10.8,10.3499 10.8,7 12.2,7 12.2,10.3499 15.1311,8.675 15.8311,9.875 12.9,11.55 15.8311,13.225 15.1311,14.425 12.2,12.7501 12.2,16" fill="#EEAC55" stroke-linejoin="miter"/>
    </g>
  </g>
</svg>
