<?xml version="1.0" encoding="UTF-8"?>
<!DOCTYPE svg PUBLIC "-//W3C//DTD SVG 1.1//EN" "http://www.w3.org/Graphics/SVG/1.1/DTD/svg11.dtd">
<svg version="1.1" id="Layer_1" xmlns="http://www.w3.org/2000/svg" xmlns:xlink="http://www.w3.org/1999/xlink" x="0px" y="0px" width="16px" height="16px" viewBox="0 0 16 16" enable-background="new 0 0 16 16" xml:space="preserve">
  <g id="main">
    <g id="icon">
      <path d="M4.072,7.788L3.431,8.093L2.8,8.458L2.198,8.873L1.644,9.325L1.136,9.824L0.6662,10.42L0.3211,11.07L0.2223,11.42L0.1869,11.78L0.2186,12.14L0.3129,12.47L0.4695,12.76L0.6881,13.01L0.9844,13.23L1.335,13.41L2.169,13.64L3.128,13.74L4.15,13.77L5.509,13.75L6.977,13.73L7.548,13.73L6.304,12.49L10.68,8.094L10.62,8.058L9.923,7.759zz" fill="#FFFFFF" opacity="0.5"/>
      <path d="M6.421,8.783L6.322,8.916L6.289,9.232L6.364,9.543L6.572,9.858L6.352,12.44L7.533,11.25L7.46,9.859L7.675,9.546L7.711,9.231L7.703,8.915L7.614,8.783L7.401,8.758L7.018,8.766L6.636,8.758zM6.289,13.17L6.99,13.18L7,13.18L6.344,12.53zz" fill="#6485C3"/>
      <path d="M9.448,7.989L9.435,8.004L9.313,8.409L9.971,8.644L10.08,8.699L10.85,7.925L10.58,7.78L9.836,7.483zM3.456,7.818L2.763,8.207L2.098,8.657L1.489,9.151L0.9533,9.679L0.4584,10.31L0.09492,11.02L-0,11.36L0,12.22L0.09805,12.56L0.2777,12.89L0.5285,13.18L0.8324,13.42L1.186,13.6L1.585,13.74L2.028,13.85L3.025,13.97L4.151,14L5.514,13.98L6.977,13.96L7.783,13.97L6.746,12.93L5.49,12.95L4.177,12.97L2.959,12.93L1.955,12.77L1.571,12.63L1.284,12.44L1.119,12.22L1.058,12.03L1.034,11.78L1.125,11.32L1.38,10.84L1.771,10.35L2.27,9.866L2.847,9.409L3.477,8.997L4.129,8.647L4.777,8.379L4.704,8.188L4.526,7.989L4.152,7.503zz" fill="#6D6E71"/>
      <path d="M6.412,0.8041L5.931,0.8922L5.511,1.039L5.152,1.245L4.853,1.51L4.614,1.835L4.433,2.221L4.311,2.667L4.245,3.214L4.339,4.207L4.623,5.183L5.1,6.146L5.773,7.105L6.024,7.359L6.314,7.545L6.635,7.661L6.98,7.703L6.994,7.703L7.338,7.661L7.66,7.545L7.95,7.359L8.201,7.105L8.874,6.146L9.351,5.183L9.635,4.207L9.729,3.214L9.663,2.667L9.541,2.221L9.36,1.835L9.121,1.51L8.822,1.245L8.462,1.039L8.043,0.8922L7.562,0.8041L7.019,0.7742L6.954,0.7742zz" fill-rule="evenodd" fill="#FFFFFF" opacity="0.5"/>
      <path d="M6.234,0.04258L5.589,0.1674L5.019,0.373L4.526,0.6586L4.112,1.023L3.778,1.465L3.526,1.983L3.357,2.577L3.274,3.275L3.301,3.837L3.38,4.391L3.514,4.939L3.702,5.481L3.944,6.018L4.241,6.552L5.001,7.611L5.407,8.008L5.88,8.299L6.407,8.481L6.978,8.546L6.978,8.546L6.999,8.546L6.999,8.546L7.568,8.48L8.095,8.299L8.567,8.007L8.972,7.611L9.733,6.552L10.03,6.019L10.27,5.481L10.46,4.939L10.59,4.391L10.67,3.837L10.7,3.275L10.62,2.577L10.45,1.984L10.2,1.465L9.862,1.023L9.447,0.6586L8.954,0.373L8.385,0.1674L7.739,0.04258L7.02,0L6.954,0zM7.019,1.041L7.533,1.068L7.989,1.149L8.386,1.283L8.726,1.471L9.008,1.713L9.235,2.01L9.405,2.362L9.52,2.77L9.583,3.275L9.491,4.218L9.213,5.145L8.746,6.062L8.088,6.976L7.86,7.2L7.597,7.365L7.306,7.468L6.994,7.505L6.982,7.505L6.669,7.468L6.377,7.365L6.114,7.2L5.886,6.976L5.228,6.062L4.761,5.145L4.483,4.218L4.39,3.275L4.454,2.77L4.569,2.362L4.739,2.01L4.965,1.713L5.248,1.471L5.588,1.283L5.985,1.149L6.441,1.069L6.955,1.041zz" fill="#6D6E71"/>
      <path d="M6.286,0.151L5.686,0.2688L5.157,0.4633L4.7,0.7332L4.315,1.078L4.005,1.495L3.772,1.985L3.616,2.547L3.538,3.214L3.601,4.074L4.308,4.074L4.81,3.963L5.548,3.795L6.228,3.588L6.849,3.303L7.444,2.974L7.961,2.686L8.04,2.644L8.115,2.691L8.755,3.051L9.582,3.532L9.728,3.668L9.841,3.85L10.4,3.85L10.44,3.214L10.36,2.547L10.2,1.985L9.968,1.495L9.659,1.078L9.274,0.7332L8.817,0.4633L8.288,0.2688L7.688,0.151L7.02,0.1107L6.954,0.1107zz" fill="#6D6E71"/>
    </g>
    <g id="overlay">
      <path d="M15.2369,8.663h-2.5248l-3.902,3.7996l2.7028,2.6801l3.8712,-3.83l-0.0463,-2.5498C15.3377,8.7078,15.2925,8.663,15.2369,8.663zM13.7675,10.8839c-0.3432,0,-0.6214,-0.283,-0.6214,-0.6321c0,-0.3491,0.2782,-0.6321,0.6214,-0.6321s0.6214,0.283,0.6214,0.6321C14.3889,10.6009,14.1107,10.8839,13.7675,10.8839z" fill="#FFFFFF" opacity="0.5"/>
      <path d="M8,12.4857L12.468,8h2.6122c0.5071,0,0.9197,0.412,0.9197,0.9185v2.6082L11.5191,16L8,12.4857zM11.5178,14.5521l3.4581,-3.4482V9.0231h-2.0834l-3.4442,3.4622L11.5178,14.5521z" fill="#6485C3"/>
      <path d="M13.7552,11.0599c-0.4509,0,-0.8177,-0.3665,-0.8177,-0.8169c0,-0.4505,0.3668,-0.8169,0.8177,-0.8169s0.8177,0.3665,0.8177,0.8169C14.5729,10.6935,14.2061,11.0599,13.7552,11.0599zM13.7552,9.8578c-0.2127,0,-0.3857,0.1728,-0.3857,0.3852s0.173,0.3852,0.3857,0.3852s0.3857,-0.1728,0.3857,-0.3852S13.9679,9.8578,13.7552,9.8578z" fill="#6485C3"/>
    </g>
  </g>
</svg>
