<?xml version="1.0" encoding="UTF-8"?>
<!DOCTYPE svg PUBLIC "-//W3C//DTD SVG 1.1//EN" "http://www.w3.org/Graphics/SVG/1.1/DTD/svg11.dtd">
<svg version="1.1" id="Layer_1" xmlns="http://www.w3.org/2000/svg" xmlns:xlink="http://www.w3.org/1999/xlink" x="0px" y="0px" width="16px" height="16px" viewBox="0 0 16 16" enable-background="new 0 0 16 16" xml:space="preserve">
  <g id="main">
    <g id="icon">
      <path d="M2.5,6.166L2.548,6.145L3.172,5.956L3.825,5.84L4.5,5.8L5.082,5.829L5.647,5.916L6.193,6.057L6.717,6.249L7.215,6.489L7.685,6.775L8.124,7.103L8.529,7.471L8.897,7.876L9.225,8.315L9.511,8.785L9.751,9.283L9.943,9.807L10.08,10.35L10.17,10.92L10.2,11.5L10.16,12.18L10.04,12.83L9.855,13.45L9.834,13.5L15.5,13.5L15.5,3L2.5,3zz" fill="#FFFFFF" opacity="0.5"/>
      <path d="M7,6L5.973,6L6.193,6.057L6.717,6.249L7.215,6.489L7.685,6.775L8,7.011L8,7L11,7L11,10L9.993,10L10.08,10.35L10.17,10.92L10.17,11L11,11L11,13L12,13L12,11L15,11L15,10L12,10L12,7L15,7L15,6L12,6L12,3L11,3L11,6L8,6L8,3L7,3zM3,6.008L3.028,6L3,6zz" fill="#6D6E71"/>
      <path d="M2,6.382L2.548,6.145L3,6.008L3,3L2,3zM15,13L9.992,13L9.855,13.45L9.618,14L16,14L16,3L15,3zz" fill="#6D6E71"/>
      <path d="M2,3L16,3L16,0L2,0zz" fill="#6485C3"/>
    </g>
    <g id="overlay">
      <path d="M0.9,11.5c0,-1.9882,1.6118,-3.6,3.6,-3.6s3.6,1.6118,3.6,3.6s-1.6118,3.6,-3.6,3.6S0.9,13.4882,0.9,11.5zM2.3039,14.3525M6.714,14.3388" fill="#FFFFFF" opacity="0.5"/>
      <polygon points="4,12.1047 4,9 5,9 5,11.5854 6.4345,12.8891 5.74,13.6927" fill="#6485C3" stroke-linejoin="miter"/>
      <path d="M4.5,16c-2.4813,0,-4.5,-2.0187,-4.5,-4.5s2.0187,-4.5,4.5,-4.5s4.5,2.0187,4.5,4.5S6.9813,16,4.5,16zM4.5,8.0929c-1.8787,0,-3.4071,1.5284,-3.4071,3.4071S2.6213,14.9071,4.5,14.9071S7.9071,13.3787,7.9071,11.5S6.3787,8.0929,4.5,8.0929z" fill="#7B7B7B"/>
    </g>
  </g>
</svg>
