<?xml version="1.0" encoding="UTF-8"?>
<!DOCTYPE svg PUBLIC "-//W3C//DTD SVG 1.1//EN" "http://www.w3.org/Graphics/SVG/1.1/DTD/svg11.dtd">
<svg version="1.1" id="Layer_1" xmlns="http://www.w3.org/2000/svg" xmlns:xlink="http://www.w3.org/1999/xlink" x="0px" y="0px" width="16px" height="16px" viewBox="0 0 16 16" enable-background="new 0 0 16 16" xml:space="preserve">
  <g id="icon">
    <path d="M14.5,15.5H1.5V0.5h13V15.5z" fill="#FFFFFF" opacity="0.5"/>
    <path d="M15,16H1V0h14V16zM2,15h12V1H2V15z" fill="#6D6E71"/>
    <path d="M13,4H3V2h10V4z" fill="#9070B1"/>
    <rect x="3.5" y="5.5" width="9" height="2" fill="none" stroke="#787979" stroke-width="1" stroke-miterlimit="10" opacity="0.6"/>
    <path d="M9.5,6v1" fill="none" stroke="#787979" stroke-width="1" stroke-miterlimit="10" opacity="0.3"/>
    <path d="M4.4025,14.0829c-0.1981,0,-0.3865,-0.0153,-0.56,-0.0443c-0.1657,-0.0277,-0.3064,-0.1368,-0.3746,-0.2903c-0.0681,-0.1536,-0.0546,-0.3311,0.036,-0.4726l0.1069,-0.1669c0.2753,-0.4244,0.6924,-0.82,1.1205,-1.1652c-0.0515,-0.0358,-0.1002,-0.0784,-0.1451,-0.1288c-0.1295,-0.1452,-0.2676,-0.4084,-0.1903,-0.8377c0.2071,-1.149,1.8417,-1.6504,2.5349,-1.8127c0.7533,-0.1763,1.2909,-0.2214,1.6437,0.0988c0.1454,0.1318,0.3069,0.3768,0.2511,0.7947c-0.0584,0.4378,-0.3406,0.6907,-0.5673,0.8939c-0.105,0.0941,-0.2042,0.183,-0.2746,0.2821c-0.1598,0.2251,-0.4719,0.2782,-0.6971,0.1183c-0.2252,-0.1598,-0.2782,-0.4719,-0.1183,-0.6971c0.1351,-0.1903,0.2945,-0.3332,0.4225,-0.448c0.0797,-0.0714,0.1425,-0.1287,0.1846,-0.1771c-0.119,0.0086,-0.3108,0.0365,-0.6167,0.1081c-0.9388,0.2198,-1.6721,0.6301,-1.7718,0.9864c0.0967,0.0034,0.2267,-0.005,0.3089,-0.0103c0.1252,-0.0081,0.2547,-0.0165,0.3753,-0.0087c0.2124,0.0135,0.3929,0.16,0.45,0.365c0.057,0.205,-0.022,0.4237,-0.1969,0.5449c-0.3832,0.2656,-0.894,0.6197,-1.3133,1.0038c0.485,-0.0979,0.9832,-0.3117,1.3573,-0.658c0.1666,-0.1541,0.4161,-0.1768,0.6077,-0.0551c0.1607,0.1021,0.2468,0.2842,0.2299,0.4679c0.1376,-0.0209,0.3805,-0.1306,0.5541,-0.4703c0.1037,-0.2028,0.3315,-0.3096,0.5536,-0.2606c0.2224,0.0494,0.3833,0.2427,0.3914,0.4703c0.0028,0.0793,0.0119,0.1316,0.0203,0.1641c0.1796,-0.0343,0.5801,-0.2841,0.802,-0.5708c0.1278,-0.1653,0.3451,-0.2337,0.5445,-0.1712c0.1995,0.0623,0.3391,0.242,0.3502,0.4507c0.0006,0.012,0.0014,0.0232,0.0023,0.0336c0.2179,-0.0866,0.5818,-0.3405,0.7545,-0.461c0.2315,-0.1615,0.4143,-0.2891,0.5775,-0.349c0.1347,-0.0494,0.2842,-0.0386,0.4104,0.0297c0.1262,0.0684,0.217,0.1877,0.2492,0.3276c0.1463,0.6365,0.0025,0.9041,-0.2642,1.3222c-0.1486,0.2327,-0.4587,0.3028,-0.6915,0.1542c-0.1197,-0.0764,-0.1962,-0.1949,-0.2221,-0.3236c-0.4337,0.2615,-0.8991,0.4448,-1.3079,0.2453c-0.0555,-0.0271,-0.1141,-0.0636,-0.1711,-0.1128c-0.3997,0.2964,-0.9168,0.5323,-1.38,0.3831c-0.0896,-0.0289,-0.2024,-0.081,-0.3101,-0.1748c-0.4363,0.3241,-0.9508,0.3948,-1.3376,0.2358c-0.1026,-0.0421,-0.1924,-0.099,-0.2682,-0.1674C5.8059,13.9176,5.0528,14.0829,4.4025,14.0829zM7.837,9.89" fill="#9070B1"/>
  </g>
</svg>
