<?xml version="1.0" encoding="UTF-8"?>
<!DOCTYPE svg PUBLIC "-//W3C//DTD SVG 1.1//EN" "http://www.w3.org/Graphics/SVG/1.1/DTD/svg11.dtd">
<svg version="1.1" id="Layer_1" xmlns="http://www.w3.org/2000/svg" xmlns:xlink="http://www.w3.org/1999/xlink" x="0px" y="0px" width="16px" height="16px" viewBox="0 0 16 16" enable-background="new 0 0 16 16" xml:space="preserve">
  <g id="main">
    <g id="icon">
      <path d="M9.674,0.5795L9.416,0.7502L3.578,6.572L3.717,6.712L9.555,0.8896L9.748,0.7623L9.968,0.7199L10.19,0.7623L10.38,0.8896L13.11,3.61L13.23,3.798L13.28,4.02L13.23,4.243L13.11,4.431L11.72,5.813L11.99,5.829L13.25,4.571L13.42,4.318L13.48,4.02L13.42,3.722L13.25,3.47L10.52,0.7502L10.26,0.5795L9.968,0.5227zz" fill="#FFFFFF" opacity="0.5"/>
      <path d="M0.7113,9.429L0.5418,9.682L0.4828,9.98L0.5418,10.28L0.7113,10.53L3.439,13.25L3.697,13.42L3.991,13.48L4.285,13.42L4.542,13.25L5.828,11.97L5.812,11.71L4.403,13.11L4.21,13.24L3.991,13.28L3.771,13.24L3.579,13.11L0.8506,10.39L0.724,10.2L0.6799,9.979L0.724,9.757L0.8506,9.569L3.973,6.457L3.834,6.317zz" fill="#FFFFFF" opacity="0.5"/>
      <path d="M0.7674,8.635L0.4357,9.01L0.1955,9.383L0.04941,9.749L0,10.1L0.08535,10.53L0.34,10.9L3.068,13.62L3.267,13.78L3.491,13.9L3.734,13.98L3.991,14L4.247,13.98L4.491,13.9L4.714,13.78L4.914,13.62L5.919,12.62L5.84,12.18L5.8,11.5L5.828,10.95L4.032,12.74L3.991,12.76L3.95,12.74L1.233,10.03L1.309,9.894L1.649,9.513L4.313,6.857L3.43,5.98zz" fill="#CB525D"/>
      <path d="M9.711,0.025L9.468,0.09844L9.244,0.2178L9.045,0.3811L3.103,6.305L6.207,9.396L6.249,9.283L6.489,8.785L6.775,8.315L6.822,8.252L4.866,6.305L9.927,1.259L9.968,1.244L10.01,1.259L12.74,3.979L12.75,4.02L12.74,4.062L10.97,5.827L11.5,5.8L12.18,5.84L12.63,5.922L13.62,4.94L13.78,4.742L13.9,4.519L13.98,4.276L14,4.021L13.98,3.765L13.9,3.522L13.78,3.299L13.62,3.101L10.89,0.3811L10.69,0.2178L10.47,0.09844L10.22,0.025L9.968,0zz" fill="#6485C3"/>
    </g>
    <g id="overlay">
      <path d="M11.5,7c-2.4853,0,-4.5,2.0147,-4.5,4.5s2.0147,4.5,4.5,4.5c2.4853,0,4.5,-2.0147,4.5,-4.5S13.9853,7,11.5,7zM10.7004,14.1607l-2.4222,-2.4221l1,-1l1.4214,1.4214l2.9821,-2.9071l1.0001,1.0001L10.7004,14.1607z" fill="#52B250"/>
      <polygon points="8.2782,11.7386 9.2783,10.7385 10.6997,12.1599 13.6817,9.2528 14.6819,10.2529 10.7004,14.1607" fill="#FFFFFF" stroke-linejoin="miter"/>
    </g>
  </g>
</svg>
