<?xml version="1.0" encoding="UTF-8"?>
<!DOCTYPE svg PUBLIC "-//W3C//DTD SVG 1.1//EN" "http://www.w3.org/Graphics/SVG/1.1/DTD/svg11.dtd">
<svg version="1.1" id="Layer_1" xmlns="http://www.w3.org/2000/svg" xmlns:xlink="http://www.w3.org/1999/xlink" x="0px" y="0px" width="16px" height="16px" viewBox="0 0 16 16" enable-background="new 0 0 16 16" xml:space="preserve">
  <g id="icon">
    <rect x="1.45" y="0.45" width="13.1" height="15.1" fill="#FFFFFF" opacity="0.5"/>
    <path d="M1,0v16h0.4h0.6h13V0H1zM14,15H2V1h12V15z" fill="#6D6E71"/>
    <path d="M13,5H3V2h10V5zM4,4h8V3H4V4z" fill="#EEAC55"/>
    <path d="M11,7H3V6h8V7z" fill="#B7B7B7"/>
    <path d="M4.001,13.9996c-0.2125,0,-0.4146,-0.0131,-0.6005,-0.0379c-0.1651,-0.022,-0.3056,-0.1313,-0.3675,-0.286c-0.0619,-0.1547,-0.0356,-0.3307,0.0688,-0.4606l0.1206,-0.15c0.2948,-0.3622,0.7346,-0.701,1.1916,-0.9995c-0.0613,-0.0401,-0.1177,-0.0891,-0.1678,-0.1486c-0.114,-0.1354,-0.2324,-0.3743,-0.1489,-0.7437c0.2262,-1.0007,1.8498,-1.4468,2.7975,-1.6236c0.8771,-0.1636,1.4506,-0.194,1.7865,0.1356c0.1026,0.1007,0.2653,0.3256,0.2026,0.7004c-0.0699,0.4174,-0.3882,0.6449,-0.644,0.8277c-0.1209,0.0864,-0.2351,0.168,-0.3166,0.2596c-0.1694,0.1903,-0.4611,0.2072,-0.6516,0.0378c-0.1903,-0.1695,-0.2072,-0.4612,-0.0378,-0.6516c0.1502,-0.1687,0.3198,-0.2898,0.4694,-0.3967c0.0424,-0.0303,0.0975,-0.0697,0.147,-0.1083c-0.1499,0.0047,-0.3934,0.0297,-0.7861,0.103c-1.1216,0.2093,-1.881,0.5826,-2.0395,0.8543c0.1307,0.011,0.3263,0.001,0.4464,-0.0051c0.1414,-0.0073,0.2749,-0.0139,0.3982,-0.0078c0.2059,0.0105,0.3798,0.1562,0.4263,0.357c0.0464,0.2009,-0.046,0.4082,-0.2264,0.5078c-0.4169,0.2304,-0.9669,0.5344,-1.4313,0.8655c0.601,-0.0855,1.2258,-0.2896,1.6879,-0.6306c0.1659,-0.1223,0.3926,-0.12,0.556,0.006c0.1249,0.0964,0.1893,0.2472,0.1784,0.3985c0.197,0.0187,0.5949,-0.0778,0.8393,-0.4592c0.1085,-0.1693,0.3143,-0.2488,0.5084,-0.1967c0.1942,0.0522,0.3323,0.2242,0.3413,0.4251c0.0035,0.0784,0.017,0.1224,0.0251,0.1397c0.1614,0.0522,0.781,-0.1986,1.1193,-0.547c0.127,-0.1308,0.319,-0.1746,0.4903,-0.1118c0.1711,0.0629,0.2892,0.2206,0.3013,0.4025c0.0014,0.0217,0.0037,0.0393,0.0059,0.0532c0.2363,-0.0137,0.7978,-0.3259,1.0482,-0.4653c0.2528,-0.1406,0.4525,-0.2517,0.6176,-0.3c0.1176,-0.0346,0.2444,-0.0207,0.352,0.0385c0.1076,0.0591,0.1871,0.1586,0.2211,0.2766c0.1773,0.6149,-0.0011,0.8803,-0.3069,1.2624c-0.1592,0.199,-0.4509,0.2326,-0.6499,0.0734c-0.1065,-0.0852,-0.1655,-0.2075,-0.173,-0.3333c-0.5389,0.2802,-1.1292,0.5097,-1.5818,0.2636c-0.0531,-0.0289,-0.1097,-0.0673,-0.1642,-0.1182c-0.4634,0.2994,-1.1013,0.5604,-1.6157,0.3652c-0.0843,-0.032,-0.1916,-0.0871,-0.2929,-0.1807c-0.5265,0.3627,-1.1762,0.4268,-1.5994,0.2094c-0.0747,-0.0384,-0.1406,-0.0845,-0.1971,-0.1369C5.608,13.8405,4.7419,13.9996,4.001,13.9996z" fill="#6485C3"/>
  </g>
</svg>
