<?xml version="1.0" encoding="UTF-8"?>
<!DOCTYPE svg PUBLIC "-//W3C//DTD SVG 1.1//EN" "http://www.w3.org/Graphics/SVG/1.1/DTD/svg11.dtd">
<svg version="1.1" id="Layer_1" xmlns="http://www.w3.org/2000/svg" xmlns:xlink="http://www.w3.org/1999/xlink" x="0px" y="0px" width="16px" height="16px" viewBox="0 0 16 16" enable-background="new 0 0 16 16" xml:space="preserve">
  <g id="main">
    <g id="icon">
      <path d="M0.5,14L0.5393,14.19L0.6465,14.35L0.8055,14.46L1,14.5L8.01,14.5L8,7.17L8.082,6.731L8.324,6.356L8.696,6.097L9.138,6L9.865,6L10.28,6.08L10.64,6.298L12.66,6.966L14.5,7.619L14.5,1.5L0.5,1.5zz" fill="#FFFFFF"/>
      <path d="M0,1.5L0,14L0,14.05L0.009961,14.1L0.04922,14.29L0.06895,14.39L0.1248,14.47L0.2318,14.63L0.2863,14.71L0.367,14.77L0.5258,14.88L0.6086,14.93L0.7064,14.95L0.901,14.99L0.95,15L1,15L8.011,15L8.01,14L1.05,14L1.008,13.99L1,13.95L1,2L14,2L14,7.442L14.99,7.794L15,7.797L15,1.5L15,1L14.5,1L0.5,1L0,1zz" fill="#6D6E71"/>
      <path d="M0.6107,0.07852L0.293,0.293L0.07852,0.6107L0,1L0,3L15,3L15,1L14.92,0.6107L14.71,0.293L14.39,0.07852L14,0L1,0zz" fill="#CD4C32"/>
      <path d="M2.683,5.113L2.51,5.402L2.559,5.735L2.808,5.962L3,6L5,6L5.317,5.887L5.49,5.598L5.441,5.265L5.192,5.038L5,5L3,5zM2.683,7.113L2.51,7.402L2.559,7.735L2.808,7.962L3,8L5,8L5.317,7.887L5.49,7.598L5.441,7.265L5.192,7.038L5,7L3,7zM2.683,9.113L2.51,9.402L2.559,9.735L2.808,9.962L3,10L5,10L5.317,9.887L5.49,9.598L5.441,9.265L5.192,9.038L5,9L3,9zM2.683,11.11L2.51,11.4L2.559,11.73L2.808,11.96L3,12L5,12L5.317,11.89L5.49,11.6L5.441,11.27L5.192,11.04L5,11L3,11zz" fill="#CD4C32"/>
      <path d="M6.683,5.113L6.51,5.402L6.559,5.735L6.808,5.962L7,6L9.865,6L12.1,6L12.42,5.887L12.59,5.598L12.54,5.265L12.29,5.038L12.1,5L7,5zM6.683,7.113L6.51,7.402L6.559,7.735L6.808,7.962L7,8L8.001,8L8,7.17L8.032,7L7,7zM6.683,9.113L6.51,9.402L6.559,9.735L6.808,9.962L7,10L8.004,10L8.003,9L7,9zM6.683,11.11L6.51,11.4L6.559,11.73L6.808,11.96L7,12L8.007,12L8.005,11L7,11zz" fill="#B4B4B5"/>
    </g>
    <g id="overlay">
      <path d="M10.1572,7.1938c0,0,3.2159,1.0393,4.4696,1.5309c1.2905,0.6293,1.2905,0.6293,0.042,1.3668c-1.8598,0.9579,-4.4693,1.9989,-4.4693,1.9989c-0.1161,0.0023,-0.2663,-0.09,-0.2686,-0.2061V7.4081C9.9287,7.292,10.0411,7.196,10.1572,7.1938z" fill-rule="evenodd" fill="#3E79B4"/>
      <path d="M9.1577,7h0.704c0.0888,-0.0017,0.168,0.0797,0.1697,0.1685l-0.0117,8.6675c0.0017,0.0888,-0.0689,0.1622,-0.1577,0.1639h-0.6923c-0.0888,0.0017,-0.1561,-0.0797,-0.1578,-0.1685L9,7.1639C8.9983,7.0751,9.0689,7.0018,9.1577,7z" fill-rule="evenodd" fill="#797979"/>
    </g>
  </g>
</svg>
