<?xml version="1.0" encoding="UTF-8"?>
<!DOCTYPE svg PUBLIC "-//W3C//DTD SVG 1.1//EN" "http://www.w3.org/Graphics/SVG/1.1/DTD/svg11.dtd">
<svg version="1.1" id="Layer_1" xmlns="http://www.w3.org/2000/svg" xmlns:xlink="http://www.w3.org/1999/xlink" x="0px" y="0px" width="16px" height="16px" viewBox="0 0 16 16" enable-background="new 0 0 16 16" xml:space="preserve">
  <g id="main">
    <g id="icon">
      <path d="M6.814,0.8256L6.148,0.9273L5.505,1.093L4.888,1.318L4.302,1.601L3.749,1.937L3.232,2.323L2.756,2.756L2.323,3.232L1.937,3.749L1.601,4.302L1.318,4.888L1.093,5.505L0.9273,6.148L0.8256,6.814L0.791,7.5L0.8256,8.186L0.9273,8.852L1.093,9.495L1.318,10.11L1.601,10.7L1.937,11.25L2.323,11.77L2.756,12.24L3.232,12.68L3.749,13.06L4.302,13.4L4.888,13.68L5.505,13.91L6.148,14.07L6.691,14.16L6.641,14.07L6.368,13.48L6.167,12.85L6.043,12.19L6,11.5L6.029,10.94L6.112,10.39L6.248,9.866L6.433,9.361L6.665,8.88L6.941,8.427L7.257,8.004L7.613,7.613L8.004,7.257L8.427,6.941L8.88,6.665L9.361,6.433L9.866,6.248L10.39,6.112L10.94,6.029L11.5,6L12.19,6.043L12.85,6.167L13.48,6.368L14.07,6.641L14.16,6.691L14.07,6.148L13.91,5.505L13.68,4.888L13.4,4.302L13.06,3.749L12.68,3.232L12.24,2.756L11.77,2.323L11.25,1.937L10.7,1.601L10.11,1.318L9.495,1.093L8.852,0.9273L8.186,0.8256L7.5,0.791zz" fill="#FFFFFF"/>
      <path d="M6.733,0.03867L5.988,0.1523L5.27,0.3371L4.581,0.5895L3.925,0.9053L3.307,1.281L2.729,1.713L2.197,2.197L1.713,2.729L1.281,3.307L0.9053,3.925L0.5895,4.581L0.3371,5.27L0.1523,5.988L0.03867,6.733L0,7.5L0.03867,8.267L0.1523,9.012L0.3371,9.73L0.5895,10.42L0.9053,11.07L1.281,11.69L1.713,12.27L2.197,12.8L2.729,13.29L3.307,13.72L3.925,14.09L4.581,14.41L5.27,14.66L5.988,14.85L6.733,14.96L7.262,14.99L6.98,14.63L6.641,14.07L6.628,14.05L6.168,13.98L5.534,13.81L4.927,13.59L4.349,13.31L3.804,12.98L3.295,12.6L2.826,12.17L2.399,11.7L2.019,11.2L1.688,10.65L1.409,10.07L1.187,9.466L1.024,8.832L0.9242,8.176L0.89,7.5L0.9242,6.824L1.024,6.168L1.187,5.534L1.409,4.927L1.688,4.349L2.019,3.804L2.399,3.295L2.826,2.826L3.295,2.399L3.804,2.019L4.349,1.688L4.927,1.409L5.534,1.187L6.168,1.024L6.824,0.9242L7.5,0.89L8.176,0.9242L8.832,1.024L9.466,1.187L10.07,1.409L10.65,1.688L11.2,2.019L11.7,2.399L12.17,2.826L12.6,3.295L12.98,3.804L13.31,4.349L13.59,4.927L13.81,5.534L13.98,6.168L14.05,6.628L14.07,6.641L14.63,6.98L14.99,7.262L14.96,6.733L14.85,5.988L14.66,5.27L14.41,4.581L14.09,3.925L13.72,3.307L13.29,2.729L12.8,2.197L12.27,1.713L11.69,1.281L11.07,0.9053L10.42,0.5895L9.73,0.3371L9.012,0.1523L8.267,0.03867L7.5,0zz" fill-rule="evenodd" fill="#797979"/>
      <path d="M10.14,2.316L9.846,2.52L9.838,2.527L9.692,2.663L9.6,2.902L9.622,3.046L9.746,3.23L9.781,3.259L9.102,3.645L9.001,3.739L8.954,3.868L9,4.065L8.957,4.089L8.912,4.116L8.732,4.247L8.658,4.349L8.625,4.483L8.616,4.513L8.584,4.701L8.604,4.849L8.747,5.048L8.568,5.327L8.524,5.406L8.508,5.436L8.372,5.587L8.12,5.878L8.004,6.082L7.947,6.304L7.982,6.758L7.989,6.794L8.088,7.194L8.427,6.941L8.88,6.665L9.361,6.433L9.866,6.248L10.39,6.112L10.94,6.029L11.5,6L12.19,6.043L12.85,6.167L13.26,6.3L13.17,5.861L12.89,5.104L12.52,4.399L12.06,3.755L11.52,3.179L10.9,2.68L10.22,2.266zM4.916,2.576L4.804,2.651L4.7,2.782L4.54,2.857L4.451,3.011L4.306,3.212L4.25,3.172L4.045,3.108L3.891,3.011L3.729,2.969L3.313,3.35L2.934,3.768L2.597,4.223L2.303,4.709L2.057,5.225L1.861,5.767L1.717,6.333L1.63,6.919L1.632,6.92L1.864,7.007L2.404,7.238L2.62,7.398L2.788,7.616L2.873,7.712L2.988,7.763L2.975,7.882L2.947,7.938L2.866,8.134L2.875,8.428L2.882,8.506L2.85,8.581L2.844,8.708L2.891,8.826L3.027,9.028L3.396,9.564L3.575,9.754L3.769,9.853L3.882,9.913L3.945,10.06L4.028,10.75L4.064,11.3L4.12,12.09L4.162,12.37L4.88,12.79L5.182,12.64L5.302,12.52L5.357,12.3L5.308,12.17L5.357,12.03L5.329,11.88L5.315,11.85L5.597,11.55L6.007,10.98L6.035,10.9L6.112,10.39L6.248,9.866L6.433,9.361L6.665,8.88L6.915,8.469L6.862,8.416L6.558,8.275L5.923,7.985L5.893,7.972L5.79,7.924L5.79,7.923L5.775,7.788L5.712,7.676L5.516,7.527L5.192,7.391L4.651,7.149L4.64,7.143L4.297,6.98L3.922,6.905L3.641,6.955L3.382,7.104L3.3,7.131L3.292,7.084L3.269,6.866L3.261,6.772L3.194,6.612L3.052,6.517L3.079,6.449L3.085,6.245L2.957,6.085L2.7,6.007L2.486,6.067L2.352,6.188L2.351,6.142L2.378,6.033L2.481,6.016L2.904,5.956L3.021,5.946L3.084,6.108L3.2,6.253L3.379,6.302L3.552,6.235L3.653,6.079L3.678,5.972L3.704,5.874L3.751,5.76L3.854,5.556L4.657,4.834L4.814,4.724L4.95,4.737L5.08,4.687L5.988,3.97L6.117,3.742L6.133,3.557L6.082,3.417L5.972,3.319L5.896,3.118L5.883,3.047L5.837,2.936L5.714,2.827L5.603,2.789L5.541,2.721L5.316,2.58L5.104,2.535zz" fill="#4EA17E"/>
    </g>
    <g id="overlay">
      <path d="M11.5097,7.6964c2.0924,0,3.7886,1.6962,3.7886,3.7886c0,2.0924,-1.6962,3.7886,-3.7886,3.7886c-2.0924,0,-3.7886,-1.6962,-3.7886,-3.7886C7.7211,9.3926,9.4173,7.6964,11.5097,7.6964z" fill-rule="evenodd" fill="#FFFFFF"/>
      <path d="M11.4928,15.9855C9.0155,15.9855,7,13.9701,7,11.4928S9.0155,7,11.4928,7s4.4928,2.0155,4.4928,4.4928S13.9701,15.9855,11.4928,15.9855zM11.4928,8.0401c-1.9038,0,-3.4527,1.5489,-3.4527,3.4527c0,1.9039,1.5489,3.4527,3.4527,3.4527c1.9039,0,3.4527,-1.5489,3.4527,-3.4527C14.9455,9.5889,13.3966,8.0401,11.4928,8.0401z" fill-rule="evenodd" fill="#797979"/>
      <path d="M11.4928,7.1915c-2.3755,0,-4.3013,1.9258,-4.3013,4.3013c0,2.3755,1.9258,4.3013,4.3013,4.3013s4.3013,-1.9258,4.3013,-4.3013C15.7941,9.1172,13.8683,7.1915,11.4928,7.1915zM11.4928,15.137c-2.0126,0,-3.6442,-1.6316,-3.6442,-3.6442c0,-2.0126,1.6316,-3.6442,3.6442,-3.6442s3.6442,1.6316,3.6442,3.6442C15.137,13.5054,13.5054,15.137,11.4928,15.137z" fill-rule="evenodd" fill="#797979"/>
      <path d="M13.4291,13.8025c-0.3332,-0.0001,-1.8552,-1.3305,-2.0595,-1.5366c-0.18,-0.1816,-0.3125,-0.3152,-0.2603,-0.4859c-0.019,-0.098,-0.0215,-0.2161,-0.0211,-0.33c0.0007,-0.2121,0.0422,-0.9361,0.1057,-1.5878c0.1331,-1.3672,0.2504,-1.3672,0.3446,-1.3672c0.0949,0.0005,0.2126,0.0011,0.3202,1.3506c0.053,0.6645,0.0795,1.374,0.0788,1.5681c-0.0003,0.0698,-0.0007,0.1379,-0.0033,0.2005c0.0283,0.0265,0.0579,0.0555,0.0894,0.0873c0.1273,0.1284,0.5385,0.5753,0.9124,1.0266c0.6805,0.8215,0.6658,0.9601,0.5865,1.0388C13.5061,13.7831,13.4765,13.8025,13.4291,13.8025L13.4291,13.8025z" fill-rule="evenodd" fill="#3E79B4"/>
    </g>
  </g>
</svg>
