<?xml version="1.0" encoding="UTF-8"?>
<!DOCTYPE svg PUBLIC "-//W3C//DTD SVG 1.1//EN" "http://www.w3.org/Graphics/SVG/1.1/DTD/svg11.dtd">
<svg version="1.1" id="Layer_1" xmlns="http://www.w3.org/2000/svg" xmlns:xlink="http://www.w3.org/1999/xlink" x="0px" y="0px" width="16px" height="16px" viewBox="0 0 16 16" enable-background="new 0 0 16 16" xml:space="preserve">
  <g id="icon">
    <path d="M5.2067,8.5c0,0,1.3238,4.6162,2.2179,6.5068c0.3148,0.0077,0.5107,0.0085,0.5328,0.0086c0.0241,-0.0001,0.2594,-0.001,0.6328,-0.011c0.922,-1.8848,2.3104,-6.4666,2.3104,-6.4666l0.1592,0.0644c0.0059,-0.0133,0.0119,-0.0258,0.0178,-0.0392c-0.2011,-0.0804,-0.5152,-0.1517,-0.9251,-0.2744c-0.1764,0.1922,-0.3635,0.3644,-0.5599,0.513c-0.5391,-0.1467,-1.0969,-0.2573,-1.5847,-0.2573c-0.595,0,-1.0935,0.0803,-1.5987,0.2193c-0.1894,-0.1502,-0.3695,-0.3228,-0.5389,-0.5145c-0.3551,0.1494,-0.5755,0.1705,-0.8128,0.2779c0.0042,0.009,0.0083,0.0175,0.0125,0.0265L5.2067,8.5z" fill-rule="evenodd" fill="#FFFFFF"/>
    <path d="M6.9089,10.5044c0.0289,-0.614,0.3143,-0.4951,1.1172,-0.4951s1.101,-0.1189,1.072,0.4939c0.0074,0.2779,-0.2289,0.3949,-0.5208,0.6679c-0.014,0.9563,0.4899,4.3297,0.4899,4.3297l-1.0565,0.3919l-0.9745,-0.4142c0,0,0.4014,-3.3395,0.4329,-4.3085C7.2488,10.882,6.9089,10.7883,6.9089,10.5044z" fill-rule="evenodd" fill="#CD4C32"/>
    <path d="M7.9566,16c-0.2632,-0.0004,-6.4607,-0.0248,-7.7077,-1.4391c-0.1958,-0.222,-0.2735,-0.4692,-0.2308,-0.7346c0.0438,-0.3083,0.081,-0.592,0.1151,-0.8514c0.3717,-2.8299,0.4553,-2.9109,4.4609,-4.2202c0.2706,-0.1202,0.4393,-0.1868,0.4409,-0.1874L5.2067,8.5c0,0,2.0933,7.3,2.7933,7.3s2.9005,-7.2622,2.9005,-7.2622l0.176,0.0713c0.0792,0.032,0.1734,0.0736,0.2904,0.1256c4.0421,1.3213,4.1268,1.4042,4.5158,4.3171c0.0318,0.2385,0.0663,0.4969,0.1063,0.7778c0.0418,0.2601,-0.0354,0.5056,-0.2299,0.7262C14.5074,15.9751,8.224,15.9996,7.9571,16H7.9566z" fill-rule="evenodd" fill="#797979"/>
    <path d="M8.038,0C4.8407,0,4.1153,1.375,4.1153,3.5581s1.5729,5.8035,3.9052,5.8035c2.3323,0,3.967,-3.6204,3.967,-5.8035S11.2,0,8.038,0zM8.0075,8.3732c-1.79,0,-2.8928,-2.7842,-2.8928,-4.5211c0,-0.0519,0.0012,-0.1031,0.0033,-0.1539c1.4419,-0.0658,4.1836,-0.3786,5.0809,-0.9716c0.0677,0.274,0.3948,0.7609,0.6979,0.969c0.0022,0.0516,0.0034,0.1037,0.0034,0.1564C10.9,5.5889,9.7975,8.3732,8.0075,8.3732z" fill-rule="evenodd" fill="#797979"/>
    <path d="M10.1988,2.7267c-0.8972,0.5929,-3.639,0.9057,-5.0809,0.9716c-0.0021,0.0507,-0.0033,0.102,-0.0033,0.1539c0,1.7368,1.1028,4.5211,2.8928,4.5211S10.9,5.5889,10.9,3.8521c0,-0.0528,-0.0012,-0.1049,-0.0033,-0.1564C10.5936,3.4876,10.2664,3.0007,10.1988,2.7267z" fill-rule="evenodd" fill="#FFFFFF"/>
  </g>
</svg>
