<?xml version="1.0" encoding="UTF-8"?>
<!DOCTYPE svg PUBLIC "-//W3C//DTD SVG 1.1//EN" "http://www.w3.org/Graphics/SVG/1.1/DTD/svg11.dtd">
<svg version="1.1" id="Layer_1" xmlns="http://www.w3.org/2000/svg" xmlns:xlink="http://www.w3.org/1999/xlink" x="0px" y="0px" width="16px" height="16px" viewBox="0 0 16 16" enable-background="new 0 0 16 16" xml:space="preserve">
  <g id="main">
    <g id="icon">
      <path d="M4.742,7.994L4.753,8.019L4.881,7.969L4.955,8.121L5.218,8.65L5.308,8.827L5.118,8.896L4.697,9.05L4.555,9.102L2.626,9.769L2.015,10.04L1.623,10.31L1.434,10.57L1.302,10.94L1.086,12.28L0.9801,13.06L1.17,13.2L1.702,13.43L2.735,13.68L4.426,13.92L6.5,14.05L7.46,14.08L7.958,14.07L8.048,13.74L8.254,13.04L7.727,12.65L7.03,12.13L6.436,11.57L6.213,11.27L6.06,10.95L5.991,10.61L6.019,10.24L6.101,9.983L6.229,9.76L6.402,9.572L6.62,9.417L7.192,9.211L7.944,9.142L8.845,9.179L9.463,9.208L9.661,8.546L9.865,7.873L9.518,7.771L8.993,8.251L8.232,8.079L7.508,8.01L6.727,8.064L6.009,8.216L5.504,7.733zz" fill-rule="evenodd" fill="#FFFFFF"/>
      <path d="M4.721,8.031L4.307,8.207L2.119,8.97L1.426,9.299L0.9387,9.651L0.6113,10.07L0.3977,10.6L0.251,11.28L0.1252,12.16L0.01738,12.96L0.0416,13.32L0.2338,13.65L0.5049,13.88L0.8697,14.09L1.821,14.42L2.969,14.66L4.192,14.82L6.391,14.98L7.46,15L7.46,15L7.708,14.99L7.714,14.95L7.958,14.07L7.46,14.08L6.5,14.05L4.426,13.92L2.735,13.68L1.702,13.43L1.17,13.2L0.9803,13.06L1.086,12.28L1.302,10.94L1.434,10.57L1.623,10.31L2.015,10.04L2.626,9.769L4.555,9.102L4.697,9.05L5.118,8.896L5.309,8.827L5.218,8.65L4.955,8.121L4.882,7.969zz" fill-rule="evenodd" fill="#3E79B4"/>
      <path d="M6.517,0.05938L5.697,0.2334L5.055,0.5158L4.573,0.9004L4.232,1.381L4.012,1.951L3.894,2.605L3.858,3.336L3.926,4.157L4.123,5.049L4.44,5.957L4.869,6.824L5.4,7.595L6.025,8.214L6.37,8.45L6.734,8.627L7.118,8.738L7.519,8.776L7.921,8.738L8.307,8.627L8.675,8.45L9.023,8.214L9.657,7.595L10.2,6.824L10.64,5.957L10.96,5.049L11.17,4.157L11.24,3.336L11.2,2.605L11.08,1.951L10.85,1.381L10.5,0.9004L10.01,0.5158L9.365,0.2334L8.546,0.05938L7.536,0zM9.806,3.034L10,3.277L10.22,3.465L10.22,3.611L10.17,4.261L10.03,4.96L9.803,5.668L9.492,6.341L9.103,6.938L8.639,7.416L8.105,7.734L7.814,7.82L7.507,7.85L7.2,7.82L6.909,7.734L6.376,7.416L5.912,6.938L5.522,6.341L5.211,5.668L4.983,4.96L4.843,4.261L4.795,3.611L4.798,3.467L5.995,3.377L7.371,3.197L8.653,2.924L9.171,2.752L9.562,2.556zz" fill-rule="evenodd" fill="#3E79B4"/>
      <path d="M9.171,2.752L8.653,2.924L7.371,3.197L5.995,3.377L4.798,3.467L4.795,3.611L4.843,4.261L4.983,4.96L5.211,5.668L5.522,6.341L5.912,6.938L6.376,7.416L6.909,7.734L7.2,7.82L7.507,7.85L7.814,7.82L8.105,7.734L8.639,7.416L9.103,6.938L9.492,6.341L9.803,5.668L10.03,4.96L10.17,4.261L10.22,3.611L10.22,3.465L10,3.277L9.806,3.034L9.562,2.556zz" fill-rule="evenodd" fill="#FFFFFF"/>
      <path d="M6.788,12.83L6.597,14.51L7.51,14.71L7.794,14.66L8.048,13.74L8.254,13.04L7.727,12.65L7.03,12.13L6.866,11.97zz" fill-rule="evenodd" fill="#3E79B4"/>
    </g>
    <g id="overlay">
      <path d="M11.4956,7.0525c0.7721,-0.0019,0.9366,2.6749,1.3226,3.0187c0.386,0.3439,3.0477,-0.2904,3.1763,0.3782c0.1287,0.6686,-2.0713,1.7612,-2.2919,2.2961c-0.2206,0.5349,1.033,2.799,0.5734,3.2002c-0.4596,0.4012,-2.2107,-1.5552,-2.7805,-1.5552s-2.2843,1.8418,-2.7438,1.4979c-0.4596,-0.3439,0.6837,-2.6795,0.5367,-3.1762c-0.1471,-0.4967,-2.4319,-1.6133,-2.2918,-2.2628c0.14,-0.6495,2.6984,-0.0153,3.1211,-0.34C10.5406,9.7847,10.8522,7.0716,11.4956,7.0525" fill-rule="evenodd" fill="#EAB765"/>
    </g>
  </g>
</svg>
