<?xml version="1.0" encoding="UTF-8"?>
<!DOCTYPE svg PUBLIC "-//W3C//DTD SVG 1.1//EN" "http://www.w3.org/Graphics/SVG/1.1/DTD/svg11.dtd">
<svg version="1.1" id="Layer_1" xmlns="http://www.w3.org/2000/svg" xmlns:xlink="http://www.w3.org/1999/xlink" x="0px" y="0px" width="16px" height="16px" viewBox="0 0 16 16" enable-background="new 0 0 16 16" xml:space="preserve">
  <g id="main">
    <g id="icon">
      <path d="M0.5,14.49L1.875,13.12L3.15,14.49L4.426,13.12L5.701,14.49L6,14.17L6,13.07L6.028,12.75L6.112,12.43L6.25,12.13L6.439,11.85L6.969,11.34L7.687,10.92L7.684,10.85L7.684,9.742L7.711,9.414L7.79,9.106L7.918,8.819L8.09,8.553L8.556,8.081L9.159,7.693L9.871,7.39L10.66,7.172L11.51,7.041L12.38,6.996L13.46,7.067L13.5,7.074L13.5,0.4957L12.04,1.859L10.86,0.4957L9.588,1.859L8.313,0.4957L6.976,1.859L5.701,0.4957L4.426,1.859L3.15,0.4957L1.875,1.859L0.5,0.4957zz" fill="#FFFFFF"/>
      <path d="M0.2209,0.08105L0.02109,0.352L0,0.4957L0,14.49L0.1133,14.8L0.402,14.98L0.735,14.93L0.852,14.84L1.862,13.84L2.785,14.83L3.085,14.98L3.414,14.91L3.515,14.83L4.426,13.86L5.336,14.83L5.635,14.98L5.964,14.91L6.066,14.83L6.105,14.79L6.074,14.72L6,14.18L6,13.44L5.701,13.76L4.791,12.78L4.491,12.63L4.162,12.7L4.061,12.78L3.15,13.76L2.24,12.78L1.941,12.63L1.612,12.7L1.523,12.77L1,13.29L1,1.695L1.523,2.214L1.828,2.356L2.154,2.273L2.24,2.2L3.15,1.228L4.061,2.2L4.36,2.354L4.689,2.284L4.791,2.2L5.701,1.228L6.611,2.2L6.91,2.354L7.239,2.284L7.333,2.209L8.304,1.219L9.223,2.2L9.522,2.354L9.851,2.284L9.953,2.2L10.85,1.244L11.66,2.185L11.95,2.351L12.28,2.294L12.38,2.224L13,1.646L13,7.037L13.46,7.067L14,7.178L14,0.4957L13.89,0.1789L13.6,0.005469L13.27,0.05449L13.16,0.1301L12.08,1.138L11.24,0.1693L10.95,0.00332L10.62,0.06035L10.5,0.1541L9.588,1.127L8.678,0.1541L8.378,0.0001953L8.049,0.0707L7.955,0.1457L6.984,1.136L6.066,0.1541L5.766,0.0001953L5.437,0.0707L5.336,0.1543L4.426,1.127L3.515,0.1541L3.216,0.0001953L2.887,0.0707L2.785,0.1543L1.862,1.141L0.852,0.1406L0.5512,0L0.5395,0zz" fill="#797979"/>
      <path d="M2.09,3.09L2,3.308L2,4.692L2.09,4.91L2.308,5L11.69,5L11.91,4.91L12,4.692L12,3.308L11.91,3.09L11.69,3L2.308,3zz" fill="#3E79B4"/>
      <path d="M2.183,6.113L2.01,6.402L2.059,6.735L2.308,6.962L2.5,7L7.5,7L7.817,6.887L7.99,6.598L7.941,6.265L7.692,6.038L7.5,6L2.5,6zM2.183,8.113L2.01,8.402L2.059,8.735L2.308,8.962L2.5,9L7.5,9L7.817,8.887L7.99,8.598L7.941,8.265L7.692,8.038L7.5,8L2.5,8zz" fill="#B4B4B5"/>
      <path d="M9.183,6.113L9.01,6.402L9.059,6.735L9.308,6.962L9.5,7L11.5,7L11.82,6.887L11.99,6.598L11.94,6.265L11.69,6.038L11.5,6L9.5,6zz" fill="#939598"/>
    </g>
    <g id="overlay">
      <g>
        <path d="M14.2703,12.8362c-0.5995,0.1756,-1.2876,0.2843,-2.0034,0.2843c-1.8258,0,-3.3989,-0.7048,-3.8223,-1.4323C7.5734,12.0033,7,12.4985,7,13.0714c0,0.0337,0,0.9768,0,1.1064C7,15.1646,8.7072,16,10.7048,16c1.9976,0,3.611,-0.8354,3.611,-1.8222c0,-0.1575,0,-1.0316,0,-1.0583C14.3158,13.0231,14.2999,12.9285,14.2703,12.8362zM10.6064,14.7258c-1.9703,0.0375,-3.5977,-0.7064,-3.5405,-1.7002c0.2464,0.7393,1.6711,1.2908,3.4005,1.2908c1.9027,0,3.6943,-0.5097,3.6943,-1.3619c0,-0.0222,-0.0015,-0.0442,-0.004,-0.0662c0.0306,0.0844,0.0436,0.171,0.0468,0.259C14.238,14.0848,12.5749,14.6884,10.6064,14.7258z" fill-rule="evenodd" fill="#EAB765"/>
        <path d="M14.1606,12.9546c0,0.8521,-1.7916,1.3619,-3.6943,1.3619c-1.7294,0,-3.1541,-0.5515,-3.4005,-1.2908c-0.0572,0.9938,1.5702,1.7377,3.5405,1.7002c1.9685,-0.0375,3.6316,-0.6411,3.5971,-1.5784c-0.0032,-0.0881,-0.0162,-0.1747,-0.0468,-0.259C14.1591,12.9103,14.1606,12.9324,14.1606,12.9546z" fill-rule="evenodd" fill="#FFFFFF"/>
      </g>
      <g>
        <path d="M12.3849,7.9965c-1.999,0,-3.7007,0.7577,-3.7007,1.7452c0,0.0337,0,0.9768,0,1.1064c0,0.9868,1.7072,1.8222,3.7048,1.8222c1.9976,0,3.611,-0.8354,3.611,-1.8222c0,-0.1575,0,-1.0316,0,-1.0583C16,8.8024,14.3839,7.9965,12.3849,7.9965zM12.2899,11.3957c-1.9703,0.0375,-3.5977,-0.7064,-3.5405,-1.7002c0.2464,0.7393,1.6711,1.2908,3.4005,1.2908c1.9027,0,3.6943,-0.5097,3.6943,-1.3619c0,-0.0222,-0.0015,-0.0442,-0.004,-0.0662c0.0306,0.0844,0.0436,0.171,0.0468,0.259C15.9216,10.7546,14.2585,11.3582,12.2899,11.3957z" fill-rule="evenodd" fill="#EAB765"/>
        <path d="M15.8402,9.5583c0.0024,0.022,0.004,0.044,0.004,0.0662c0,0.8521,-1.7916,1.3619,-3.6943,1.3619c-1.7294,0,-3.1541,-0.5515,-3.4005,-1.2908c-0.0572,0.9938,1.5702,1.7377,3.5405,1.7002c1.9685,-0.0375,3.6316,-0.6411,3.5971,-1.5784C15.8838,9.7292,15.8709,9.6426,15.8402,9.5583z" fill-rule="evenodd" fill="#FFFFFF"/>
      </g>
    </g>
  </g>
</svg>
