<?xml version="1.0" encoding="UTF-8"?>
<!DOCTYPE svg PUBLIC "-//W3C//DTD SVG 1.1//EN" "http://www.w3.org/Graphics/SVG/1.1/DTD/svg11.dtd">
<svg version="1.1" id="Layer_1" xmlns="http://www.w3.org/2000/svg" xmlns:xlink="http://www.w3.org/1999/xlink" x="0px" y="0px" width="16px" height="16px" viewBox="0 0 16 16" enable-background="new 0 0 16 16" xml:space="preserve">
  <g id="main">
    <g id="icon">
      <path d="M6.925,1.772L6.805,1.785L6.419,1.843L5.927,2.001L5.449,2.239L5.049,2.521L4.688,2.871L4.388,3.262L4.157,3.685L4,4.129L3.977,4.221L4.158,4.473L4.292,4.753L4.375,5.052L4.403,5.365L4.403,6.723L4.405,6.724L4.939,6.878L5.064,6.897L5.129,6.905L5.454,6.785L5.801,6.743L6.429,6.743L6.722,6.772L6.995,6.855L7.242,6.987L7.457,7.162L7.635,7.374L7.77,7.616L7.854,7.884L7.884,8.172L7.854,8.46L7.77,8.728L7.635,8.971L7.457,9.182L7.242,9.357L6.995,9.488L6.722,9.572L6.429,9.601L5.801,9.601L5.487,9.567L5.194,9.47L5.163,9.708L5.056,9.912L4.86,10.09L4.562,10.23L2.404,10.91L1.087,11.34L0.6684,11.57L0.3678,11.88L0.1553,12.3L0,12.88L0.01445,13.52L0.1641,14.2L0.2576,14.36L0.4467,14.5L1.068,14.72L1.944,14.86L2.99,14.95L5.251,15L6.172,14.99L6.149,14.97L5.902,14.49L5.754,13.98L5.709,13.43L5.768,12.9L5.926,12.39L6.177,11.92L6.517,11.51L10.09,7.926L10.2,7.703L10.09,7.364L10.05,7.001L10.05,5.367L10.08,5.06L10.16,4.767L10.28,4.495L10.46,4.247L10.22,3.549L9.997,3.184L9.969,3.142L9.69,2.805L9.297,2.455L8.895,2.189L8.417,1.966L7.965,1.838L7.421,1.764L7.211,1.756zz" fill-rule="evenodd" fill="#797979"/>
      <path d="M6.428,0.03105L5.792,0.1695L5.171,0.3891L4.573,0.6861L4.007,1.057L3.548,1.451L3.137,1.914L2.779,2.438L2.48,3.017L2.262,3.613L2.131,4.221L2.117,4.394L2.107,4.526L2.106,4.545L1.895,4.695L1.734,4.89L1.632,5.118L1.596,5.367L1.596,7.002L1.673,7.367L1.884,7.665L2.196,7.866L2.577,7.94L2.806,7.902L3.011,7.792L3.453,8.036L4.186,8.265L4.833,8.405L5.172,8.444L5.248,8.447L5.262,8.447L5.485,8.673L5.801,8.757L6.43,8.757L6.668,8.711L6.862,8.586L6.993,8.4L7.041,8.173L6.993,7.946L6.862,7.76L6.668,7.635L6.43,7.589L5.802,7.589L5.555,7.639L5.351,7.78L5.052,7.748L4.96,7.736L4.743,7.701L4.133,7.525L3.554,7.303L3.451,7.25L3.433,7.241L3.466,7.002L3.466,5.367L3.447,5.123L3.384,4.901L3.263,4.709L3.076,4.559L3.079,4.518L3.184,3.919L3.383,3.351L3.675,2.813L4.053,2.317L4.508,1.875L5.01,1.52L5.6,1.224L6.197,1.03L6.712,0.9471L6.828,0.934L7.211,0.9119L7.481,0.9221L8.115,1.007L8.701,1.171L9.304,1.45L9.806,1.781L10.29,2.21L10.67,2.675L10.7,2.716L10.98,3.19L11.2,3.771L11.33,4.37L11.34,4.423L11.35,4.523L11.36,4.572L11.18,4.723L11.07,4.912L10.99,5.367L10.99,7.001L10.99,7.019L11.52,6.494L11.94,6.15L12.41,5.896L12.86,5.76L12.86,5.366L12.82,5.113L12.72,4.882L12.55,4.686L12.34,4.537L12.33,4.444L12.29,4.107L12.14,3.479L11.9,2.877L11.89,2.863L11.6,2.34L11.48,2.167L11.23,1.825L10.78,1.366L10.27,0.9449L9.711,0.601L9.114,0.324L8.142,0.06328L7.439,0L6.847,0zz" fill="#3E79B4"/>
    </g>
    <g id="overlay">
      <path d="M9.2295,16c-0.4614,0,-0.8909,-0.176,-1.2092,-0.4956l-0.8212,-0.8244c-0.3236,-0.3249,-0.4978,-0.7628,-0.4905,-1.233c0.0073,-0.4663,0.1907,-0.9033,0.5166,-1.2305l1.6569,-1.6626l-0.0166,0.1611c-0.0367,0.3557,0.0234,0.859,0.2422,1.1239l0.0332,0.0402l-1.1259,1.1287c-0.1135,0.114,-0.1827,0.2732,-0.1898,0.4367c-0.0073,0.1695,0.0508,0.3253,0.1638,0.4387l0.821,0.8198c0.1035,0.1039,0.2485,0.1588,0.4193,0.1588c0.1824,0,0.3462,-0.0636,0.4612,-0.179l2.3086,-2.3077c0.2314,-0.2324,0.2237,-0.6042,-0.0177,-0.8465l-0.8723,-0.8757l0.7895,-0.7926l0.8726,0.8761c0.6724,0.6752,0.6803,1.7658,0.0176,2.4311l-2.3085,2.3167C10.1538,15.8119,9.6978,16,9.2295,16zM9.9334,11.9475c-0.3265,-0.3277,-0.5084,-0.7601,-0.5123,-1.2174c-0.004,-0.4584,0.1717,-0.8894,0.4948,-1.2138l2.3085,-2.3167c0.3266,-0.3279,0.7825,-0.5159,1.2508,-0.5159c0.4615,0,0.8909,0.176,1.2092,0.4956l0.8212,0.8244c0.6693,0.672,0.6576,1.7771,-0.0261,2.4634l-1.657,1.6624l0.0166,-0.1611c0.0367,-0.3555,-0.0235,-0.859,-0.2422,-1.1242l-0.0331,-0.0402l1.1259,-1.1293c0.1135,-0.1139,0.1827,-0.2735,0.1899,-0.4378c0.0074,-0.1709,-0.0508,-0.3274,-0.1638,-0.4409l-0.8212,-0.8244c-0.1077,-0.1081,-0.2566,-0.1676,-0.4192,-0.1676c-0.1741,0,-0.3422,0.0685,-0.4612,0.188l-2.3085,2.3167c-0.113,0.1133,-0.1727,0.2637,-0.1681,0.4234c0.0045,0.1572,0.0705,0.3075,0.1857,0.4232l0.8723,0.8757l-0.7895,0.7926L9.9334,11.9475z" fill="#3E79B4"/>
    </g>
  </g>
</svg>
