<?xml version="1.0" encoding="UTF-8"?>
<!DOCTYPE svg PUBLIC "-//W3C//DTD SVG 1.1//EN" "http://www.w3.org/Graphics/SVG/1.1/DTD/svg11.dtd">
<svg version="1.1" id="Layer_1" xmlns="http://www.w3.org/2000/svg" xmlns:xlink="http://www.w3.org/1999/xlink" x="0px" y="0px" width="16px" height="16px" viewBox="0 0 16 16" enable-background="new 0 0 16 16" xml:space="preserve">
  <g id="main">
    <g id="icon">
      <path d="M4.741,7.996L5.007,8.552L4.409,8.778L2.382,9.503L1.751,9.801L1.338,10.1L1.118,10.4L0.9668,10.82L0.732,12.29L0.6199,13.14L0.6189,13.15L0.667,13.26L0.8939,13.44L1.475,13.7L2.567,13.98L4.325,14.23L6.473,14.38L7.455,14.4L8.451,14.38L10.63,14.23L10.79,14.21L10.85,11.05L10.43,10.76L10.07,10.44L9.752,10.09L9.49,9.722L9.284,9.329L9.132,8.916L9.037,8.483L9,8.033L9.001,8.01L8.792,8.202L8.131,8.055L7.507,8.011L6.776,8.04L6.108,8.167L5.603,7.685zz" fill-rule="evenodd" fill="#FFFFFF"/>
      <path d="M4.715,7.817L4.302,7.998L2.112,8.784L1.419,9.123L0.932,9.486L0.6047,9.917L0.3906,10.46L0.2439,11.17L0.118,12.08L0.009961,12.9L0.03496,13.27L0.227,13.61L0.4982,13.85L0.8635,14.06L1.815,14.4L2.963,14.65L4.188,14.82L6.387,14.97L7.456,15L8.54,14.97L10.77,14.82L10.78,14.81L10.8,13.84L10.53,13.88L8.428,14.02L7.455,14.05L6.495,14.02L4.42,13.88L2.728,13.64L1.695,13.38L1.162,13.14L0.9721,13L1.078,12.19L1.295,10.81L1.427,10.43L1.616,10.17L2.008,9.89L2.619,9.607L4.549,8.92L4.691,8.866L5.112,8.707L5.303,8.636L5.212,8.454L4.949,7.909L4.876,7.752zz" fill-rule="evenodd" fill="#3E79B4"/>
      <path d="M6.507,0.05938L5.719,0.2334L5.103,0.5158L4.64,0.9004L4.312,1.381L4.101,1.951L3.988,2.605L3.954,3.336L4.019,4.157L4.208,5.05L4.513,5.957L4.924,6.824L5.435,7.595L6.035,8.215L6.366,8.45L6.716,8.627L7.084,8.738L7.47,8.777L7.856,8.738L8.226,8.627L8.579,8.45L8.914,8.215L9.007,8.12L9,8.033L9.029,7.545L9.132,7.031L9.312,6.506L9.571,5.982L9.911,5.475L10.34,4.997L10.85,4.563L10.89,4.535L10.97,4.157L11.04,3.336L11.01,2.605L10.89,1.951L10.67,1.381L10.33,0.9004L9.861,0.5158L9.242,0.2334L8.455,0.05938L7.485,0zM9.646,3.059L9.83,3.299L10.03,3.485L10.03,3.63L9.987,4.272L9.856,4.963L9.643,5.662L9.353,6.327L8.989,6.917L8.556,7.39L8.058,7.704L7.787,7.789L7.5,7.818L7.213,7.789L6.942,7.704L6.444,7.39L6.011,6.917L5.647,6.327L5.357,5.662L5.144,4.963L5.013,4.272L4.969,3.63L4.972,3.487L6.089,3.398L7.374,3.22L8.57,2.951L9.053,2.781L9.418,2.587zz" fill-rule="evenodd" fill="#797979"/>
      <path d="M9.053,2.782L8.57,2.952L7.374,3.221L6.089,3.399L4.972,3.488L4.969,3.631L5.013,4.273L5.144,4.964L5.357,5.663L5.647,6.328L6.011,6.918L6.444,7.391L6.942,7.705L7.213,7.79L7.5,7.819L7.787,7.79L8.058,7.705L8.556,7.391L8.989,6.918L9.353,6.328L9.643,5.663L9.856,4.964L9.987,4.273L10.03,3.631L10.03,3.486L9.829,3.3L9.646,3.06L9.418,2.588zz" fill-rule="evenodd" fill="#FFFFFF"/>
    </g>
    <g id="overlay">
      <path d="M11.774,15.243l0.085,-4.778c-1.249,-0.599,-1.842,-1.48,-1.859,-2.449c-0.013,-0.77,0.438,-2.159,1.916,-2.945c0.023,-0.008,0.054,-0.016,0.084,-0.023l-0.005,2.887c-0.001,0.403,0.441,0.746,1.021,0.745c0.58,-0.001,0.99,-0.104,0.991,-0.734l-0.004,-2.898c0.027,0.005,0.057,0.011,0.076,0.017c1.464,0.705,1.922,2.038,1.92,2.943c-0.001,0.69,-0.546,1.883,-1.775,2.46l0.043,4.771c-0.001,0.396,-0.347,0.718,-0.774,0.718l-0.948,0.002C12.119,15.96,11.774,15.639,11.774,15.243zM13.031,15.216c0.304,0,0.55,-0.229,0.551,-0.511c0,-0.282,-0.245,-0.51,-0.549,-0.51c-0.304,0,-0.55,0.229,-0.551,0.511S12.727,15.217,13.031,15.216z" fill-rule="evenodd" fill="#797979"/>
    </g>
  </g>
</svg>
