<?xml version="1.0" encoding="UTF-8"?>
<!DOCTYPE svg PUBLIC "-//W3C//DTD SVG 1.1//EN" "http://www.w3.org/Graphics/SVG/1.1/DTD/svg11.dtd">
<svg version="1.1" id="Layer_1" xmlns="http://www.w3.org/2000/svg" xmlns:xlink="http://www.w3.org/1999/xlink" x="0px" y="0px" width="16px" height="16px" viewBox="0 0 16 16" enable-background="new 0 0 16 16" xml:space="preserve">
  <g id="main">
    <g id="icon">
      <path d="M0.2512,1.044L0.1521,1.092L0.08379,1.179L0.01621,1.524L0.003516,2.2L0,12.75L0.02051,13.34L0.1066,13.73L0.1861,13.85L0.2959,13.94L0.6258,14L6.992,14L7.395,13.21L7.238,13.04L6.937,12.87L6.547,12.73L5.57,12.55L4.45,12.47L3.33,12.45L2.353,12.48L1.4,12.53L1.4,1L0.5627,1zM13.6,5L15.04,5L15.04,2.407L15.02,1.7L14.95,1.283L14.88,1.158L14.77,1.076L14.44,1L13.6,1zz" fill="#3E79B4"/>
      <path d="M2.353,0.475L1.4,0.5332L1.4,12.53L2.353,12.48L3.33,12.45L4.45,12.47L5.57,12.55L6.547,12.73L6.937,12.87L7.238,13.04L7.395,13.21L7.5,13L7.5,12L7.418,12L7.106,11.96L6.824,11.83L6.586,11.63L6.407,11.37L6.306,11.08L6.291,10.77L6.36,10.47L6.513,10.19L7.5,8.847L7.5,1.299L7.431,1.082L7.238,0.9029L6.937,0.7586L6.547,0.6455L5.57,0.5006L4.45,0.4416zz" fill-rule="evenodd" fill="#FFFFFF"/>
      <path d="M1.37,0.03418L0.9,0.06289L0.9,0.5332L0.9,12.53L0.9,13.06L1.429,13.03L2.371,12.98L3.337,12.95L4.429,12.97L5.507,13.05L6.418,13.21L6.729,13.32L6.923,13.43L6.981,13.5L7.017,13.63L7.192,13.61L8,12.02L8,12L7.418,12L7.106,11.96L7,11.91L7,12.36L6.711,12.26L6.675,12.25L6.638,12.24L5.661,12.06L5.634,12.05L5.607,12.05L4.487,11.97L4.472,11.97L4.456,11.97L3.336,11.95L3.327,11.95L3.317,11.95L2.34,11.98L2.332,11.98L2.324,11.98L1.9,12L1.9,1.004L2.374,0.9746L4.44,0.9416L5.521,0.9988L6.441,1.135L6.758,1.227L6.954,1.321L6.995,1.359L7,1.376L7,9.527L8,8.166L8,1.299L8,1.222L7.977,1.149L7.908,0.9318L7.869,0.8053L7.771,0.7152L7.578,0.5359L7.522,0.4848L7.454,0.4521L7.154,0.3078L7.116,0.2898L7.076,0.2783L6.686,0.1652L6.654,0.1559L6.62,0.151L5.643,0.006055L5.62,0.002539L5.596,0.001367L5.571,0L1.929,0zz" fill="#797979"/>
      <path d="M9.43,0.5L8.453,0.6432L8.063,0.7553L7.762,0.8986L7.569,1.077L7.5,1.293L7.5,8.847L9.988,5.459L10.17,5.265L10.39,5.121L10.64,5.031L10.9,5L13.6,5L13.6,0.5367L12.65,0.4777L10.55,0.4424zM7.5,13L8.011,12L7.5,12zz" fill-rule="evenodd" fill="#FFFFFF"/>
      <path d="M9.404,0.0007813L9.381,0.001953L9.358,0.005273L8.381,0.1484L8.347,0.1533L8.315,0.1627L7.925,0.2746L7.885,0.2861L7.848,0.3039L7.547,0.4473L7.479,0.4795L7.424,0.5305L7.23,0.7086L7.132,0.7986L7.092,0.9254L7.023,1.141L7,1.215L7,1.293L7,9.527L8,8.166L8,1.37L8.005,1.355L8.045,1.318L8.241,1.224L8.559,1.133L9.479,0.9982L10.56,0.9426L12.63,0.9775L13.1,1.007L13.1,5L14.1,5L14.1,0.5367L14.1,0.0668L13.63,0.0377L13.02,0L9.42,0zM7,13.5L7.231,13.53L8,12.02L8,12L7.418,12L7.106,11.96L7,11.91zz" fill="#797979"/>
      <path d="M2.813,3L6.083,3L6.083,2L2.813,2zz" fill-rule="evenodd" fill="#BCBEC0"/>
      <path d="M9.001,3L12.27,3L12.27,2L9.001,2zz" fill-rule="evenodd" fill="#BCBEC0"/>
      <path d="M2.813,5L6.083,5L6.083,4L2.813,4zz" fill-rule="evenodd" fill="#BCBEC0"/>
      <path d="M9.001,5L10.9,5L12.27,5L12.27,4L9.001,4zz" fill-rule="evenodd" fill="#BCBEC0"/>
      <path d="M2.813,6.9L6.083,6.9L6.083,5.9L2.813,5.9zz" fill-rule="evenodd" fill="#BCBEC0"/>
      <path d="M9.001,6.803L9.665,5.9L9.001,5.9zz" fill-rule="evenodd" fill="#BCBEC0"/>
      <path d="M2.813,8.9L6.083,8.9L6.083,7.9L2.813,7.9zz" fill-rule="evenodd" fill="#BCBEC0"/>
      <path d="M2.813,10.9L6.083,10.9L6.083,9.9L2.813,9.9zz" fill-rule="evenodd" fill="#BCBEC0"/>
    </g>
    <g id="overlay">
      <path d="M12.4824,9.7475h2.4742c0.1227,0,0.1777,0.1539,0.0828,0.2317l-7.6472,5.9902c-0.109,0.0894,-0.2627,-0.0334,-0.1997,-0.1595l2.449,-4.8123H7.4183c-0.1076,0,-0.1691,-0.1228,-0.1046,-0.2089l3.4807,-4.7392c0.0247,-0.033,0.0634,-0.0524,0.1046,-0.0524h4.97c0.1186,0,0.1758,0.1453,0.0892,0.2262L12.4824,9.7475z" fill-rule="evenodd" fill="#EAB765"/>
    </g>
  </g>
</svg>
