<?xml version="1.0" encoding="UTF-8"?>
<!DOCTYPE svg PUBLIC "-//W3C//DTD SVG 1.1//EN" "http://www.w3.org/Graphics/SVG/1.1/DTD/svg11.dtd">
<svg version="1.1" id="Layer_1" xmlns="http://www.w3.org/2000/svg" xmlns:xlink="http://www.w3.org/1999/xlink" x="0px" y="0px" width="16px" height="16px" viewBox="0 0 16 16" enable-background="new 0 0 16 16" xml:space="preserve">
  <g id="main">
    <g id="icon">
      <path d="M0.2512,1.044L0.1521,1.092L0.08379,1.179L0.01621,1.524L0.003516,2.2L0,12.75L0.02051,13.34L0.1066,13.73L0.1861,13.85L0.2959,13.94L0.6258,14L9.675,14L8.681,12.99L8.414,12.72L8.063,12.86L7.762,13.04L7.569,13.25L7.5,13.5L7.431,13.25L7.238,13.04L6.937,12.87L6.547,12.73L5.57,12.55L4.45,12.47L3.33,12.45L2.353,12.48L1.4,12.53L1.4,1L0.5627,1zM13.6,6.36L13.89,6.512L14.62,6.126L14.87,6.033L15.04,6.013L15.04,2.407L15.02,1.7L14.95,1.283L14.88,1.158L14.77,1.076L14.44,1L13.6,1zz" fill="#3E79B4"/>
      <path d="M2.353,0.475L1.4,0.5332L1.4,12.53L2.353,12.48L3.33,12.45L4.45,12.47L5.57,12.55L6.547,12.73L6.937,12.87L7.238,13.04L7.431,13.25L7.5,13.5L7.5,11.79L6.439,10.72L6.256,10.49L6.12,10.23L6.033,9.951L6,9.658L6.025,9.353L6.108,9.063L6.245,8.795L6.433,8.56L7.5,7.476L7.5,1.299L7.431,1.082L7.238,0.9029L6.937,0.7586L6.547,0.6455L5.57,0.5006L4.45,0.4416zz" fill-rule="evenodd" fill="#FFFFFF"/>
      <path d="M1.37,0.03418L0.9,0.06289L0.9,0.5332L0.9,12.53L0.9,13.06L1.429,13.03L2.371,12.98L3.337,12.95L4.429,12.97L5.507,13.05L6.418,13.21L6.729,13.32L6.923,13.43L6.981,13.5L7.017,13.63L8,13.5L8,12.3L7,11.29L7,12.36L6.711,12.26L6.675,12.25L6.638,12.24L5.661,12.06L5.634,12.05L5.607,12.05L4.487,11.97L4.472,11.97L4.456,11.97L3.336,11.95L3.327,11.95L3.317,11.95L2.34,11.98L2.332,11.98L2.324,11.98L1.9,12L1.9,1.004L2.374,0.9746L4.44,0.9416L5.521,0.9988L6.441,1.135L6.758,1.227L6.954,1.321L6.995,1.359L7,1.376L7,7.984L7.522,7.454L7.743,7.27L7.996,7.131L8,7.129L8,1.299L8,1.222L7.977,1.149L7.908,0.9318L7.869,0.8053L7.771,0.7152L7.578,0.5359L7.522,0.4848L7.454,0.4521L7.154,0.3078L7.116,0.2898L7.076,0.2783L6.686,0.1652L6.654,0.1559L6.62,0.151L5.643,0.006055L5.62,0.002539L5.596,0.001367L5.571,0L1.929,0zz" fill="#797979"/>
      <path d="M9.43,0.5L8.453,0.6432L8.063,0.7553L7.762,0.8986L7.569,1.077L7.5,1.293L7.5,7.476L7.522,7.454L7.743,7.27L7.996,7.131L8.272,7.04L8.563,7.001L8.621,7L8.923,7.03L9.211,7.117L9.474,7.257L9.703,7.446L11.02,8.783L11.12,8.671L11.71,8.091L11.57,7.273L11.56,7.035L11.59,6.803L11.68,6.585L11.81,6.387L11.99,6.223L12.19,6.101L12.41,6.026L12.65,6L12.91,6.032L13.15,6.125L13.6,6.36L13.6,0.5367L12.65,0.4777L10.55,0.4424zM7.5,13.5L7.569,13.25L7.762,13.04L8.063,12.86L8.414,12.72L7.5,11.79zz" fill-rule="evenodd" fill="#FFFFFF"/>
      <path d="M9.404,0.0007813L9.381,0.001953L9.358,0.005273L8.381,0.1484L8.347,0.1533L8.315,0.1627L7.925,0.2746L7.885,0.2861L7.848,0.3039L7.547,0.4473L7.479,0.4795L7.424,0.5305L7.23,0.7086L7.132,0.7986L7.092,0.9254L7.023,1.141L7,1.215L7,1.293L7,7.984L7.522,7.454L7.743,7.27L7.996,7.131L8,7.129L8,1.37L8.005,1.355L8.045,1.318L8.241,1.224L8.559,1.133L9.479,0.9982L10.56,0.9426L12.63,0.9775L13.1,1.007L13.1,6.105L13.15,6.125L13.89,6.512L14.1,6.401L14.1,0.5367L14.1,0.0668L13.63,0.0377L13.02,0L9.42,0zM7,13.5L7.982,13.63L8.019,13.5L8.083,13.43L8.284,13.31L8.602,13.18L8.82,13.13L8.681,12.99L8.032,12.33L8,12.35L8,12.3L7,11.29zz" fill="#797979"/>
      <path d="M2.813,3L6.083,3L6.083,2L2.813,2zz" fill-rule="evenodd" fill="#BCBEC0"/>
      <path d="M9.001,3L12.27,3L12.27,2L9.001,2zz" fill-rule="evenodd" fill="#BCBEC0"/>
      <path d="M2.813,5L6.083,5L6.083,4L2.813,4zz" fill-rule="evenodd" fill="#BCBEC0"/>
      <path d="M9.001,5L12.27,5L12.27,4L9.001,4zz" fill-rule="evenodd" fill="#BCBEC0"/>
      <path d="M2.813,6.9L6.083,6.9L6.083,5.9L2.813,5.9zz" fill-rule="evenodd" fill="#BCBEC0"/>
      <path d="M9.001,6.9L11.58,6.9L11.59,6.803L11.68,6.585L11.81,6.387L11.99,6.223L12.19,6.101L12.27,6.072L12.27,5.9L9.001,5.9zz" fill-rule="evenodd" fill="#BCBEC0"/>
      <path d="M2.813,8.9L6.083,8.9L6.083,7.9L2.813,7.9zz" fill-rule="evenodd" fill="#BCBEC0"/>
      <path d="M11.02,8.783L11.12,8.671L11.71,8.091L11.68,7.9L10.15,7.9zz" fill-rule="evenodd" fill="#BCBEC0"/>
      <path d="M2.813,10.9L6.083,10.9L6.083,10.11L6.033,9.951L6.027,9.9L2.813,9.9zz" fill-rule="evenodd" fill="#BCBEC0"/>
    </g>
    <g id="overlay">
      <path d="M8.439,8.363L7.35,9.469c-0.084,0.085,-0.082,0.249,0.006,0.338l2.036,2.069l1.43,-1.452L8.786,8.355C8.698,8.266,8.524,8.278,8.439,8.363z" fill="#FFFFFF"/>
      <path d="M13.93,7.62l1.159,-0.609c0.065,-0.034,0.142,0.021,0.129,0.094l-0.221,1.291c-0.005,0.029,0.005,0.058,0.026,0.079l0.938,0.914c0.053,0.051,0.024,0.141,-0.049,0.152l-1.296,0.188c-0.029,0.004,-0.054,0.022,-0.067,0.049l-0.58,1.174c-0.033,0.066,-0.127,0.066,-0.16,0l-0.58,-1.174c-0.013,-0.026,-0.038,-0.044,-0.067,-0.049l-1.296,-0.188c-0.073,-0.011,-0.102,-0.1,-0.049,-0.152l0.938,-0.914c0.021,-0.02,0.031,-0.05,0.026,-0.079l-0.221,-1.291c-0.012,-0.073,0.064,-0.128,0.129,-0.094l1.159,0.609C13.873,7.633,13.904,7.633,13.93,7.62z" fill="#EAB765"/>
      <path d="M7,9.642c0.002,0.141,0.058,0.277,0.152,0.373l1.832,1.861l0.408,0.415l3.66,3.709h2.961v-0.717l-4.783,-4.86l-0.408,-0.415L8.99,8.148c-0.098,-0.099,-0.24,-0.153,-0.389,-0.147c-0.14,0.005,-0.274,0.062,-0.366,0.155L7.146,9.262C7.051,9.359,6.998,9.497,7,9.642zM7.595,9.636l1.021,-1.037l1.797,1.826l-1.021,1.037L7.595,9.636z" fill="#797979"/>
    </g>
  </g>
</svg>
