<?xml version="1.0" encoding="UTF-8"?>
<!DOCTYPE svg PUBLIC "-//W3C//DTD SVG 1.1//EN" "http://www.w3.org/Graphics/SVG/1.1/DTD/svg11.dtd">
<svg version="1.1" id="Layer_1" xmlns="http://www.w3.org/2000/svg" xmlns:xlink="http://www.w3.org/1999/xlink" x="0px" y="0px" width="16px" height="16px" viewBox="0 0 16 16" enable-background="new 0 0 16 16" xml:space="preserve">
  <g id="main">
    <g id="icon">
      <path d="M1.397,0.05117L1.19,0.1904L1.051,0.3971L1,0.65L1,7.457L1.048,7.304L1.333,6.844L1.698,6.501L2,6.328L2,1L2.5,1L13,1L13,13L9.919,13L9.937,13.01L10.23,13.21L10.47,13.44L10.67,13.73L10.79,14L13.35,14L13.6,13.95L13.81,13.81L13.95,13.6L14,13.35L14,0.65L13.95,0.3971L13.81,0.1904L13.6,0.05117L13.35,0L1.65,0zM1,10.57L1.233,10.49L1,9.813zz" fill="#3E79B4"/>
      <path d="M2,6.328L2.121,6.259L2.582,6.105L3.062,6.024L3.539,6L4.208,6.046L4.763,6.176L5.216,6.379L5.575,6.64L5.85,6.95L6.051,7.295L6.188,7.663L6.27,8.043L6.448,8.04L6.45,8.04L7.09,8.082L7.648,8.209L8.124,8.419L8.516,8.711L8.823,9.083L9.044,9.535L9.177,10.07L9.222,10.67L9.192,11.13L9.105,11.6L8.784,12.53L9.601,12.84L9.919,13L13,13L13,1L2,1zz" fill="#FFFFFF"/>
      <path d="M3.183,2.113L3.01,2.402L3.059,2.735L3.308,2.962L3.5,3L7.5,3L7.817,2.887L7.99,2.598L7.941,2.265L7.692,2.038L7.5,2L3.5,2zM3.183,4.113L3.01,4.402L3.059,4.735L3.308,4.962L3.5,5L7.5,5L7.817,4.887L7.99,4.598L7.941,4.265L7.692,4.038L7.5,4L3.5,4zM3.494,6.002L3.539,6L3.5,6zM3.539,6L4.208,6.046L4.763,6.176L5.216,6.379L5.575,6.64L5.85,6.95L5.879,7L7.5,7L7.817,6.887L7.99,6.598L7.941,6.265L7.692,6.038L7.5,6L3.539,6zM6.27,8.043L6.448,8.04L6.45,8.04L7.09,8.082L7.648,8.209L7.953,8.344L7.941,8.265L7.692,8.038L7.5,8L6.261,8zz" fill="#B4B4B5"/>
      <path d="M9.183,2.113L9.01,2.402L9.059,2.735L9.308,2.962L9.5,3L11.5,3L11.82,2.887L11.99,2.598L11.94,2.265L11.69,2.038L11.5,2L9.5,2zM9.183,6.113L9.01,6.402L9.059,6.735L9.308,6.962L9.5,7L11.5,7L11.82,6.887L11.99,6.598L11.94,6.265L11.69,6.038L11.5,6L9.5,6zz" fill="#CD4C32"/>
      <path d="M9.183,4.113L9.01,4.402L9.059,4.735L9.308,4.962L9.5,5L11.5,5L11.82,4.887L11.99,4.598L11.94,4.265L11.69,4.038L11.5,4L9.5,4zM9.183,8.113L9.01,8.402L9.059,8.735L9.308,8.962L9.5,9L11.5,9L11.82,8.887L11.99,8.598L11.94,8.265L11.69,8.038L11.5,8L9.5,8zM9.183,10.11L9.181,10.12L9.222,10.67L9.209,10.87L9.308,10.96L9.5,11L11.5,11L11.82,10.89L11.99,10.6L11.94,10.27L11.69,10.04L11.5,10L9.5,10zz" fill="#797979"/>
    </g>
    <g id="overlay">
      <path d="M9.884,15.615c-0.16,0.441,-2.446,0.383,-3.435,0.383c-0.007,0,0.004,0,0,0c-0.989,0,-3.249,0.058,-3.409,-0.383c-0.142,-0.391,-0.133,-0.539,-0.08,-0.893c0.177,-0.879,0.493,-0.894,2.219,-1.492c0.252,-0.093,0.324,-0.227,0.305,-0.418c-0.487,-0.571,-0.779,-1.493,-0.779,-2.139c0,-1,0.319,-1.633,1.743,-1.633c0.002,0,-0.006,0,0,0c1.424,0,1.772,0.633,1.772,1.633c0,0.646,-0.293,1.569,-0.78,2.14c-0.019,0.191,0.052,0.324,0.304,0.417c1.726,0.598,2.041,0.613,2.219,1.491C10.018,15.076,10.026,15.223,9.884,15.615zM4.468,12.749c0.036,-0.012,0.072,-0.025,0.11,-0.037c-0.348,-0.616,-0.569,-1.382,-0.569,-2.039c0,-1.141,0.428,-1.852,1.3,-2.152c-0.027,-0.935,-0.4,-1.521,-1.77,-1.521c-1.424,0,-1.743,0.633,-1.743,1.633c0,0.646,0.292,1.568,0.779,2.139c0.019,0.191,-0.053,0.325,-0.305,0.418c-1.726,0.598,-2.042,0.613,-2.219,1.492c-0.053,0.353,-0.062,0.501,0.08,0.893c0.115,0.317,1.319,0.376,2.353,0.384C2.808,13.315,3.412,13.109,4.468,12.749z" fill-rule="evenodd" fill="#3E79B4"/>
    </g>
  </g>
</svg>
