<?xml version="1.0" encoding="UTF-8"?>
<!DOCTYPE svg PUBLIC "-//W3C//DTD SVG 1.1//EN" "http://www.w3.org/Graphics/SVG/1.1/DTD/svg11.dtd">
<svg version="1.1" id="Layer_1" xmlns="http://www.w3.org/2000/svg" xmlns:xlink="http://www.w3.org/1999/xlink" x="0px" y="0px" width="16px" height="16px" viewBox="0 0 16 16" enable-background="new 0 0 16 16" xml:space="preserve">
  <g id="icon">
    <path d="M10.038,6c1.095,0.441,1.649,1.407,1.649,2.889c0,0.717,-0.193,1.532,-0.511,2.258c0.535,0.252,0.933,0.533,1.228,0.932c0.272,0.126,0.504,0.26,0.701,0.421H14.2c0.693,0,1.3,-0.6,1.3,-1.3V6H10.038z" fill="#FFFFFF"/>
    <path d="M2,8.846v-0.071c0.01,0.02,0.02,0.04,0.031,0.06C2.02,8.839,2.01,8.843,2,8.846zM2,2v1.975c0.259,-0.305,0.592,-0.537,1,-0.697V3h2.134c0.27,-0.033,0.557,-0.05,0.863,-0.05c0,0,0.002,0,0.004,0c0.31,0,0.6,0.017,0.873,0.05H15v8.2c0,0.419,-0.381,0.8,-0.8,0.8h-1.854c0.021,0.026,0.041,0.053,0.061,0.081c0.51,0.236,0.878,0.503,1.139,0.919H14.2c0.976,0,1.8,-0.824,1.8,-1.8V2H2z" fill="#797979"/>
    <path d="M14.66,0.5H3.34C2.9,0.5,2.5,0.86,2.5,1.3v1.2h13V1.3C15.5,0.86,15.1,0.5,14.66,0.5z" fill-rule="evenodd" fill="#8C53A1" stroke="#8C53A1" stroke-width="1" stroke-miterlimit="10"/>
    <path d="M3,3.278V3h0.873c0.085,0.01,0.167,0.023,0.249,0.036C3.701,3.07,3.326,3.15,3,3.278zM5.134,3c-0.061,0.007,-0.12,0.018,-0.179,0.027C6.48,3.114,7.417,3.777,7.756,5H15V3H5.134z" fill="#F1F0F0"/>
    <path d="M15,5v1h-4.962c-0.458,-0.184,-1.009,-0.278,-1.655,-0.278c-0.001,0,-0.003,0,-0.003,0c-0.172,0,-0.336,0.007,-0.494,0.02c-0.021,-0.268,-0.066,-0.514,-0.13,-0.743H15zM13.5,7h-2.259c0.173,0.286,0.296,0.619,0.368,1H13.5V7zM11.238,11H14V9h-2.315C11.668,9.641,11.503,10.35,11.238,11z" fill="#B3B3B3"/>
    <path d="M12.849,15.444c-0.208,0.584,-3.181,0.508,-4.467,0.508c-0.009,0,0.005,0,0,0c-1.286,0,-4.225,0.076,-4.433,-0.508c-0.185,-0.519,-0.173,-0.716,-0.104,-1.184c0.231,-1.166,0.641,-1.186,2.886,-1.979c0.328,-0.123,0.421,-0.302,0.396,-0.555c-0.633,-0.757,-1.013,-1.98,-1.013,-2.837c0,-1.326,0.415,-2.167,2.267,-2.167c0.002,0,-0.008,0,0,0c1.852,0,2.305,0.84,2.305,2.167c0,0.857,-0.381,2.082,-1.014,2.839c-0.025,0.253,0.068,0.43,0.396,0.553c2.244,0.793,2.654,0.813,2.885,1.978C13.023,14.728,13.034,14.924,12.849,15.444zM5.806,11.643c0.047,-0.016,0.094,-0.033,0.143,-0.05c-0.452,-0.817,-0.74,-1.833,-0.74,-2.704c0,-1.513,0.556,-2.457,1.691,-2.855c-0.034,-1.24,-0.521,-2.017,-2.302,-2.017c-1.852,0,-2.267,0.84,-2.267,2.167c0,0.857,0.38,2.079,1.013,2.837c0.025,0.253,-0.069,0.431,-0.396,0.555c-2.244,0.793,-2.655,0.813,-2.886,1.979c-0.069,0.468,-0.081,0.665,0.104,1.184c0.15,0.421,1.715,0.499,3.06,0.51C3.647,12.393,4.433,12.12,5.806,11.643z" fill-rule="evenodd" fill="#3E79B4"/>
  </g>
</svg>
