<?xml version="1.0" encoding="UTF-8"?>
<!DOCTYPE svg PUBLIC "-//W3C//DTD SVG 1.1//EN" "http://www.w3.org/Graphics/SVG/1.1/DTD/svg11.dtd">
<svg version="1.1" id="Layer_1" xmlns="http://www.w3.org/2000/svg" xmlns:xlink="http://www.w3.org/1999/xlink" x="0px" y="0px" width="32px" height="32px" viewBox="0 0 32 32" enable-background="new 0 0 32 32" xml:space="preserve">
  <g id="main">
    <g id="icon">
      <path d="M5.038,0.02637L4.794,0.1021L4.381,0.3807L4.102,0.7939L4.026,1.038L4,1.3L4,16.23L4.768,16.06L5.663,16L6,16.02L6,2L7,2L28,2L28,28L16.13,28L16.25,28.12L16.54,28.53L16.76,29.04L16.93,29.68L16.93,29.7L16.93,29.72L16.97,30L28.7,30L28.96,29.97L29.21,29.9L29.62,29.62L29.9,29.21L29.97,28.96L30,28.7L30,1.3L29.97,1.038L29.9,0.7939L29.62,0.3807L29.21,0.1021L28.96,0.02637L28.7,0L5.3,0zz" fill="#3E79B4"/>
      <path d="M6,16.02L6.537,16.05L7.297,16.21L7.943,16.48L8.476,16.85L8.896,17.34L9.206,17.93L9.404,18.63L9.493,19.45L10.32,19.4L10.32,19.4L11.23,19.46L12.01,19.63L12.67,19.92L13.21,20.32L13.62,20.84L13.92,21.48L14.1,22.24L14.16,23.12L14.1,23.9L13.92,24.78L13.61,25.7L13.18,26.6L13.5,26.72L14.9,27.24L15.44,27.49L15.89,27.78L16.13,28L28,28L28,2L6,2zz" fill="#FFFFFF"/>
      <path d="M8.183,4.113L8.01,4.402L8.059,4.735L8.308,4.962L8.5,5L18.5,5L18.82,4.887L18.99,4.598L18.94,4.265L18.69,4.038L18.5,4L8.5,4zM8.183,7.113L8.01,7.402L8.059,7.735L8.308,7.962L8.5,8L18.5,8L18.82,7.887L18.99,7.598L18.94,7.265L18.69,7.038L18.5,7L8.5,7zM8.183,10.11L8.01,10.4L8.059,10.73L8.308,10.96L8.5,11L18.5,11L18.82,10.89L18.99,10.6L18.94,10.27L18.69,10.04L18.5,10L8.5,10zM8.183,13.11L8.01,13.4L8.059,13.73L8.308,13.96L8.5,14L18.5,14L18.82,13.89L18.99,13.6L18.94,13.27L18.69,13.04L18.5,13L8.5,13zM8.183,16.11L8.01,16.4L8.03,16.54L8.476,16.85L8.603,17L18.5,17L18.82,16.89L18.99,16.6L18.94,16.27L18.69,16.04L18.5,16L8.5,16zM9.493,19.45L10.32,19.4L10.32,19.4L11.23,19.46L12.01,19.63L12.67,19.92L12.78,20L18.5,20L18.82,19.89L18.99,19.6L18.94,19.27L18.69,19.04L18.5,19L9.444,19zM14.1,22.24L14.15,23L18.5,23L18.82,22.89L18.99,22.6L18.94,22.27L18.69,22.04L18.5,22L14.04,22zM13.61,25.7L13.47,26L18.5,26L18.82,25.89L18.99,25.6L18.94,25.27L18.69,25.04L18.5,25L13.84,25zz" fill="#B4B4B5"/>
      <path d="M21.18,4.113L21.01,4.402L21.06,4.735L21.31,4.962L21.5,5L25.5,5L25.82,4.887L25.99,4.598L25.94,4.265L25.69,4.038L25.5,4L21.5,4zM21.18,10.11L21.01,10.4L21.06,10.73L21.31,10.96L21.5,11L25.5,11L25.82,10.89L25.99,10.6L25.94,10.27L25.69,10.04L25.5,10L21.5,10zM21.18,19.11L21.01,19.4L21.06,19.73L21.31,19.96L21.5,20L25.5,20L25.82,19.89L25.99,19.6L25.94,19.27L25.69,19.04L25.5,19L21.5,19zM21.18,25.11L21.01,25.4L21.06,25.73L21.31,25.96L21.5,26L25.5,26L25.82,25.89L25.99,25.6L25.94,25.27L25.69,25.04L25.5,25L21.5,25zz" fill="#CD4C32"/>
      <path d="M21.18,7.113L21.01,7.402L21.06,7.735L21.31,7.962L21.5,8L25.5,8L25.82,7.887L25.99,7.598L25.94,7.265L25.69,7.038L25.5,7L21.5,7zM21.18,13.11L21.01,13.4L21.06,13.73L21.31,13.96L21.5,14L25.5,14L25.82,13.89L25.99,13.6L25.94,13.27L25.69,13.04L25.5,13L21.5,13zM21.18,16.11L21.01,16.4L21.06,16.73L21.31,16.96L21.5,17L25.5,17L25.82,16.89L25.99,16.6L25.94,16.27L25.69,16.04L25.5,16L21.5,16zM21.18,22.11L21.01,22.4L21.06,22.73L21.31,22.96L21.5,23L25.5,23L25.82,22.89L25.99,22.6L25.94,22.27L25.69,22.04L25.5,22L21.5,22zz" fill="#797979"/>
    </g>
    <g id="overlay">
      <path d="M15.815,31.352c-0.256,0.734,-3.913,0.638,-5.495,0.638c-0.011,0,0.006,0,0,0c-1.582,0,-5.197,0.096,-5.453,-0.638c-0.227,-0.652,-0.213,-0.899,-0.128,-1.487c0.284,-1.464,0.789,-1.489,3.55,-2.485c0.403,-0.155,0.518,-0.379,0.488,-0.697c-0.779,-0.951,-1.246,-2.487,-1.246,-3.563c0,-1.666,0.51,-2.721,2.789,-2.721c0.003,0,-0.009,0,0,0c2.279,0,2.835,1.055,2.835,2.721c0,1.076,-0.469,2.615,-1.248,3.566c-0.03,0.318,0.084,0.54,0.487,0.695c2.761,0.996,3.266,1.021,3.549,2.485C16.028,30.454,16.042,30.7,15.815,31.352zM7.297,27.013c0.216,-0.077,0.45,-0.16,0.704,-0.251c-0.778,-1.148,-1.136,-2.648,-1.136,-3.643c0,-0.698,0.074,-1.711,0.709,-2.438c0.242,-0.277,0.544,-0.492,0.911,-0.648c0.008,-0.107,0.013,-0.212,0.013,-0.312c0,-1.666,-0.556,-2.721,-2.835,-2.721c-2.279,0,-2.789,1.055,-2.789,2.721c0,1.076,0.467,2.612,1.246,3.563c0.03,0.318,-0.085,0.542,-0.488,0.697c-2.761,0.996,-3.266,1.021,-3.55,2.485c-0.085,0.588,-0.1,0.835,0.128,1.487c0.203,0.584,2.533,0.642,4.273,0.642C4.939,27.849,5.75,27.562,7.297,27.013z" fill-rule="evenodd" fill="#3E79B4"/>
    </g>
  </g>
</svg>
