<?xml version="1.0" encoding="UTF-8"?>
<!DOCTYPE svg PUBLIC "-//W3C//DTD SVG 1.1//EN" "http://www.w3.org/Graphics/SVG/1.1/DTD/svg11.dtd">
<svg version="1.1" id="Layer_1" xmlns="http://www.w3.org/2000/svg" xmlns:xlink="http://www.w3.org/1999/xlink" x="0px" y="0px" width="16px" height="16px" viewBox="0 0 16 16" enable-background="new 0 0 16 16" xml:space="preserve">
  <g id="icon">
    <path d="M7.9928,0.1C3.6337,0.1,0.1,3.6337,0.1,7.9928c0,4.3591,3.5337,7.8928,7.8928,7.8928s7.8928,-3.5337,7.8928,-7.8928C15.8856,3.6337,12.3518,0.1,7.9928,0.1zM7.9928,14.6798c-3.6931,0,-6.687,-2.9939,-6.687,-6.687c0,-3.6931,2.9939,-6.687,6.687,-6.687s6.687,2.9939,6.687,6.687C14.6798,11.6859,11.6859,14.6798,7.9928,14.6798z" fill-rule="evenodd" fill="#797979"/>
    <path d="M7.9928,1.3058c3.6931,0,6.687,2.9939,6.687,6.687c0,3.6931,-2.9939,6.687,-6.687,6.687c-3.6931,0,-6.687,-2.9939,-6.687,-6.687C1.3058,4.2997,4.2997,1.3058,7.9928,1.3058z" fill-rule="evenodd" fill="#FFFFFF"/>
    <path d="M6.7001,8.2184c-0.0027,0.6788,0.073,0.9891,0.7517,0.9919c0.6788,0.0027,0.689,-0.378,0.6917,-1.0567c0.0027,-0.6788,-0.227,-4.9645,-0.6668,-4.9663C7.0369,3.1854,6.7028,7.5396,6.7001,8.2184z" fill-rule="evenodd" fill="#3E79B4"/>
    <path d="M8.0258,7.8301c-0.829,-0.0036,-1.1725,0.0764,-1.1751,0.7551C6.8482,9.264,7.0636,9.2964,7.8926,9.3c0.829,0.0036,5.322,-0.3602,5.3237,-0.8C13.218,8.0602,8.8548,7.8337,8.0258,7.8301z" fill-rule="evenodd" fill="#3E79B4"/>
    <path d="M8.4,13.856c0,0.1347,-0.1092,0.244,-0.244,0.244H8.044c-0.1347,0,-0.244,-0.1092,-0.244,-0.244V12.244c0,-0.1347,0.1092,-0.244,0.244,-0.244h0.1121c0.1347,0,0.244,0.1092,0.244,0.244V13.856zM12.4599,3.6277l-0.0797,-0.0796c-0.0458,-0.0459,-0.1071,-0.0711,-0.1725,-0.0711s-0.1267,0.0253,-0.1725,0.0711L10.947,4.6362c-0.0951,0.0951,-0.0951,0.2499,0,0.345l0.0796,0.0796c0.0916,0.0916,0.2533,0.0916,0.3451,0l1.0882,-1.0882C12.5549,3.8776,12.5549,3.7228,12.4599,3.6277zM5.2156,10.9739l-0.0797,-0.0796c-0.0458,-0.0459,-0.1071,-0.0711,-0.1725,-0.0711c-0.0654,0,-0.1267,0.0253,-0.1725,0.0711l-1.0882,1.0881c-0.0951,0.0951,-0.0951,0.2499,0,0.345l0.0796,0.0796c0.0916,0.0916,0.2533,0.0916,0.3451,0l1.0882,-1.0882C5.3107,11.2238,5.3107,11.069,5.2156,10.9739zM11.9601,12.4138c0.0916,0.0916,0.2533,0.0916,0.345,0l0.0797,-0.0797c0.0951,-0.0951,0.0951,-0.2499,0,-0.345l-1.0882,-1.0882c-0.0458,-0.0458,-0.1071,-0.071,-0.1725,-0.071c-0.0655,0,-0.1267,0.0252,-0.1726,0.071l-0.0796,0.0796c-0.0951,0.0952,-0.0951,0.2499,0,0.3451L11.9601,12.4138zM4.1,8.044c0,-0.1347,-0.1092,-0.244,-0.244,-0.244H2.244C2.1092,7.8,2,7.9092,2,8.044v0.1121c0,0.1347,0.1092,0.244,0.244,0.244H3.856c0.1347,0,0.244,-0.1092,0.244,-0.244V8.044zM4.1654,3.6196c-0.0458,-0.0458,-0.1071,-0.0711,-0.1725,-0.0711c-0.0654,0,-0.1267,0.0253,-0.1725,0.0711l-0.0796,0.0796c-0.0951,0.0951,-0.0951,0.2499,0,0.345l1.0882,1.0881c0.0917,0.0916,0.2533,0.0917,0.345,0l0.0796,-0.0796c0.0951,-0.0951,0.0951,-0.2499,0,-0.345L4.1654,3.6196z" fill="#B4B4B5"/>
  </g>
</svg>
