<?xml version="1.0" encoding="UTF-8"?>
<!DOCTYPE svg PUBLIC "-//W3C//DTD SVG 1.1//EN" "http://www.w3.org/Graphics/SVG/1.1/DTD/svg11.dtd">
<svg version="1.1" id="Layer_1" xmlns="http://www.w3.org/2000/svg" xmlns:xlink="http://www.w3.org/1999/xlink" x="0px" y="0px" width="16px" height="16px" viewBox="0 0 16 16" enable-background="new 0 0 16 16" xml:space="preserve">
  <g id="icon">
    <g>
      <path d="M3.0168,11.232c-0.914,0,-1.655,0.7741,-1.655,1.7291c0,0.955,0.741,1.7291,1.655,1.7291c0.9141,0,1.655,-0.7742,1.655,-1.7291C4.6719,12.0061,3.9309,11.232,3.0168,11.232zM3.0168,13.6275c-0.3523,0,-0.6379,-0.2984,-0.6379,-0.6664c0,-0.3681,0.2856,-0.6664,0.6379,-0.6664c0.3523,0,0.6379,0.2984,0.6379,0.6664C3.6547,13.3292,3.3691,13.6275,3.0168,13.6275z" fill="#797979"/>
      <path d="M12.6947,11.232c-0.9141,0,-1.6551,0.7741,-1.6551,1.7291c0,0.955,0.741,1.7291,1.6551,1.7291c0.914,0,1.655,-0.7742,1.655,-1.7291C14.3497,12.0061,13.6087,11.232,12.6947,11.232zM12.6947,13.6275c-0.3523,0,-0.6379,-0.2984,-0.6379,-0.6664c0,-0.3681,0.2856,-0.6664,0.6379,-0.6664c0.3523,0,0.6379,0.2984,0.6379,0.6664C13.3326,13.3292,13.047,13.6275,12.6947,13.6275z" fill="#797979"/>
    </g>
    <path d="M5.07,5H1.69c-0.2309,0,-0.2439,0.1108,-0.4181,0.3997c-0.1742,0.2888,-0.4598,0.9127,-1.1915,2.393C0.0261,7.904,0,8.1622,0,8.3566c0,1.5043,0,4.224,0,4.224C0,12.8199,0.2395,13,0.4704,13h0.264c-0.0004,0,-0.0026,-0.0018,-0.0026,-0.0201c0,-1.2862,1.0062,-2.3725,2.2475,-2.3725c1.2458,0,2.2548,1.0588,2.2475,2.3513c0.0006,0.0003,0.0004,0.0003,0.001,0.0006c0.1342,-0.0816,0.2722,-0.2607,0.2722,-0.4394V5.3661C5.5,5.1268,5.301,5,5.07,5zM4.6,8.4H0.8v-0.6195L1.6994,5.8H4.6V8.4zM16,3.7864V13h-1.0286c0,-1.3205,-1.0048,-2.3946,-2.2444,-2.3946c-1.2395,0,-2.2444,1.0741,-2.2444,2.3946H6V3.7864C6,3.3104,6.5025,3,6.9602,3h8.2528C15.6707,3,16,3.3104,16,3.7864z" fill="#3E79B4"/>
    <path d="M12.6947,12.2947c-0.3523,0,-0.6379,0.2984,-0.6379,0.6664c0,0.3681,0.2856,0.6664,0.6379,0.6664c0.3523,0,0.6379,-0.2984,0.6379,-0.6664C13.3326,12.593,13.047,12.2947,12.6947,12.2947zM3.0168,12.2947c-0.3523,0,-0.6379,0.2984,-0.6379,0.6664c0,0.3681,0.2856,0.6664,0.6379,0.6664c0.3523,0,0.6379,-0.2984,0.6379,-0.6664C3.6547,12.593,3.3691,12.2947,3.0168,12.2947zM4.6,8.4H0.8v-0.6195L1.6994,5.8H4.6V8.4z" fill-rule="evenodd" fill="#FFFFFF"/>
  </g>
</svg>
