<?xml version="1.0" encoding="UTF-8"?>
<!DOCTYPE svg PUBLIC "-//W3C//DTD SVG 1.1//EN" "http://www.w3.org/Graphics/SVG/1.1/DTD/svg11.dtd">
<svg version="1.1" id="Layer_1" xmlns="http://www.w3.org/2000/svg" xmlns:xlink="http://www.w3.org/1999/xlink" x="0px" y="0px" width="16px" height="16px" viewBox="0 0 16 16" enable-background="new 0 0 16 16" xml:space="preserve">
  <g id="main">
    <g id="icon">
      <g>
        <path d="M2.683,10.27L2.373,10.37L2.091,10.53L1.846,10.74L1.645,10.99L1.492,11.29L1.396,11.61L1.362,11.96L1.396,12.31L1.492,12.63L1.645,12.93L1.846,13.18L2.091,13.39L2.373,13.55L2.683,13.66L3.017,13.69L3.35,13.66L3.661,13.55L3.942,13.39L4.187,13.18L4.389,12.93L4.542,12.63L4.638,12.31L4.672,11.96L4.638,11.61L4.542,11.29L4.389,10.99L4.187,10.74L3.942,10.53L3.661,10.37L3.35,10.27L3.017,10.23zM3.265,11.35L3.468,11.49L3.604,11.7L3.655,11.96L3.604,12.22L3.468,12.43L3.265,12.58L3.017,12.63L2.769,12.58L2.566,12.43L2.429,12.22L2.379,11.96L2.429,11.7L2.566,11.49L2.769,11.35L3.017,11.29zz" fill="#797979"/>
      </g>
      <path d="M6.617,2.056L6.308,2.215L6.086,2.463L6,2.786L6,11.5L6.029,10.94L6.112,10.39L6.248,9.866L6.433,9.361L6.665,8.88L6.941,8.427L7.257,8.004L7.613,7.613L8.004,7.257L8.427,6.941L8.88,6.665L9.361,6.433L9.866,6.248L10.39,6.112L10.94,6.029L11.5,6L12.19,6.043L12.85,6.167L13.48,6.368L14.07,6.641L14.63,6.98L15,7.272L15,2.786L14.94,2.463L14.78,2.215L14.53,2.056L14.21,2L6.96,2zM6,11.5L6,12L6.031,12L6,11.5zM1.552,4.022L1.46,4.092L1.272,4.4L0.08047,6.793L0.01992,7.044L0,7.357L0,11.58L0.04102,11.75L0.1486,11.88L0.2994,11.97L0.4703,12L0.7344,12L0.7318,11.98L0.7775,11.51L0.9084,11.07L1.116,10.66L1.39,10.31L1.723,10.02L2.104,9.797L2.526,9.657L2.979,9.607L3.434,9.655L3.857,9.793L4.24,10.01L4.573,10.3L4.847,10.65L5.054,11.05L5.183,11.49L5.227,11.96L5.228,11.96L5.414,11.78L5.5,11.52L5.5,4.366L5.465,4.208L5.372,4.093L5.235,4.024L5.07,4L1.69,4zM4.6,4.8L4.6,7.4L0.8,7.4L0.8,6.78L1.699,4.8zz" fill="#3E79B4"/>
      <path d="M0.8,6.78L0.8,7.4L4.6,7.4L4.6,4.8L1.699,4.8zM2.769,11.35L2.566,11.49L2.429,11.7L2.379,11.96L2.429,12.22L2.566,12.43L2.769,12.58L3.017,12.63L3.265,12.58L3.468,12.43L3.604,12.22L3.655,11.96L3.604,11.7L3.468,11.49L3.265,11.35L3.017,11.29zz" fill-rule="evenodd" fill="#FFFFFF"/>
    </g>
    <g id="overlay">
      <path d="M11.5097,7.6964c2.0924,0,3.7886,1.6962,3.7886,3.7886c0,2.0924,-1.6962,3.7886,-3.7886,3.7886c-2.0924,0,-3.7886,-1.6962,-3.7886,-3.7886C7.7211,9.3926,9.4173,7.6964,11.5097,7.6964z" fill-rule="evenodd" fill="#FFFFFF"/>
      <path d="M11.4928,15.9855C9.0155,15.9855,7,13.9701,7,11.4928S9.0155,7,11.4928,7s4.4928,2.0155,4.4928,4.4928S13.9701,15.9855,11.4928,15.9855zM11.4928,8.0401c-1.9038,0,-3.4527,1.5489,-3.4527,3.4527c0,1.9039,1.5489,3.4527,3.4527,3.4527c1.9039,0,3.4527,-1.5489,3.4527,-3.4527C14.9455,9.5889,13.3966,8.0401,11.4928,8.0401z" fill-rule="evenodd" fill="#797979"/>
      <path d="M11.4928,7.1915c-2.3755,0,-4.3013,1.9258,-4.3013,4.3013c0,2.3755,1.9258,4.3013,4.3013,4.3013s4.3013,-1.9258,4.3013,-4.3013C15.7941,9.1172,13.8683,7.1915,11.4928,7.1915zM11.4928,15.137c-2.0126,0,-3.6442,-1.6316,-3.6442,-3.6442c0,-2.0126,1.6316,-3.6442,3.6442,-3.6442s3.6442,1.6316,3.6442,3.6442C15.137,13.5054,13.5054,15.137,11.4928,15.137z" fill-rule="evenodd" fill="#797979"/>
      <path d="M13.4291,13.8025c-0.3332,-0.0001,-1.8552,-1.3305,-2.0595,-1.5366c-0.18,-0.1816,-0.3125,-0.3152,-0.2603,-0.4859c-0.019,-0.098,-0.0215,-0.2161,-0.0211,-0.33c0.0007,-0.2121,0.0422,-0.9361,0.1057,-1.5878c0.1331,-1.3672,0.2504,-1.3672,0.3446,-1.3672c0.0949,0.0005,0.2126,0.0011,0.3202,1.3506c0.053,0.6645,0.0795,1.374,0.0788,1.5681c-0.0003,0.0698,-0.0007,0.1379,-0.0033,0.2005c0.0283,0.0265,0.0579,0.0555,0.0894,0.0873c0.1273,0.1284,0.5385,0.5753,0.9124,1.0266c0.6805,0.8215,0.6658,0.9601,0.5865,1.0388C13.5061,13.7831,13.4765,13.8025,13.4291,13.8025L13.4291,13.8025z" fill-rule="evenodd" fill="#3E79B4"/>
    </g>
  </g>
</svg>
