<?xml version="1.0" encoding="UTF-8"?>
<!DOCTYPE svg PUBLIC "-//W3C//DTD SVG 1.1//EN" "http://www.w3.org/Graphics/SVG/1.1/DTD/svg11.dtd">
<svg version="1.1" id="Layer_1" xmlns="http://www.w3.org/2000/svg" xmlns:xlink="http://www.w3.org/1999/xlink" x="0px" y="0px" width="16px" height="16px" viewBox="0 0 16 16" enable-background="new 0 0 16 16" xml:space="preserve">
  <g id="main">
    <g id="icon">
      <path d="M6.925,1.772L6.805,1.785L6.419,1.843L5.927,2.001L5.449,2.239L5.049,2.521L4.688,2.871L4.388,3.262L4.157,3.685L4,4.129L3.977,4.221L4.158,4.473L4.292,4.753L4.375,5.052L4.403,5.365L4.403,6.723L4.405,6.724L4.939,6.878L5.064,6.897L5.129,6.905L5.454,6.785L5.801,6.743L6.429,6.743L6.722,6.772L6.995,6.855L7.242,6.987L7.457,7.162L7.635,7.374L7.704,7.498L7.988,7.276L8.467,7.072L9,7L10.05,7L10.05,5.367L10.08,5.06L10.16,4.767L10.28,4.495L10.46,4.247L10.22,3.549L9.997,3.184L9.969,3.142L9.69,2.805L9.297,2.455L8.895,2.189L8.417,1.966L7.965,1.838L7.421,1.764L7.211,1.756zM5.163,9.708L5.056,9.912L4.86,10.09L4.562,10.23L2.404,10.91L1.087,11.34L0.6684,11.57L0.3678,11.88L0.1553,12.3L0,12.88L0.01445,13.52L0.1641,14.2L0.2576,14.36L0.4467,14.5L1.068,14.72L1.944,14.86L2.99,14.95L5.251,15L7,14.99L7,11L7,9.486L6.995,9.488L6.722,9.572L6.429,9.601L5.801,9.601L5.487,9.567L5.194,9.47zz" fill-rule="evenodd" fill="#797979"/>
      <path d="M6.428,0.03105L5.792,0.1695L5.171,0.3891L4.573,0.6861L4.007,1.057L3.548,1.451L3.137,1.914L2.779,2.438L2.48,3.017L2.262,3.613L2.131,4.221L2.117,4.394L2.107,4.526L2.106,4.545L1.895,4.695L1.734,4.89L1.632,5.118L1.596,5.367L1.596,7.002L1.673,7.367L1.884,7.665L2.196,7.866L2.577,7.94L2.806,7.902L3.011,7.792L3.453,8.036L4.186,8.265L4.833,8.405L5.172,8.444L5.248,8.447L5.262,8.447L5.485,8.673L5.801,8.757L6.43,8.757L6.668,8.711L6.862,8.586L6.993,8.4L7.041,8.173L6.993,7.946L6.862,7.76L6.668,7.635L6.43,7.589L5.802,7.589L5.555,7.639L5.351,7.78L5.052,7.748L4.96,7.736L4.743,7.701L4.133,7.525L3.554,7.303L3.451,7.25L3.433,7.241L3.466,7.002L3.466,5.367L3.447,5.123L3.384,4.901L3.263,4.709L3.076,4.559L3.079,4.518L3.184,3.919L3.383,3.351L3.675,2.813L4.053,2.317L4.508,1.875L5.01,1.52L5.6,1.224L6.197,1.03L6.712,0.9471L6.828,0.934L7.211,0.9119L7.481,0.9221L8.115,1.007L8.701,1.171L9.304,1.45L9.806,1.781L10.29,2.21L10.67,2.675L10.7,2.716L10.98,3.19L11.2,3.771L11.33,4.37L11.34,4.423L11.35,4.523L11.36,4.572L11.18,4.723L11.07,4.912L10.99,5.367L10.99,7L12.86,7L12.86,5.366L12.82,5.113L12.72,4.882L12.55,4.686L12.34,4.537L12.33,4.444L12.29,4.107L12.14,3.479L11.9,2.877L11.89,2.863L11.6,2.34L11.48,2.167L11.23,1.825L10.78,1.366L10.27,0.9449L9.711,0.601L9.114,0.324L8.142,0.06328L7.439,0L6.847,0zz" fill="#3E79B4"/>
    </g>
    <g id="overlay">
      <g>
        <path d="M15,15.5H9c-0.2761,0,-0.5,-0.2239,-0.5,-0.5V9.5h7v5.5C15.5,15.2761,15.2761,15.5,15,15.5z" fill="#FFFFFF"/>
        <path d="M15,16H9c-0.5514,0,-1,-0.4486,-1,-1V9h8v6C16,15.5514,15.5514,16,15,16zM9,10v5h6.0006L15,10H9z" fill="#6D6E71"/>
        <path d="M16,10H8V9c0,-0.5523,0.4477,-1,1,-1h6c0.5523,0,1,0.4477,1,1V10z" fill="#4EA17E"/>
        <path d="M10.3,11.5h0.8M12.8,11.5h0.9M10.3,13.5h0.8M12.8,13.5h0.9" fill="none" stroke="#B4B4B5" stroke-width="1" stroke-linecap="round" stroke-miterlimit="10"/>
      </g>
    </g>
  </g>
</svg>
