<?xml version="1.0" encoding="UTF-8"?>
<!DOCTYPE svg PUBLIC "-//W3C//DTD SVG 1.1//EN" "http://www.w3.org/Graphics/SVG/1.1/DTD/svg11.dtd">
<svg version="1.1" id="Layer_1" xmlns="http://www.w3.org/2000/svg" xmlns:xlink="http://www.w3.org/1999/xlink" x="0px" y="0px" width="16px" height="16px" viewBox="0 0 16 16" enable-background="new 0 0 16 16" xml:space="preserve">
  <g id="icon">
    <path d="M4.5,2.5v0.518c0.032,0,0.064,-0.002,0.097,-0.002c2.039,0,3.144,0.917,3.288,2.726c0.158,-0.013,0.323,-0.02,0.494,-0.02c0,0,0.002,0,0.003,0c2.193,0,3.304,1.065,3.304,3.167c0,0.51,-0.098,1.069,-0.268,1.611H15c0.276,0,0.5,-0.224,0.5,-0.5V2.5H4.5z" fill="#FFFFFF"/>
    <path d="M15,0H5c-0.552,0,-1,0.448,-1,1v2h12V1C16,0.448,15.552,0,15,0z" fill="#4EA17E"/>
    <path d="M7.247,4H11c0.276,0,0.5,0.224,0.5,0.5s-0.224,0.5,-0.5,0.5H7.756C7.647,4.609,7.477,4.276,7.247,4zM11,6h-0.962c0.508,0.205,0.9,0.522,1.173,0.952C11.381,6.872,11.5,6.7,11.5,6.5C11.5,6.224,11.276,6,11,6z" fill="#B4B4B5"/>
    <path d="M12,4.5c0,-0.276,0.224,-0.5,0.5,-0.5h1c0.276,0,0.5,0.224,0.5,0.5s-0.224,0.5,-0.5,0.5h-1C12.224,5,12,4.776,12,4.5zM13.5,6h-1c-0.276,0,-0.5,0.224,-0.5,0.5s0.224,0.5,0.5,0.5h1c0.276,0,0.5,-0.224,0.5,-0.5S13.776,6,13.5,6zM13.5,8h-1c-0.276,0,-0.5,0.224,-0.5,0.5s0.224,0.5,0.5,0.5h1c0.276,0,0.5,-0.224,0.5,-0.5S13.776,8,13.5,8z" fill="#CD4C32"/>
    <path d="M16,3v7c0,0.551,-0.449,1,-1,1h-3.762c0.132,-0.324,0.239,-0.662,0.316,-1l3.447,0L15,3H16zM4.597,3.017c0.139,0,0.272,0.005,0.403,0.014V3H4v0.047C4.189,3.027,4.388,3.017,4.597,3.017z" fill="#6D6E71"/>
    <path d="M12.849,15.444c-0.208,0.584,-3.181,0.508,-4.467,0.508c-0.009,0,0.005,0,0,0c-1.286,0,-4.225,0.076,-4.433,-0.508c-0.185,-0.519,-0.173,-0.716,-0.104,-1.184c0.231,-1.166,0.641,-1.186,2.886,-1.979c0.328,-0.123,0.421,-0.302,0.396,-0.555c-0.633,-0.757,-1.013,-1.98,-1.013,-2.837c0,-1.326,0.415,-2.167,2.267,-2.167c0.002,0,-0.008,0,0,0c1.852,0,2.305,0.84,2.305,2.167c0,0.857,-0.381,2.082,-1.014,2.839c-0.025,0.253,0.068,0.43,0.396,0.553c2.244,0.793,2.654,0.813,2.885,1.978C13.023,14.728,13.034,14.924,12.849,15.444zM5.806,11.643c0.047,-0.016,0.094,-0.033,0.143,-0.05c-0.452,-0.817,-0.74,-1.833,-0.74,-2.704c0,-1.513,0.556,-2.457,1.691,-2.855c-0.034,-1.24,-0.521,-2.017,-2.302,-2.017c-1.852,0,-2.267,0.84,-2.267,2.167c0,0.857,0.38,2.079,1.013,2.837c0.025,0.253,-0.069,0.431,-0.396,0.555c-2.244,0.793,-2.655,0.813,-2.886,1.979c-0.069,0.468,-0.081,0.665,0.104,1.184c0.15,0.421,1.715,0.499,3.06,0.51C3.647,12.393,4.433,12.12,5.806,11.643z" fill-rule="evenodd" fill="#3E79B4"/>
  </g>
</svg>
