<?xml version="1.0" encoding="UTF-8"?>
<!DOCTYPE svg PUBLIC "-//W3C//DTD SVG 1.1//EN" "http://www.w3.org/Graphics/SVG/1.1/DTD/svg11.dtd">
<svg version="1.1" id="Layer_1" xmlns="http://www.w3.org/2000/svg" xmlns:xlink="http://www.w3.org/1999/xlink" x="0px" y="0px" width="16px" height="16px" viewBox="0 0 16 16" enable-background="new 0 0 16 16" xml:space="preserve">
  <g id="main">
    <g id="icon">
      <path d="M0.8664,0.5471L0.6758,0.6758L0.5471,0.8664L0.5,1.1L0.5,13.9L0.5471,14.13L0.6758,14.32L0.8664,14.45L1.1,14.5L7.999,14.5L7.999,13L7.695,12.94L7.424,12.81L7.202,12.6L7.043,12.33L6.964,12.02L6.979,11.71L7.083,11.41L7.273,11.15L11.17,7.357L11.57,7.097L12.03,7.007L12.5,7.1L12.89,7.368L13.06,7.545L13.32,7.438L13.5,7.415L13.5,4.917L13.48,4.602L13.41,4.339L13.28,4.106L13.08,3.875L10.04,0.8414L9.682,0.5988L9.431,0.5264L9.117,0.5L1.1,0.5zz" fill-rule="evenodd" fill="#FFFFFF"/>
      <path d="M1.001,0.009961L0.7676,0.05703L0.6697,0.07676L0.5869,0.1326L0.3963,0.2611L0.3156,0.3156L0.2611,0.3963L0.1326,0.5869L0.07676,0.6697L0.05703,0.7676L0.009961,1.001L0,1.05L0,1.1L0,13.9L0,13.95L0.009961,14L0.05703,14.23L0.07676,14.33L0.1326,14.41L0.2611,14.6L0.3156,14.68L0.3963,14.74L0.5869,14.87L0.6697,14.92L0.7676,14.94L1.001,14.99L1.05,15L1.1,15L7.999,15L7.999,14L1.15,14L1.063,13.98L1.036,13.96L1.018,13.94L1,13.85L1,1.15L1.018,1.063L1.036,1.036L1.063,1.018L1.15,1L9.096,1L9.34,1.021L9.468,1.057L9.722,1.229L12.71,4.216L12.86,4.395L12.94,4.531L12.98,4.686L13,4.934L13,7.48L13.06,7.545L13.32,7.438L13.61,7.4L14,7.4L14,4.917L14,4.899L14,4.882L13.98,4.567L13.97,4.517L13.96,4.469L13.89,4.207L13.87,4.148L13.84,4.095L13.71,3.861L13.69,3.817L13.65,3.778L13.45,3.547L13.44,3.534L13.43,3.521L10.4,0.4879L10.36,0.4539L10.32,0.427L9.962,0.1844L9.896,0.1402L9.821,0.1184L9.57,0.0459L9.522,0.03223L9.473,0.02813L9.158,0.001758L9.138,0L9.117,0L1.1,0L1.05,0zz" fill="#6D6E71"/>
      <path d="M9,4L9.069,4.337L9.249,4.624L9.505,4.843L9.797,4.972L9.961,5L13.2,5L13.2,4L10.05,4L10,3.965L10,1L9,1zz" fill="#6D6E71"/>
      <path d="M2.15,2.113L1.976,2.402L2.025,2.735L2.274,2.962L2.467,3L7.517,3L7.834,2.887L8.007,2.598L7.958,2.265L7.709,2.038L7.517,2L2.467,2zz" fill="#797979"/>
      <path d="M2.15,4.113L1.976,4.402L2.025,4.735L2.274,4.962L2.467,5L7.517,5L7.834,4.887L8.007,4.598L7.958,4.265L7.709,4.038L7.517,4L2.467,4zz" fill="#B4B4B5"/>
      <path d="M2.15,6.113L1.976,6.402L2.025,6.735L2.274,6.962L2.467,7L11.52,7L11.83,6.887L12.01,6.598L11.96,6.265L11.71,6.038L11.52,6L2.467,6zz" fill="#B4B4B5"/>
      <path d="M5.086,9.214L5.005,9.23L4.712,9.328L4.043,9.571L3.676,9.759L3.339,9.991L3.033,10.27L2.759,10.59L2.667,10.8L2.679,11.02L2.823,11.16L3.022,11.24L3.033,11.25L3.161,11.27L3.279,11.26L3.321,11.25L3.745,11.21L3.347,11.54L2.319,12.4L2.207,12.58L2.179,12.64L2.104,12.78L2.342,12.78L2.519,12.77L2.628,12.74L3.718,12.13L4.164,11.87L4.166,11.87L4.134,11.98L4.142,12.13L4.224,12.27L4.316,12.29L4.524,12.22L4.926,11.86L5.33,11.51L5.642,11.27L5.7,11.23L5.649,11.28L5.559,11.38L5.513,11.5L5.585,11.66L5.727,11.71L6.051,11.63L6.273,11.52L6.315,11.65L6.4,11.7L6.44,11.71L6.731,11.62L7.106,11.38L7.273,11.15L7.932,10.51L7.939,10.47L7.94,10.41L7.955,10.24L7.803,10.33L7.75,10.35L7.595,10.46L7.244,10.87L6.796,11.2L6.832,11.13L6.903,10.96L6.882,10.83L6.854,10.79L6.758,10.68L6.599,10.62L6.457,10.65L5.969,10.96L5.958,10.92L5.91,10.84L5.818,10.79L5.802,10.79L5.6,10.86L4.985,11.4L4.953,11.42L4.581,11.75L4.565,11.76L4.669,11.58L4.897,11.36L4.989,11.2L5.011,11.15L5.092,10.99L4.911,11.02L4.848,11.02L4.742,11.04L4.649,11.09L4.227,11.46L3.749,11.75L3.649,11.81L3.019,12.17L4.302,11.17L4.273,11.1L4.144,10.93L3.955,10.87L3.881,10.88L3.795,10.89L3.171,10.95L2.99,10.9L3.035,10.77L3.069,10.69L3.091,10.66L3.121,10.63L3.459,10.28L3.864,9.987L4.35,9.743L4.929,9.538L5.146,9.515L5.164,9.515L5.174,9.519L5.171,9.559L4.944,9.734L4.738,9.892L4.556,10.12L4.551,10.22L4.583,10.32L4.601,10.36L4.658,10.56L4.768,10.39L4.791,10.35L4.833,10.28L4.876,10.23L5.004,10.08L5.136,9.983L5.334,9.826L5.499,9.622L5.549,9.415L5.485,9.298L5.386,9.238L5.192,9.213zz" fill="#666E79"/>
      <path d="M8.896,7.72L8.381,7.837L7.885,8.06L7.444,8.378L7.085,8.766L6.814,9.208L6.634,9.691L6.548,10.2L6.562,10.72L6.679,11.23L6.902,11.73L6.973,11.83L6.979,11.71L7.083,11.41L7.187,11.27L7.116,11.11L7.018,10.68L7.006,10.24L7.078,9.81L7.23,9.403L7.459,9.029L7.762,8.702L8.135,8.433L8.554,8.245L8.988,8.146L9.427,8.135L9.856,8.206L10.18,8.327L10.49,8.023L10.41,7.972L9.923,7.792L9.415,7.707zM7.603,9.981L7.841,10.39L8.359,10.1L9.713,8.779L9.706,8.767zz" fill-rule="evenodd" fill="#ED5765" opacity="0.5"/>
    </g>
    <g id="overlay">
      <path d="M16.054,11.857L15,10.854V8.513c0,-0.062,-0.05,-0.113,-0.113,-0.113h-1.275c-0.062,0,-0.113,0.05,-0.113,0.113v0.914l-1.32,-1.356c-0.083,-0.084,-0.22,-0.085,-0.304,0l-3.891,3.786c-0.053,0.053,-0.015,0.143,0.061,0.143H9v3.915c0,0.047,0.038,0.085,0.085,0.085H11v-2.5h2v2.5h1.815c0.047,0,0.085,-0.038,0.085,-0.085V12h1.094C16.069,12,16.107,11.91,16.054,11.857z" fill-rule="evenodd" fill="#3E78B3"/>
    </g>
  </g>
</svg>
