<?xml version="1.0" encoding="UTF-8"?>
<!DOCTYPE svg PUBLIC "-//W3C//DTD SVG 1.1//EN" "http://www.w3.org/Graphics/SVG/1.1/DTD/svg11.dtd">
<svg version="1.1" id="Layer_1" xmlns="http://www.w3.org/2000/svg" xmlns:xlink="http://www.w3.org/1999/xlink" x="0px" y="0px" width="16px" height="16px" viewBox="0 0 16 16" enable-background="new 0 0 16 16" xml:space="preserve">
  <g id="main">
    <g id="icon">
      <path d="M0.318,7.363L3.828,9.631L8.74,6.673L5.329,4.505zM0,10.9L3.494,13.35L3.498,10.31L0.003906,8.058zM4.147,10.29L4.15,13.38L6.041,12.16L6,11.5L6.029,10.94L6.112,10.39L6.248,9.866L6.433,9.361L6.665,8.88L6.771,8.707zz" fill-rule="evenodd" fill="#E78155"/>
      <path d="M5.958,4.088L9.415,6.254L14.68,3.165L11.22,1zM11.27,6.012L11.5,6L12.19,6.043L12.85,6.167L13.48,6.368L14.07,6.641L14.55,6.929L15,6.653L14.99,3.797zz" fill-rule="evenodd" fill="#E78155"/>
    </g>
    <g id="overlay">
      <path d="M15.7375,10.9804l-2.4115,-0.1007c-0.0271,-0.0799,-0.0592,-0.1576,-0.0961,-0.2324l1.6339,-1.7762c0.1025,-0.1025,0.1025,-0.2687,0,-0.3712l-0.3637,-0.3637c-0.1025,-0.1025,-0.2687,-0.1025,-0.3712,0l-1.7762,1.6339c-0.0748,-0.037,-0.1525,-0.069,-0.2324,-0.0961l-0.1007,-2.4115c0,-0.145,-0.1175,-0.2625,-0.2625,-0.2625h-0.5143c-0.145,0,-0.2625,0.1175,-0.2625,0.2625l-0.1007,2.4115c-0.0799,0.0271,-0.1575,0.0592,-0.2324,0.0961L8.8711,8.1362c-0.1025,-0.1025,-0.2687,-0.1025,-0.3712,0l-0.3637,0.3637c-0.1025,0.1025,-0.1025,0.2687,0,0.3712l1.6339,1.7762c-0.037,0.0748,-0.069,0.1525,-0.0961,0.2324l-2.4115,0.1007c-0.145,0,-0.2625,0.1175,-0.2625,0.2625v0.5143c0,0.145,0.1175,0.2625,0.2625,0.2625l2.4115,0.1007c0.0271,0.0799,0.0592,0.1576,0.0961,0.2324l-1.6339,1.7762c-0.1025,0.1025,-0.1025,0.2687,0,0.3712l0.3637,0.3637c0.1025,0.1025,0.2687,0.1025,0.3712,0l1.7762,-1.6339c0.0748,0.037,0.1525,0.069,0.2324,0.0961l0.1007,2.4115c0,0.145,0.1175,0.2625,0.2625,0.2625h0.5143c0.145,0,0.2625,-0.1175,0.2625,-0.2625l0.1007,-2.4115c0.0799,-0.0271,0.1576,-0.0592,0.2324,-0.0961l1.7762,1.6339c0.1025,0.1025,0.2687,0.1025,0.3712,0l0.3637,-0.3637c0.1025,-0.1025,0.1025,-0.2687,0,-0.3712l-1.6339,-1.7762c0.037,-0.0748,0.069,-0.1525,0.0961,-0.2324l2.4115,-0.1007c0.145,0,0.2625,-0.1175,0.2625,-0.2625v-0.5143C16,11.0979,15.8825,10.9804,15.7375,10.9804zM11.5,12.1c-0.426,0,-0.6,-0.174,-0.6,-0.6c0,-0.426,0.174,-0.6,0.6,-0.6s0.6,0.174,0.6,0.6C12.1,11.926,11.926,12.1,11.5,12.1z" fill-rule="evenodd" fill="#EAB765"/>
    </g>
  </g>
</svg>
