<?xml version="1.0" encoding="UTF-8"?>
<!DOCTYPE svg PUBLIC "-//W3C//DTD SVG 1.1//EN" "http://www.w3.org/Graphics/SVG/1.1/DTD/svg11.dtd">
<svg version="1.1" id="Layer_1" xmlns="http://www.w3.org/2000/svg" xmlns:xlink="http://www.w3.org/1999/xlink" x="0px" y="0px" width="16px" height="16px" viewBox="0 0 16 16" enable-background="new 0 0 16 16" xml:space="preserve">
  <g id="icon">
    <path d="M13.992,14.5H2.008C1.175,14.5,0.5,13.825,0.5,12.992V4.008C0.5,3.175,1.175,2.5,2.008,2.5h11.983c0.833,0,1.508,0.675,1.508,1.508v8.983C15.5,13.825,14.825,14.5,13.992,14.5z" fill="#FFFFFF"/>
    <path d="M13.992,2H2.008C0.901,2,0,2.901,0,4.008v8.983C0,14.099,0.901,15,2.008,15h11.983c1.107,0,2.008,-0.901,2.008,-2.008V4.008C16,2.901,15.099,2,13.992,2zM2.008,3h11.983c0.556,0,1.008,0.452,1.008,1.008V5H1v-0.992C1,3.452,1.452,3,2.008,3zM13.992,14H2.008C1.452,14,1,13.548,1,12.992V7h14v5.992C15,13.548,14.548,14,13.992,14z" fill="#3E79B4"/>
    <path d="M7.5,12H2.5c-0.276,0,-0.5,-0.224,-0.5,-0.5s0.224,-0.5,0.5,-0.5h5c0.276,0,0.5,0.224,0.5,0.5S7.776,12,7.5,12z" fill="#939598"/>
  </g>
</svg>
