<?xml version="1.0" encoding="UTF-8"?>
<!DOCTYPE svg PUBLIC "-//W3C//DTD SVG 1.1//EN" "http://www.w3.org/Graphics/SVG/1.1/DTD/svg11.dtd">
<svg version="1.1" id="Layer_1" xmlns="http://www.w3.org/2000/svg" xmlns:xlink="http://www.w3.org/1999/xlink" x="0px" y="0px" width="16px" height="16px" viewBox="0 0 16 16" enable-background="new 0 0 16 16" xml:space="preserve">
  <g id="main">
    <g id="icon">
      <path d="M4.742,7.994L4.753,8.019L4.881,7.969L4.955,8.121L5.218,8.65L5.308,8.827L5.118,8.896L4.697,9.05L4.555,9.102L2.626,9.769L2.015,10.04L1.623,10.31L1.434,10.57L1.302,10.94L1.086,12.28L0.9801,13.06L1.17,13.2L1.702,13.43L2.735,13.68L4.426,13.92L6.5,14.05L6.827,14.06L5.864,13.05L5.704,12.85L5.59,12.62L5.499,12.14L5.591,11.66L5.705,11.44L5.865,11.23L6.959,10.09L7.16,9.916L7.389,9.789L7.639,9.711L7.901,9.684L8.163,9.711L8.413,9.79L8.643,9.917L8.844,10.09L10.19,11.5L11.99,9.632L10.54,9.127L10.22,9.018L9.798,8.877L9.889,8.697L10.15,8.163L10.22,8.004L10.37,8.064L10.39,8.028L9.518,7.771L8.993,8.251L8.232,8.079L7.508,8.01L6.727,8.064L6.009,8.216L5.504,7.733zz" fill-rule="evenodd" fill="#FFFFFF"/>
      <path d="M4.721,8.031L4.307,8.207L2.119,8.97L1.426,9.299L0.9387,9.651L0.6113,10.07L0.3977,10.6L0.251,11.28L0.1252,12.16L0.01738,12.96L0.0416,13.32L0.2338,13.65L0.5049,13.88L0.8697,14.09L1.821,14.42L2.969,14.66L4.192,14.82L6.391,14.98L7.46,15L7.46,15L7.716,14.99L6.827,14.06L6.5,14.05L4.426,13.92L2.735,13.68L1.702,13.43L1.17,13.2L0.9803,13.06L1.086,12.28L1.302,10.94L1.434,10.57L1.623,10.31L2.015,10.04L2.626,9.769L4.555,9.102L4.697,9.05L5.118,8.896L5.309,8.827L5.218,8.65L4.955,8.121L4.882,7.969zM10.15,8.163L9.89,8.697L9.798,8.877L10.22,9.018L10.54,9.127L11.99,9.632L12.69,8.899L10.66,8.189L10.38,8.071L10.22,8.004zM13.25,14.39L14.13,14.09L14.5,13.88L14.77,13.65L14.97,13.32L14.99,12.96L14.94,12.63zz" fill-rule="evenodd" fill="#3E79B4"/>
      <path d="M6.517,0.05938L5.697,0.2334L5.055,0.5158L4.573,0.9004L4.232,1.381L4.012,1.951L3.894,2.605L3.858,3.336L3.926,4.157L4.123,5.049L4.44,5.957L4.869,6.824L5.4,7.595L6.025,8.214L6.37,8.45L6.734,8.627L7.118,8.738L7.519,8.776L7.921,8.738L8.307,8.627L8.675,8.45L9.023,8.214L9.657,7.595L10.2,6.824L10.64,5.957L10.96,5.049L11.17,4.157L11.24,3.336L11.2,2.605L11.08,1.951L10.85,1.381L10.5,0.9004L10.01,0.5158L9.365,0.2334L8.546,0.05938L7.536,0zM9.806,3.034L10,3.277L10.22,3.465L10.22,3.611L10.17,4.261L10.03,4.96L9.803,5.668L9.492,6.341L9.103,6.938L8.639,7.416L8.105,7.734L7.814,7.82L7.507,7.85L7.2,7.82L6.909,7.734L6.376,7.416L5.912,6.938L5.522,6.341L5.211,5.668L4.983,4.96L4.843,4.261L4.795,3.611L4.798,3.467L5.995,3.377L7.371,3.197L8.653,2.924L9.171,2.752L9.562,2.556zz" fill-rule="evenodd" fill="#3E79B4"/>
      <path d="M9.171,2.752L8.653,2.924L7.371,3.197L5.995,3.377L4.798,3.467L4.795,3.611L4.843,4.261L4.983,4.96L5.211,5.668L5.522,6.341L5.912,6.938L6.376,7.416L6.909,7.734L7.2,7.82L7.507,7.85L7.814,7.82L8.105,7.734L8.639,7.416L9.103,6.938L9.492,6.341L9.803,5.668L10.03,4.96L10.17,4.261L10.22,3.611L10.22,3.465L10,3.277L9.806,3.034L9.562,2.556zz" fill-rule="evenodd" fill="#FFFFFF"/>
      <path d="M6.729,9.4L6.546,9.532L6.477,9.848L6.53,10.02L6.663,10.16L6.784,10.27L6.959,10.09L7.16,9.916L7.389,9.789L7.639,9.711L7.901,9.684L8.163,9.711L8.413,9.79L8.528,9.854L8.53,9.846L8.49,9.532L8.422,9.447L8.32,9.4L8.003,9.375L7.525,9.384L7.047,9.375zM6.597,14.51L7.429,14.69L6.667,13.89zz" fill-rule="evenodd" fill="#3E79B4"/>
    </g>
    <g id="overlay">
      <path d="M15.913,9.747l-1.101,-1.153c-0.12,-0.125,-0.317,-0.126,-0.437,-0.001l-4.19,4.351l-2.065,-2.166c-0.12,-0.126,-0.318,-0.126,-0.438,0l-1.094,1.144c-0.117,0.122,-0.117,0.317,0,0.439l3.38,3.543c0.12,0.126,0.317,0.126,0.437,0.001l5.508,-5.719C16.029,10.065,16.029,9.869,15.913,9.747z" fill-rule="evenodd" fill="#4EA17E"/>
    </g>
  </g>
</svg>
