<?xml version="1.0" encoding="UTF-8"?>
<!DOCTYPE svg PUBLIC "-//W3C//DTD SVG 1.1//EN" "http://www.w3.org/Graphics/SVG/1.1/DTD/svg11.dtd">
<svg version="1.1" id="Layer_1" xmlns="http://www.w3.org/2000/svg" xmlns:xlink="http://www.w3.org/1999/xlink" x="0px" y="0px" width="16px" height="16px" viewBox="0 0 16 16" enable-background="new 0 0 16 16" xml:space="preserve">
  <g id="icon">
    <path d="M15,15.5H1c-0.2761,0,-0.5,-0.2239,-0.5,-0.5V2.5h15v12.5C15.5,15.2761,15.2761,15.5,15,15.5z" fill="#FFFFFF" stroke="#6D6E71" stroke-width="1" stroke-miterlimit="10"/>
    <path d="M16,4H0V1C0,0.4477,0.4477,0,1,0h14c0.5523,0,1,0.4477,1,1V4z" fill="#529FBF"/>
    <path d="M2.3903,10.7707l-0.0135,-0.0013c-0.0392,-0.0056,-0.0741,-0.0276,-0.0959,-0.0605l-0.3251,-0.4916c-0.0204,-0.0309,-0.0275,-0.0679,-0.02,-0.1042c0.0072,-0.0357,0.0281,-0.067,0.0589,-0.0874l5.0976,-3.3659c0.0351,-0.0239,0.0754,-0.0363,0.1172,-0.0363c0.0626,0,0.1212,0.0278,0.1609,0.0763l1.3471,1.7124l3.1157,-2.3133l-0.323,-0.4498c-0.0411,-0.0572,-0.0491,-0.13,-0.0216,-0.1948c0.0276,-0.0648,0.0856,-0.1094,0.1552,-0.1195l1.9277,-0.2791c0.0099,-0.0014,0.0197,-0.0021,0.0292,-0.0021c0.0676,0,0.1301,0.0341,0.1672,0.0913c0.0369,0.057,0.0424,0.128,0.0147,0.1901l-0.8168,1.8262c-0.0321,0.0718,-0.1038,0.1183,-0.1826,0.1183c-0.065,0,-0.1241,-0.0303,-0.1621,-0.0833l-0.2828,-0.3877L8.7336,9.4693l-0.0059,0.0034c-0.0326,0.0188,-0.0701,0.0288,-0.1086,0.0288c-0.0651,0,-0.1256,-0.0281,-0.1661,-0.077L7.0808,7.7083l-4.6093,3.0401c-0.0227,0.0149,-0.0486,0.0223,-0.0751,0.0223H2.3903z" fill="#4EA17E"/>
    <path d="M5,14H3v-2.2583c0,-0.2439,0.1977,-0.4417,0.4417,-0.4417h1.1167c0.2439,0,0.4417,0.1977,0.4417,0.4417V14zM8,14H6v-2.9583c0,-0.2439,0.1977,-0.4417,0.4417,-0.4417h1.1167c0.2439,0,0.4417,0.1977,0.4417,0.4417V14zM11,14H9v-3.5583c0,-0.2439,0.1977,-0.4417,0.4417,-0.4417h1.1167c0.2439,0,0.4417,0.1977,0.4417,0.4417V14zM14,14h-2V9.4417c0,-0.2439,0.1977,-0.4417,0.4417,-0.4417h1.1167c0.2439,0,0.4417,0.1977,0.4417,0.4417V14z" fill="#A7A9AC"/>
  </g>
</svg>
