<?xml version="1.0" encoding="UTF-8"?>
<!DOCTYPE svg PUBLIC "-//W3C//DTD SVG 1.1//EN" "http://www.w3.org/Graphics/SVG/1.1/DTD/svg11.dtd">
<svg version="1.1" id="Layer_1" xmlns="http://www.w3.org/2000/svg" xmlns:xlink="http://www.w3.org/1999/xlink" x="0px" y="0px" width="16px" height="16px" viewBox="0 0 16 16" enable-background="new 0 0 16 16" xml:space="preserve">
  <g id="main">
    <g id="icon">
      <path d="M6.852,1.256L6.23,1.351L5.629,1.506L5.053,1.717L4.505,1.981L3.988,2.295L3.505,2.656L3.06,3.06L2.656,3.505L2.295,3.988L1.981,4.505L1.717,5.053L1.506,5.629L1.351,6.23L1.256,6.852L1.224,7.493L1.256,8.134L1.351,8.756L1.506,9.357L1.717,9.933L1.981,10.48L2.295,11L2.656,11.48L3.06,11.93L3.505,12.33L3.988,12.69L4.505,13.01L5.053,13.27L5.629,13.48L6.23,13.63L6.452,13.67L5.864,13.05L5.704,12.85L5.59,12.62L5.499,12.14L5.591,11.66L5.705,11.44L5.865,11.23L6.959,10.09L7.16,9.916L7.389,9.789L7.639,9.711L7.901,9.684L8.163,9.711L8.413,9.79L8.643,9.917L8.844,10.09L10.19,11.5L13.65,7.9L13.75,7.822L13.76,7.493L13.73,6.852L13.63,6.23L13.48,5.629L13.27,5.053L13.01,4.505L12.69,3.988L12.33,3.505L11.93,3.06L11.48,2.656L11,2.295L10.48,1.981L9.933,1.717L9.357,1.506L8.756,1.351L8.134,1.256L7.493,1.224zz" fill-rule="evenodd" fill="#FFFFFF"/>
      <path d="M7.032,0.5689L7.032,8.198L7.031,8.198L10.22,11.47L13.65,7.9L13.85,7.73L14.06,7.617L14.06,7.567L14.03,6.851L13.93,6.155L13.76,5.484L13.53,4.841L13.25,4.229L12.91,3.651L12.52,3.112L12.08,2.614L11.61,2.163L11.09,1.759L10.53,1.408L9.938,1.113L9.317,0.8779L8.67,0.7053L8,0.5992L7.309,0.5631zz" fill-rule="evenodd" fill="#FACCD0"/>
      <path d="M6.734,0.03887L5.991,0.1527L5.272,0.3379L4.584,0.5904L3.928,0.9066L3.31,1.283L2.732,1.715L2.199,2.199L1.715,2.732L1.283,3.31L0.9066,3.928L0.5904,4.584L0.3379,5.272L0.1527,5.991L0.03887,6.734L0,7.5L0.03887,8.266L0.1527,9.009L0.3379,9.728L0.5904,10.42L0.9066,11.07L1.283,11.69L1.715,12.27L2.199,12.8L2.732,13.29L3.31,13.72L3.928,14.09L4.584,14.41L5.272,14.66L5.991,14.85L6.734,14.96L7.5,15L7.711,14.99L6.456,13.67L6.238,13.64L5.638,13.48L5.063,13.27L4.515,13.01L3.998,12.7L3.516,12.33L3.071,11.93L2.666,11.48L2.305,11L1.99,10.48L1.726,9.937L1.515,9.362L1.361,8.762L1.265,8.14L1.233,7.5L1.265,6.86L1.361,6.238L1.515,5.638L1.726,5.063L1.99,4.515L2.305,3.998L2.666,3.516L3.071,3.071L3.516,2.666L3.998,2.305L4.515,1.99L5.063,1.726L5.638,1.515L6.238,1.361L6.86,1.265L7.5,1.233L8.14,1.265L8.762,1.361L9.362,1.515L9.937,1.726L10.48,1.99L11,2.305L11.48,2.666L11.93,3.071L12.33,3.516L12.7,3.998L13.01,4.515L13.27,5.063L13.48,5.638L13.64,6.238L13.73,6.86L13.77,7.5L13.75,7.818L13.85,7.73L14.08,7.605L14.33,7.527L14.59,7.5L14.85,7.527L15,7.572L15,7.5L14.96,6.734L14.85,5.991L14.66,5.272L14.41,4.584L14.09,3.928L13.72,3.31L13.29,2.732L12.8,2.199L12.27,1.715L11.69,1.283L11.07,0.9066L10.42,0.5904L9.728,0.3379L9.009,0.1527L8.266,0.03887L7.5,0zz" fill-rule="evenodd" fill="#797979"/>
      <path d="M6.933,2.478L6.86,2.626L6.722,3.16L6.492,4.826L6.338,6.611L6.281,7.705L6.3,8.118L6.394,8.407L6.607,8.578L6.986,8.635L7.355,8.571L7.548,8.379L7.621,8.068L7.634,7.644L7.596,6.561L7.477,4.797L7.281,3.152L7.154,2.624L7.084,2.478L7.009,2.426zz" fill-rule="evenodd" fill="#3E79B4"/>
      <path d="M7.009,7.491L6.69,7.705L6.441,7.985L6.387,8.222L6.511,8.477L6.792,8.809L7.573,9.577L7.712,9.703L7.901,9.684L8.163,9.711L8.413,9.79L8.643,9.917L8.844,10.09L10.19,11.5L10.43,11.24L9.63,10.11L8.581,8.785L7.885,7.962L7.565,7.642L7.287,7.478zz" fill-rule="evenodd" fill="#3E79B4"/>
    </g>
    <g id="overlay">
      <path d="M15.913,9.747l-1.101,-1.153c-0.12,-0.125,-0.317,-0.126,-0.437,-0.001l-4.19,4.351l-2.065,-2.166c-0.12,-0.126,-0.318,-0.126,-0.438,0l-1.094,1.144c-0.117,0.122,-0.117,0.317,0,0.439l3.38,3.543c0.12,0.126,0.317,0.126,0.437,0.001l5.508,-5.719C16.029,10.065,16.029,9.869,15.913,9.747z" fill-rule="evenodd" fill="#4EA17E"/>
    </g>
  </g>
</svg>
