<?xml version="1.0" encoding="UTF-8"?>
<!DOCTYPE svg PUBLIC "-//W3C//DTD SVG 1.1//EN" "http://www.w3.org/Graphics/SVG/1.1/DTD/svg11.dtd">
<svg version="1.1" id="Layer_1" xmlns="http://www.w3.org/2000/svg" xmlns:xlink="http://www.w3.org/1999/xlink" x="0px" y="0px" width="16px" height="16px" viewBox="0 0 16 16" enable-background="new 0 0 16 16" xml:space="preserve">
  <g id="icon">
    <path d="M13.7,15.5H2.3c-0.442,0,-0.8,-0.358,-0.8,-0.8V1.3c0,-0.442,0.358,-0.8,0.8,-0.8h11.4c0.442,0,0.8,0.358,0.8,0.8v13.4C14.5,15.142,14.142,15.5,13.7,15.5z" fill="#FFFFFF"/>
    <path d="M13.7,16H2.3c-0.717,0,-1.3,-0.583,-1.3,-1.3V1.3c0,-0.717,0.583,-1.3,1.3,-1.3h11.4c0.717,0,1.3,0.583,1.3,1.3v13.4C15,15.417,14.417,16,13.7,16zM2.3,1c-0.165,0,-0.3,0.135,-0.3,0.3v13.4c0,0.165,0.135,0.3,0.3,0.3h11.4c0.165,0,0.3,-0.135,0.3,-0.3V1.3c0,-0.165,-0.135,-0.3,-0.3,-0.3H2.3z" fill="#6D6E71"/>
    <path d="M12.488,4H3.513C3.229,4,3,3.771,3,3.488v-0.975c0,-0.283,0.229,-0.513,0.513,-0.513h8.975c0.283,0,0.513,0.229,0.513,0.513v0.975C13,3.771,12.771,4,12.488,4z" fill="#529FBF"/>
    <path d="M9.5,7.9c-0.276,0,-0.5,-0.224,-0.5,-0.5V5.6c0,-0.276,0.224,-0.5,0.5,-0.5s0.5,0.224,0.5,0.5v1.8C10,7.676,9.776,7.9,9.5,7.9z" fill="#BCBEC0"/>
    <path d="M12.5,8H3.5c-0.276,0,-0.5,-0.224,-0.5,-0.5V5.5c0,-0.276,0.224,-0.5,0.5,-0.5h9c0.276,0,0.5,0.224,0.5,0.5v2C13,7.776,12.776,8,12.5,8zM4,7h8V6H4V7z" fill="#BCBEC0"/>
    <path d="M13,14H3V9h10V14zM4,13h8v-3H4V13z" fill="#EAB765"/>
    <path d="M5.001,12.86c0.009,-0.016,0.016,-0.034,0.024,-0.053c0.02,-0.047,0.043,-0.101,0.086,-0.138c0.273,-0.232,0.554,-0.465,0.825,-0.691c0,0,0.241,-0.2,0.349,-0.29l-0.001,0c-0.139,0.015,-0.254,0.027,-0.372,0.037l-0.033,0.003c-0.033,0.003,-0.064,0.007,-0.095,0.007c-0.038,0,-0.071,-0.005,-0.1,-0.015l-0.009,-0.003c-0.102,-0.036,-0.23,-0.08,-0.271,-0.174c-0.043,-0.097,-0.002,-0.254,0.063,-0.34c0.276,-0.364,0.623,-0.638,1.031,-0.816c0.176,-0.076,0.361,-0.137,0.539,-0.195c0.078,-0.025,0.158,-0.052,0.236,-0.079c0.018,-0.006,0.039,-0.013,0.063,-0.013l0.085,0c0.078,0,0.24,0,0.278,0.155c0.023,0.092,-0.052,0.195,-0.171,0.322c-0.047,0.05,-0.103,0.088,-0.158,0.125c-0.037,0.025,-0.076,0.051,-0.108,0.079c-0.038,0.033,-0.07,0.076,-0.104,0.121c-0.014,0.018,-0.024,0.032,-0.035,0.046c-0.013,0.016,-0.024,0.035,-0.035,0.054c-0.007,0.011,-0.012,0.021,-0.018,0.03l-0.077,0.122l-0.04,-0.138c-0.004,-0.013,-0.009,-0.026,-0.015,-0.041c-0.019,-0.045,-0.04,-0.096,-0.021,-0.146c0.023,-0.062,0.071,-0.123,0.144,-0.183c0.055,-0.045,0.112,-0.088,0.168,-0.129c0.063,-0.046,0.125,-0.092,0.182,-0.14c0.002,-0.003,0.007,-0.023,0.006,-0.045c-0.006,-0.003,-0.013,-0.006,-0.017,-0.007h-0.016c-0.056,0,-0.122,0.002,-0.178,0.019c-0.679,0.201,-1.13,0.473,-1.462,0.882c-0.007,0.009,-0.015,0.017,-0.023,0.025c-0.007,0.007,-0.018,0.019,-0.02,0.023c-0.008,0.021,-0.018,0.044,-0.027,0.067c-0.012,0.029,-0.042,0.096,-0.037,0.114c0.009,0.015,0.082,0.045,0.155,0.045l0.007,0c0.164,-0.005,0.333,-0.027,0.496,-0.048l0.071,-0.009c0.022,-0.003,0.041,-0.004,0.059,-0.004c0.115,0,0.194,0.057,0.247,0.178l0.02,0.046l-1.127,0.882c0.203,-0.114,0.413,-0.232,0.618,-0.35l0.08,-0.046c0.26,-0.148,0.528,-0.302,0.728,-0.535c0.038,-0.044,0.1,-0.048,0.154,-0.052c0.019,-0.001,0.036,-0.002,0.051,-0.005l0.128,-0.023l-0.057,0.116c-0.007,0.013,-0.012,0.027,-0.018,0.043c-0.016,0.043,-0.034,0.089,-0.072,0.123c-0.183,0.163,-0.247,0.24,-0.279,0.359c0.014,-0.01,0.026,-0.02,0.038,-0.03c0.102,-0.089,0.203,-0.178,0.305,-0.268l0.02,-0.018c0.162,-0.143,0.33,-0.291,0.496,-0.434c0.048,-0.042,0.119,-0.048,0.156,-0.048l0.013,0c0.062,0.002,0.1,0.084,0.104,0.093c0.008,0.019,0.01,0.034,0.008,0.047c0.111,-0.094,0.245,-0.177,0.406,-0.255c0.039,-0.019,0.076,-0.028,0.111,-0.028c0.102,0,0.157,0.077,0.197,0.134c0.009,0.012,0.016,0.022,0.023,0.031c0.044,0.056,0.007,0.14,-0.041,0.236c-0.015,0.029,-0.031,0.057,-0.048,0.085c0.284,-0.162,0.508,-0.366,0.68,-0.621c0.03,-0.044,0.078,-0.064,0.121,-0.082c0.016,-0.007,0.03,-0.013,0.043,-0.02l0.106,-0.059l-0.01,0.121c-0.001,0.014,-0.001,0.028,-0.001,0.043c0,0.042,0,0.089,-0.022,0.132c-0.042,0.081,-0.088,0.161,-0.134,0.238c0.126,-0.097,0.256,-0.197,0.388,-0.293c0.039,-0.028,0.082,-0.043,0.124,-0.057c0.016,-0.006,0.032,-0.011,0.048,-0.017l0.073,-0.03l0.015,0.078c0.003,0.015,0.006,0.029,0.01,0.044c0.01,0.041,0.019,0.08,0.021,0.122c0.003,0.064,0.003,0.129,0.002,0.197c0.134,-0.067,0.226,-0.173,0.315,-0.276c0.036,-0.042,0.077,-0.089,0.119,-0.131c0.021,-0.021,0.042,-0.042,0.063,-0.064c0.066,-0.067,0.13,-0.133,0.2,-0.191c0.05,-0.041,0.109,-0.063,0.171,-0.063c0.094,0,0.182,0.051,0.236,0.136c0.149,0.236,0.07,0.652,-0.155,0.81c-0.043,0.03,-0.096,0.037,-0.139,0.043c-0.017,0.002,-0.031,0.004,-0.043,0.007l-0.139,0.032l0.067,-0.126l0.061,-0.114c0.052,-0.097,0.1,-0.186,0.142,-0.274c0.008,-0.018,0.011,-0.048,0.005,-0.066c-0.016,-0.052,-0.039,-0.105,-0.061,-0.156l-0.001,-0.002l0,0c-0.043,0.021,-0.083,0.041,-0.111,0.068c-0.079,0.075,-0.157,0.153,-0.232,0.229c-0.104,0.105,-0.212,0.214,-0.324,0.314c-0.056,0.05,-0.156,0.1,-0.241,0.1c-0.023,0,-0.044,-0.004,-0.062,-0.011c-0.072,-0.029,-0.1,-0.115,-0.127,-0.198c-0.008,-0.023,-0.014,-0.042,-0.021,-0.059c-0.006,-0.014,-0.009,-0.028,-0.011,-0.043c-0.02,0.013,-0.037,0.025,-0.054,0.037c-0.05,0.036,-0.1,0.073,-0.149,0.11c-0.104,0.077,-0.21,0.156,-0.318,0.229c-0.04,0.027,-0.087,0.034,-0.129,0.041c-0.016,0.002,-0.031,0.005,-0.045,0.008l-0.073,0.017c0,0,-0.014,-0.156,-0.016,-0.176c-0.021,0.014,-0.041,0.028,-0.061,0.042c-0.124,0.084,-0.24,0.163,-0.363,0.236c-0.069,0.041,-0.155,0.065,-0.23,0.065c-0.011,0,-0.021,0,-0.031,-0.001c-0.062,-0.006,-0.077,-0.066,-0.097,-0.157c-0.056,0.037,-0.118,0.077,-0.189,0.101c-0.074,0.026,-0.181,0.06,-0.259,0.06h0c-0.047,0,-0.082,-0.012,-0.107,-0.037c-0.038,-0.037,-0.056,-0.078,-0.055,-0.121c0.001,-0.073,0.06,-0.127,0.107,-0.169c0.019,-0.017,0.036,-0.033,0.047,-0.047c0.013,-0.017,0.026,-0.033,0.04,-0.05c-0.035,0.026,-0.071,0.051,-0.106,0.076c-0.085,0.06,-0.172,0.122,-0.252,0.19c-0.11,0.093,-0.22,0.191,-0.326,0.286c-0.105,0.094,-0.214,0.191,-0.323,0.284c-0.039,0.033,-0.109,0.058,-0.162,0.058c-0.027,0,-0.05,-0.006,-0.068,-0.019c-0.065,-0.045,-0.079,-0.157,-0.069,-0.218c0.007,-0.04,0.019,-0.078,0.034,-0.118l-0.024,0.014c-0.128,0.075,-0.244,0.142,-0.359,0.208c-0.299,0.17,-0.598,0.339,-0.879,0.497c-0.026,0.015,-0.056,0.024,-0.084,0.025c-0.051,0.002,-0.102,0.003,-0.151,0.004l-0.166,0.003L5.001,12.86zM8.424,11.53c-0.103,0.038,-0.224,0.128,-0.305,0.225C8.242,11.702,8.361,11.615,8.424,11.53z" fill="#666E79"/>
  </g>
</svg>
