<?xml version="1.0" encoding="UTF-8"?>
<!DOCTYPE svg PUBLIC "-//W3C//DTD SVG 1.1//EN" "http://www.w3.org/Graphics/SVG/1.1/DTD/svg11.dtd">
<svg version="1.1" id="Layer_1" xmlns="http://www.w3.org/2000/svg" xmlns:xlink="http://www.w3.org/1999/xlink" x="0px" y="0px" width="16px" height="16px" viewBox="0 0 16 16" enable-background="new 0 0 16 16" xml:space="preserve">
  <g id="icon">
    <path d="M15.4666,15.3236c-0.082,-1.1177,-0.4278,-2.1243,-1.0279,-2.9919c-0.7229,-1.0454,-2.086,-2.1541,-3.5023,-2.7315c0,0,-0.5398,-0.5728,-0.7866,-0.7158c-0.6375,0.6825,-1.3722,1.0491,-2.1301,1.0491c-0.7622,0,-1.5009,-0.3706,-2.1409,-1.0606c-0.2406,0.1382,-0.8721,0.6606,-0.8721,0.6606C1.5949,10.9384,0.6535,13.874,0.5432,15.3232l-0.0109,0.1435h14.9448L15.4666,15.3236z" fill="#FFFFFF" opacity="0.5"/>
    <path d="M11.5157,4.2727c0,2.4253,-1.5652,5.1869,-3.4959,5.1869S4.5238,6.698,4.5238,4.2727S6.089,0.5417,8.0198,0.5417S11.5157,1.8474,11.5157,4.2727z" fill="#FFFFFF" opacity="0.5"/>
    <path d="M8.0198,10.04c-1.112,0,-2.1663,-0.6914,-2.9687,-1.9467c-0.696,-1.0889,-1.1116,-2.5057,-1.1116,-3.7899c0,-1.3038,0.4145,-2.4038,1.1988,-3.1813C5.8682,0.3985,6.8915,0,8.0198,0c1.1283,0,2.1516,0.3985,2.8814,1.1221C11.6855,1.8996,12.1,2.9996,12.1,4.3034c0,1.2842,-0.4156,2.701,-1.1116,3.7899C10.186,9.3486,9.1317,10.04,8.0198,10.04zM8.0198,1.2612c-1.7186,0,-2.8291,1.1941,-2.8291,3.0422c0,2.0145,1.3055,4.4753,2.8291,4.4753c1.5236,0,2.8291,-2.4608,2.8291,-4.4753C10.8489,2.4554,9.7384,1.2612,8.0198,1.2612z" fill="#6D6E71"/>
    <path d="M8.0365,10.6856c-0.7335,0,-0.805,-0.1278,-0.8315,0.532c0,0.3051,0.1214,0.4058,0.3226,0.7153c-0.0135,0.4872,-0.2198,2.6813,-0.3222,3.7825c0.2635,0.0117,0.53,0.018,0.7994,0.018c0.2687,0,0.5345,-0.0063,0.7972,-0.0179c-0.1072,-1.0214,-0.268,-3.3032,-0.262,-3.7815c0.2667,-0.2933,0.2935,-0.4191,0.2867,-0.7177C8.8532,10.5578,8.77,10.6856,8.0365,10.6856z" fill="#CB535D"/>
    <path d="M15.9655,15.3103c-0.1188,-1.5111,-0.8635,-4.2635,-4.5161,-5.719l-0.488,-0.2085c-0.0774,0.101,-0.1563,0.2017,-0.2379,0.302c-0.2243,0.2757,-0.4782,0.5136,-0.7553,0.7123l-0.011,0L8.8751,14.718h-1.741l-1.0954,-4.3316c0.0008,-0.0003,0.0018,-0.0006,0.0026,-0.0008c-0.2708,-0.1965,-0.5193,-0.4303,-0.7394,-0.7009c-0.0804,-0.0988,-0.1594,-0.1994,-0.2371,-0.3008l-0.4847,0.2074c-3.6526,1.4555,-4.3972,4.2079,-4.5161,5.719l-0.0338,0.4301C0.0192,15.8805,0.1344,16,0.2804,16h15.4687c0.146,0,0.2612,-0.1195,0.2502,-0.2596L15.9655,15.3103z" fill="#6D6E71"/>
    <path d="M11.1758,3.9236c-1.1517,-1.0691,-1.716,-0.8318,-2.3136,-0.5806c-0.2788,0.1173,-0.5672,0.2385,-0.9026,0.2385c-0.3405,0,-0.6273,-0.1262,-0.9046,-0.2483c-0.6002,-0.2643,-1.1185,-0.4924,-2.2632,0.5883l-0.503,-0.5334C5.8757,-0.38,10.2649,-0.366,11.6743,3.386L11.1758,3.9236z" fill="#6D6E71"/>
  </g>
</svg>
