<?xml version="1.0" encoding="UTF-8"?>
<!DOCTYPE svg PUBLIC "-//W3C//DTD SVG 1.1//EN" "http://www.w3.org/Graphics/SVG/1.1/DTD/svg11.dtd">
<svg version="1.1" id="Layer_1" xmlns="http://www.w3.org/2000/svg" xmlns:xlink="http://www.w3.org/1999/xlink" x="0px" y="0px" width="16px" height="16px" viewBox="0 0 16 16" enable-background="new 0 0 16 16" xml:space="preserve">
  <g id="main">
    <g id="icon">
      <path d="M5.999,0.05859L5.227,0.2305L4.624,0.5092L4.171,0.8885L3.851,1.362L3.645,1.924L3.534,2.567L3.502,3.286L3.57,4.276L3.785,5.273L4.165,6.233L4.421,6.687L4.725,7.117L4.824,7.299L4.861,7.491L4.84,7.688L4.764,7.883L4.464,8.242L3.989,8.52L2.904,9.035L2.034,9.628L1.357,10.27L0.848,10.95L0.4844,11.62L0.2426,12.28L0.09902,12.88L0.03027,13.41L0.0007812,13.78L0.05859,13.93L0.2199,14L7.782,14L8.136,12.9L6.396,11.54L6.07,11.2L5.868,10.79L5.8,10.33L5.877,9.867L6.096,9.442L6.427,9.114L6.843,8.903L7.316,8.828L9.417,8.828L9.597,8.288L9.519,8.242L9.217,7.883L9.141,7.688L9.12,7.491L9.157,7.299L9.256,7.117L9.562,6.687L9.819,6.233L10.2,5.273L10.42,4.276L10.48,3.286L10.45,2.567L10.34,1.924L10.13,1.362L9.813,0.8885L9.358,0.5092L8.753,0.2305L7.977,0.05859L7.014,0L6.959,0zz" fill="#6485C3"/>
    </g>
    <g id="overlay">
      <path d="M15.6839,10.0276h-2.9658l-0.9175,-2.7498c-0.0934,-0.29,-0.5078,-0.29,-0.6012,0l-0.9175,2.7498H7.3161c-0.3034,0,-0.4319,0.3826,-0.1889,0.5625l2.407,1.8821l-0.9227,2.8695c-0.093,0.2891,0.2431,0.5264,0.4889,0.3453L11.5,13.9195l2.3995,1.7674c0.2459,0.1811,0.5819,-0.0562,0.489,-0.3453l-0.9227,-2.8695l2.407,-1.8821C16.1158,10.4101,15.9873,10.0276,15.6839,10.0276z" fill="#EEAC55"/>
    </g>
  </g>
</svg>
