<?xml version="1.0" encoding="UTF-8"?>
<!DOCTYPE svg PUBLIC "-//W3C//DTD SVG 1.1//EN" "http://www.w3.org/Graphics/SVG/1.1/DTD/svg11.dtd">
<svg version="1.1" id="Layer_1" xmlns="http://www.w3.org/2000/svg" xmlns:xlink="http://www.w3.org/1999/xlink" x="0px" y="0px" width="16px" height="16px" viewBox="0 0 16 16" enable-background="new 0 0 16 16" xml:space="preserve">
  <g id="main">
    <g id="icon">
      <path d="M0.5,13.5L1.429,13.5L3.286,12.27L5.124,13.4L5.8,12.99L5.8,11.93L5.805,11.93L5.805,11.88L6.134,11.88L6.134,10.46L6.938,11.19L7.55,10.84L7.675,10.79L7.675,8.951L7.68,8.951L7.68,8.896L8.009,8.896L8.009,7.431L8.835,8.185L9.421,7.854L10.08,7.604L10.81,7.42L11.61,7.308L12.45,7.269L13.29,7.308L13.5,7.338L13.5,0.5967L12.58,0.6L10.79,1.734L8.838,0.601L7,1.734L5.143,0.601L3.267,1.734L1.462,0.5L0.5,0.5zz" fill="#FFFFFF" opacity="0.5"/>
      <path d="M0,14L1.579,14L3.296,12.87L5.122,13.99L5.8,13.58L5.8,12.41L5.127,12.81L3.276,11.67L1.278,13L1,13L1,1.003L1.309,1L3.249,2.329L5.142,1.186L7.001,2.321L8.846,1.184L10.81,2.325L12.73,0.9L13,0.9L13,7.295L13.29,7.308L14,7.409L14,0.09434L12.42,0.1L10.77,1.143L8.831,0.01836L6.999,1.147L5.144,0.01602L3.285,1.139L1.615,0L0,0zz" fill="#6D6E71"/>
      <path d="M2,5L12,5L12,4L2,4zz" fill="#6D6E71"/>
      <path d="M2,7L7,7L7,6L2,6zM2,9L7,9L7,8L2,8zz" fill="#6D6E71"/>
      <path d="M9,7L12,7L12,6L9,6zM9,8.092L9.163,8L9,8zz" fill="#B7B7B7"/>
      <path d="M7,11L7.273,11L7.55,10.84L7.675,10.79L7.675,10L7,10zz" fill="#9070B1"/>
    </g>
    <g id="overlay">
      <path d="M15.9998,10.096h-0.0031c-0.0378,-0.4498,-0.4025,-0.8572,-1.0366,-1.1542c-0.6504,-0.3047,-1.5412,-0.4724,-2.5082,-0.4724c-0.9732,0,-1.8697,0.1677,-2.5243,0.4723c-0.6382,0.297,-1.0053,0.7044,-1.0433,1.1543h-0.0041v0.0513c-0.0001,0.0011,-0.0003,0.0021,-0.0004,0.0032H8.875v1.3299c0,0.4155,0.389,0.8095,1.0953,1.1097c0.6735,0.2862,1.5722,0.4503,2.4658,0.4503c0.8931,0,1.7913,-0.1649,2.4643,-0.4524c0.6599,-0.2819,1.0425,-0.6462,1.0895,-1.0334c0.0067,-0.0388,0.0102,-0.0778,0.0102,-0.117v-1.2562L15.9998,10.096zM15.6295,10.7983c-0.6331,0.4933,-1.7756,0.8332,-3.1944,0.8332c-1.4483,0,-2.5783,-0.3335,-3.2259,-0.8413v-0.6366c0.3302,0.3018,0.3957,0.3789,0.8558,0.5686c0.6084,0.2508,1.4501,0.3852,2.3701,0.3852c1.7916,0,2.7541,-0.4667,3.1944,-0.9449V10.7983z" fill="#EEAC55"/>
      <path d="M15.6295,10.7983v-0.6357c-0.4402,0.4781,-1.4028,0.9449,-3.1944,0.9449c-0.9199,0,-1.7616,-0.1345,-2.3701,-0.3852c-0.4601,-0.1896,-0.5256,-0.2667,-0.8558,-0.5686v0.6366c0.6476,0.5078,1.7776,0.8413,3.2259,0.8413C13.8539,11.6315,14.9964,11.2916,15.6295,10.7983z" fill="#FFFFFF" opacity="0.5"/>
      <path d="M13.7545,13.36v0.451c-0.6331,0.4897,-1.7756,0.8271,-3.1944,0.8271c-1.4483,0,-2.5783,-0.331,-3.2259,-0.8351v-0.6324c0.3302,0.2996,0.3957,0.3761,0.8558,0.5643c0.6084,0.2489,1.4501,0.3824,2.3701,0.3824c1.513,0,2.4347,-0.3304,2.9499,-0.7189c-0.3507,0.0486,-0.7131,0.0743,-1.074,0.0743c-0.954,0,-1.9191,-0.1776,-2.6478,-0.4872c-0.9064,-0.3851,-1.2233,-0.8584,-1.3225,-1.2146c-0.1461,0.0487,-0.2845,0.1027,-0.4131,0.1621c-0.6382,0.2947,-1.0053,0.6992,-1.0433,1.1457h-0.0041v0.0509c-0.0001,0.0011,-0.0003,0.0021,-0.0004,0.0032H7v1.3189c0,0.4124,0.389,0.8035,1.0953,1.1014c0.6735,0.284,1.5722,0.4469,2.4658,0.4469c0.8931,0,1.7913,-0.1637,2.4643,-0.449c0.6599,-0.2798,1.0425,-0.6414,1.0895,-1.0257c0.0067,-0.0385,0.0102,-0.0772,0.0102,-0.1161v-1.1229C14.0039,13.3138,13.8802,13.3384,13.7545,13.36z" fill="#EEAC55"/>
      <path d="M13.51,13.3984c-0.5152,0.3886,-1.4369,0.7189,-2.9499,0.7189c-0.9199,0,-1.7616,-0.1335,-2.3701,-0.3824c-0.4601,-0.1882,-0.5256,-0.2647,-0.8558,-0.5643v0.6324c0.6476,0.504,1.7776,0.8351,3.2259,0.8351c1.4188,0,2.5613,-0.3374,3.1944,-0.8271v-0.451C13.6737,13.3739,13.5923,13.387,13.51,13.3984z" fill="#FFFFFF" opacity="0.5"/>
    </g>
  </g>
</svg>
