<?xml version="1.0" encoding="UTF-8"?>
<!DOCTYPE svg PUBLIC "-//W3C//DTD SVG 1.1//EN" "http://www.w3.org/Graphics/SVG/1.1/DTD/svg11.dtd">
<svg version="1.1" id="Layer_1" xmlns="http://www.w3.org/2000/svg" xmlns:xlink="http://www.w3.org/1999/xlink" x="0px" y="0px" width="16px" height="16px" viewBox="0 0 16 16" enable-background="new 0 0 16 16" xml:space="preserve">
  <g id="main">
    <g id="icon">
      <path d="M6.413,0.07305L5.848,0.1938L5.308,0.3824L4.798,0.6328L4.321,0.9395L3.907,1.288L3.549,1.687L3.248,2.125L3.003,2.592L2.816,3.09L2.702,3.607L2.681,3.867L2.679,3.925L2.497,4.036L2.356,4.188L2.264,4.372L2.231,4.581L2.231,5.987L2.292,6.269L2.459,6.5L2.707,6.656L3.01,6.713L3.257,6.675L3.472,6.57L3.901,6.803L4.452,6.995L5.009,7.113L5.303,7.146L5.428,7.151L5.592,7.341L5.848,7.416L6.4,7.416L6.576,7.382L6.72,7.292L6.817,7.158L6.852,6.994L6.817,6.83L6.72,6.696L6.576,6.605L6.4,6.572L5.848,6.572L5.644,6.618L5.488,6.739L5.175,6.708L4.895,6.666L4.35,6.512L3.821,6.272L3.744,6.227L3.788,5.987L3.788,4.581L3.757,4.377L3.669,4.195L3.533,4.045L3.359,3.933L3.359,3.921L3.365,3.846L3.459,3.317L3.643,2.807L3.909,2.332L4.248,1.9L4.652,1.518L5.121,1.197L5.636,0.9453L6.172,0.7744L6.741,0.6895L7.333,0.6785L7.901,0.7531L8.454,0.9062L8.974,1.143L9.443,1.447L9.86,1.811L10.21,2.223L10.49,2.676L10.69,3.184L10.8,3.714L10.82,3.846L10.83,3.943L10.66,4.056L10.53,4.205L10.45,4.383L10.42,4.581L10.42,5.987L10.48,6.269L10.65,6.5L10.89,6.656L11.2,6.713L11.5,6.656L11.75,6.5L11.91,6.269L11.98,5.987L11.98,4.581L11.94,4.369L11.85,4.182L11.7,4.029L11.52,3.919L11.51,3.795L11.48,3.511L11.35,2.982L11.14,2.474L10.88,2.024L10.56,1.586L10.17,1.192L9.73,0.8428L9.248,0.5537L8.734,0.3207L8.171,0.1572L7.59,0.05723L7.002,0.02695zz" fill="#6485C3"/>
      <path d="M4.995,8.607L4.744,8.839L4.766,8.964L4.492,9.074L3.563,9.537L2.819,10.07L2.239,10.65L1.804,11.25L1.493,11.86L1.286,12.44L1.163,12.99L1.105,13.46L1.096,13.57L4.8,13.57L4.801,13.16L4.869,12.48L5.065,11.85L5.375,11.28L5.784,10.79L6.28,10.38L6.849,10.07L7.477,9.869L8.151,9.8L10.96,9.823L10.98,9.822L10.48,9.502L9.678,9.12L9.408,9.026L9.454,8.839L9.213,8.614L8.822,8.321L8.425,8.681L8.003,8.944L7.563,9.104L7.111,9.158L6.657,9.103L6.214,8.941L5.791,8.676L5.391,8.312zz" fill="#FFFFFF" opacity="0.5"/>
      <path d="M9.212,8.974L8.69,9.4L8.169,9.706L7.807,9.835L8.151,9.8L10.96,9.823L11.32,9.803L11.49,9.803L10.88,9.379L9.9,8.899L9.447,8.744zM4.293,8.907L3.314,9.389L2.53,9.941L1.919,10.54L1.46,11.17L1.131,11.79L0.9123,12.4L0.7822,12.96L0.7197,13.45L0.6926,13.79L0.7459,13.94L0.8938,14L4.812,14L4.8,13.86L4.801,13.16L4.869,12.48L5.065,11.85L5.375,11.28L5.784,10.79L6.28,10.38L6.849,10.07L7.24,9.943L7.135,9.956L7.119,9.956L6.599,9.895L6.072,9.711L5.54,9.405L5.003,8.98L4.758,8.747zz" fill="#6485C3"/>
      <path d="M6.545,1.711L6.018,1.855L5.541,2.094L5.125,2.425L4.782,2.847L4.523,3.358L4.36,3.956L4.303,4.64L4.358,5.357L4.514,6.071L4.515,6.072L5.014,6.212L5.159,6.235L5.248,6.246L5.321,6.255L5.57,6.144L5.848,6.105L6.401,6.105L6.769,6.175L7.07,6.366L7.273,6.648L7.347,6.994L7.273,7.339L7.07,7.622L6.769,7.813L6.401,7.883L5.848,7.883L5.583,7.847L5.345,7.746L5.73,8.17L6.158,8.496L6.621,8.706L7.111,8.78L7.677,8.681L8.204,8.405L8.681,7.98L9.097,7.436L9.44,6.801L9.699,6.104L9.863,5.374L9.92,4.64L9.863,3.956L9.699,3.358L9.44,2.847L9.097,2.425L8.681,2.094L8.204,1.855L7.677,1.711L7.111,1.662zz" fill="#FFFFFF" opacity="0.5"/>
      <path d="M6.458,1.289L5.849,1.46L5.301,1.738L4.826,2.117L4.522,2.469L4.276,2.866L4.087,3.305L3.957,3.784L4.198,4.15L4.284,4.581L4.284,5.974L4.515,6.072L5.014,6.212L5.016,6.213L4.806,5.427L4.731,4.64L4.766,4.142L5.267,3.819L5.669,3.716L6.012,3.763L6.336,3.89L6.681,4.026L7.063,4.088L7.443,4.028L7.788,3.898L8.126,3.773L8.493,3.729L8.926,3.847L9.465,4.202L9.492,4.64L9.442,5.279L9.3,5.924L9.077,6.547L8.782,7.12L8.428,7.615L8.024,8.004L7.582,8.258L7.111,8.348L6.833,8.316L6.563,8.224L6.055,7.883L5.848,7.883L5.468,7.808L5.157,7.602L4.933,7.575L4.681,7.531L4.766,7.67L5.278,8.33L5.849,8.813L6.465,9.11L6.785,9.186L7.111,9.211L7.438,9.186L7.758,9.11L8.374,8.813L8.945,8.33L9.457,7.67L9.777,7.092L10.03,6.464L9.952,6.234L9.924,5.987L9.924,4.581L10.01,4.144L10.26,3.773L10.13,3.298L9.944,2.861L9.699,2.467L9.397,2.117L8.922,1.738L8.373,1.46L7.765,1.289L7.111,1.231zz" fill="#6485C3"/>
    </g>
    <g id="overlay">
      <path d="M8.1369,16c-0.5693,0,-1.1055,-0.2231,-1.5099,-0.6281c-0.4048,-0.4053,-0.6274,-0.9428,-0.6269,-1.5134l0.0005,-0.6985c0.001,-1.19,0.966,-2.1589,2.1512,-2.1599l1.1698,0.0097l-0.4037,0.3559c-0.2242,0.1976,-0.4074,0.432,-0.5444,0.6967l-0.0566,0.1093l-0.1648,-0.0062c-0.5466,0.0003,-0.99,0.4469,-0.9905,0.9953l-0.0004,0.6866c-0.0002,0.2597,0.1022,0.5048,0.2885,0.6902c0.1858,0.185,0.4314,0.2869,0.6915,0.2869l2.4681,-0.0026c0.5422,-0.0004,0.9837,-0.4403,0.9842,-0.9805l-0.0003,-0.1468c-0.0001,-0.1526,-0.0355,-0.3004,-0.1053,-0.4394l-0.091,-0.1817l0.1845,-0.0876c0.1026,-0.0488,0.2115,-0.0735,0.3238,-0.0736l0.7061,0.002l0.0444,0.1409c0.0659,0.2087,0.0993,0.4259,0.0995,0.6456l0.0003,0.1526c-0.001,1.1811,-0.9612,2.143,-2.1404,2.144L8.1369,16L8.1369,16z" fill="#9070B1"/>
      <path d="M12.6154,15.9903l0.4036,-0.3558c0.2242,-0.1976,0.4074,-0.432,0.5445,-0.6967l0.0568,-0.1096l0.2282,0.0065c0.5461,-0.0004,0.9896,-0.447,0.99,-0.9954l0.0004,-0.6866c0.0002,-0.2596,-0.1021,-0.5047,-0.2884,-0.6902c-0.1859,-0.185,-0.4315,-0.2869,-0.6915,-0.2869l-2.5312,0.0026c-0.5422,0.0004,-0.9837,0.4403,-0.9842,0.9805l0.0003,0.1468c0.0001,0.1526,0.0355,0.3004,0.1053,0.4394l0.091,0.1817l-0.1845,0.0876c-0.1026,0.0488,-0.2115,0.0735,-0.3238,0.0736l-0.7061,-0.002l-0.0444,-0.1409c-0.0659,-0.2087,-0.0993,-0.4259,-0.0995,-0.6456l-0.0003,-0.1526c0.001,-1.1811,0.9612,-2.143,2.1404,-2.144L13.8632,11c0.5693,0,1.1055,0.2231,1.5099,0.6281c0.4048,0.4053,0.6274,0.9428,0.6269,1.5134l-0.0005,0.6985c-0.001,1.1899,-0.9659,2.1588,-2.151,2.1599L12.6154,15.9903z" fill="#9070B1"/>
    </g>
  </g>
</svg>
