<?xml version="1.0" encoding="UTF-8"?>
<!DOCTYPE svg PUBLIC "-//W3C//DTD SVG 1.1//EN" "http://www.w3.org/Graphics/SVG/1.1/DTD/svg11.dtd">
<svg version="1.1" id="Layer_1" xmlns="http://www.w3.org/2000/svg" xmlns:xlink="http://www.w3.org/1999/xlink" x="0px" y="0px" width="16px" height="16px" viewBox="0 0 16 16" enable-background="new 0 0 16 16" xml:space="preserve">
  <g id="main">
    <g id="icon">
      <path d="M5.999,0.05859L5.227,0.2305L4.624,0.5092L4.171,0.8885L3.851,1.362L3.645,1.924L3.534,2.567L3.502,3.286L3.57,4.276L3.785,5.273L4.165,6.233L4.421,6.687L4.725,7.117L4.824,7.299L4.861,7.491L4.84,7.688L4.764,7.883L4.464,8.242L3.989,8.52L2.904,9.035L2.034,9.628L1.357,10.27L0.848,10.95L0.4844,11.62L0.2426,12.28L0.09902,12.88L0.03027,13.41L0.0007812,13.78L0.05859,13.93L0.2199,14L10.28,14L10.28,13.71L10.28,11.62L9.943,11.34L9.65,11.02L9.397,10.66L9.187,10.28L9.02,9.86L8.899,9.418L8.825,8.951L8.8,8.464L8.85,7.85L8.996,7.263L9.232,6.712L9.551,6.204L9.946,5.75L10.04,5.668L10.2,5.273L10.42,4.276L10.48,3.286L10.45,2.567L10.34,1.924L10.13,1.362L9.813,0.8885L9.358,0.5092L8.753,0.2305L7.977,0.05859L7.014,0L6.959,0zz" fill="#6485C3"/>
    </g>
    <g id="overlay">
      <path d="M15.9,8.4642c0.0002,1.0818,-0.494,2.0447,-1.4747,2.4736l0.0004,2.7759l-0.0016,0.7606l0.0001,0.4922c0.0001,0.5336,-0.4374,0.966,-0.9771,0.966l-0.9956,-0.0001c-0.5397,-0.0001,-0.9772,-0.4327,-0.9773,-0.9662l-0.0001,-0.528l0.0016,-0.7247l-0.0004,-2.7759c-0.9807,-0.4291,-1.4752,-1.3921,-1.4753,-2.474c-0.0002,-1.1462,0.7719,-2.1614,1.894,-2.526L12.0092,5.9l0.0003,1.9495c0.0001,0.5889,0.2921,1.0957,0.8871,1.1235c0.6353,0.0297,1.0938,-0.4707,1.0937,-1.0923l-0.0003,-1.9804l0.1152,0.0375C15.2274,6.3027,15.8998,7.318,15.9,8.4642z" fill="#6D6E71"/>
    </g>
  </g>
</svg>
