<?xml version="1.0" encoding="UTF-8"?>
<!DOCTYPE svg PUBLIC "-//W3C//DTD SVG 1.1//EN" "http://www.w3.org/Graphics/SVG/1.1/DTD/svg11.dtd">
<svg version="1.1" id="Layer_1" xmlns="http://www.w3.org/2000/svg" xmlns:xlink="http://www.w3.org/1999/xlink" x="0px" y="0px" width="16px" height="16px" viewBox="0 0 16 16" enable-background="new 0 0 16 16" xml:space="preserve">
  <g id="main">
    <g id="icon">
      <path d="M1.136,0.5785L0.818,0.793L0.6035,1.111L0.525,1.5L0.5,12L0.5305,12.3L0.618,12.58L0.7562,12.84L0.9393,13.06L1.161,13.24L1.416,13.38L1.698,13.47L2,13.5L8.985,13.5L8.274,12.45L4.176,12.41L6.702,9.189L5.476,5.295L9.321,6.691L12.5,4.433L12.5,2.5L12.01,2.207L11.68,1.889L11.57,1.702L11.52,1.5L11.55,1.111L11.66,0.793L11.77,0.6707L11.92,0.5785L12.38,0.5L1.525,0.5zz" fill="#FFFFFF" opacity="0.4"/>
      <path d="M1.009,0.09141L0.5707,0.3436L0.2418,0.724L0.05527,1.2L0,1.2L0,12L0.04062,12.4L0.1574,12.78L0.342,13.12L0.5865,13.41L0.8826,13.66L1.222,13.84L1.597,13.96L2,14L9.323,14L8.647,13L2,13L1.611,12.92L1.293,12.71L1.079,12.39L1,12L1,2.903L1.254,2.975L1.525,3L12,3L12,4.788L12.66,4.322L12.51,8.402L13,8.764L13,2L12.78,2L12.52,1.952L12.28,1.831L12.1,1.669L12.02,1.5L12.1,1.337L12.29,1.175L12.59,1.05L12.98,1L12.98,0L1.525,0zM11.14,1L11.05,1.243L11.02,1.5L11.05,1.758L11.14,2L1.525,2L1.33,1.961L1.172,1.853L1.064,1.695L1.025,1.5L1.064,1.305L1.172,1.147L1.33,1.039L1.525,1zz" fill="#6D6E71"/>
      <path d="M3,9L6.642,9L5.476,5.295L9.321,6.691L10,6.209L10,5L3,5zz" fill="#6485C3"/>
    </g>
    <g id="overlay">
      <polygon points="11.1764,11.2512 11.8756,11.0513 16,15.1449 15.1761,15.96 10.9901,11.8041" fill="#6D6E71" stroke-linejoin="miter"/>
      <path d="M9.503,8.0335l1.8673,-1.326l-0.0815,2.2839l1.8404,1.3603l-2.2033,0.6301l-0.73,2.1668l-1.2801,-1.8944l-0.0001,0l-2.2915,-0.0212l1.4121,-1.801l-0.6863,-2.1799l2.1528,0.7814C9.5028,8.0335,9.5029,8.0335,9.503,8.0335z" fill="#EEAC55"/>
    </g>
  </g>
</svg>
