<?xml version="1.0" encoding="UTF-8"?>
<!DOCTYPE svg PUBLIC "-//W3C//DTD SVG 1.1//EN" "http://www.w3.org/Graphics/SVG/1.1/DTD/svg11.dtd">
<svg version="1.1" id="Layer_1" xmlns="http://www.w3.org/2000/svg" xmlns:xlink="http://www.w3.org/1999/xlink" x="0px" y="0px" width="16px" height="16px" viewBox="0 0 16 16" enable-background="new 0 0 16 16" xml:space="preserve">
  <g id="icon">
    <path d="M3.5782,5.6644h-0.6946l-0.3696,2.908c-0.0141,0.2306,-0.2088,0.4106,-0.4443,0.4106H0.0696l-0.0188,0.0789h0.083c-0.0236,0.1014,-0.0463,0.1998,-0.0675,0.2934c-0.0149,0.0657,-0.04,0.1783,-0.0546,0.2922h2.3258c0.4633,0,0.8444,-0.3582,0.8642,-0.8125L3.5782,5.6644z" fill="#FFFFFF" opacity="0.5"/>
    <path d="M4.6333,13.4025c0,0.8808,-0.7163,1.5949,-1.6,1.5949s-1.6,-0.7141,-1.6,-1.5949c0,-0.8808,0.7163,-1.5949,1.6,-1.5949S4.6333,12.5217,4.6333,13.4025zM13.1667,11.8076c-0.8837,0,-1.6,0.7141,-1.6,1.5949c0,0.8808,0.7163,1.5949,1.6,1.5949c0.8837,0,1.6,-0.7141,1.6,-1.5949C14.7667,12.5217,14.0503,11.8076,13.1667,11.8076z" fill="#FFFFFF" opacity="0.5"/>
    <path d="M3.5782,5.6644h1.7551v6.2727c-0.4821,-0.7947,-1.3612,-1.3278,-2.364,-1.3278c-1.3857,0,-2.5353,1.0179,-2.727,2.3378C0.1086,12.897,0,12.7821,0,12.6412c0,0,0,-1.6427,0,-2.8378c0,-0.0492,0.0048,-0.1026,0.0116,-0.1558h2.3258c0.4633,0,0.8444,-0.3582,0.8642,-0.8125L3.5782,5.6644zM15.346,3.0063H6.6029c-0.333,0,-0.6029,0.2668,-0.6029,0.596v9.3721l4.3511,-0.0096c0.183,-1.3285,1.33,-2.3554,2.7141,-2.3554c1.3875,0,2.5366,1.0319,2.7153,2.365H16V3.6315C16,3.2531,15.7264,3.0063,15.346,3.0063zM14,8H8V5h6V8z" fill="#6D6E71"/>
    <path d="M14,8H8V5h6V8z" fill="#FFFFFF" opacity="0.5"/>
    <path d="M13.0888,15.4739c-1.1641,0,-2.1112,-0.9427,-2.1112,-2.1014c0,-1.1587,0.9471,-2.1014,2.1112,-2.1014S15.2,12.2138,15.2,13.3725C15.2,14.5313,14.2529,15.4739,13.0888,15.4739zM13.0888,12.3831c-0.5463,0,-0.9906,0.4439,-0.9906,0.9895c0,0.5456,0.4444,0.9895,0.9906,0.9895c0.5463,0,0.9907,-0.4439,0.9907,-0.9895C14.0795,12.827,13.6351,12.3831,13.0888,12.3831zM3.0142,15.4739c-1.172,0,-2.1255,-0.9427,-2.1255,-2.1014c0,-1.1587,0.9535,-2.1014,2.1255,-2.1014s2.1255,0.9427,2.1255,2.1014C5.1396,14.5313,4.1862,15.4739,3.0142,15.4739zM3.0142,12.3831c-0.5511,0,-0.9994,0.4439,-0.9994,0.9895c0,0.5456,0.4483,0.9895,0.9994,0.9895s0.9994,-0.4439,0.9994,-0.9895C4.0136,12.827,3.5653,12.3831,3.0142,12.3831z" fill="#6D6E71"/>
    <path d="M2.0697,8.983H0.0696l0.6082,-2.5561c0.066,-0.2266,0.2058,-0.4171,0.3891,-0.5502c0.1487,-0.1506,0.356,-0.2123,0.5135,-0.2123h1.3032l-0.3696,2.908C2.4999,8.803,2.3052,8.983,2.0697,8.983z" fill="#6485C3"/>
  </g>
</svg>
