<?xml version="1.0" encoding="UTF-8"?>
<!DOCTYPE svg PUBLIC "-//W3C//DTD SVG 1.1//EN" "http://www.w3.org/Graphics/SVG/1.1/DTD/svg11.dtd">
<svg version="1.1" id="Layer_1" xmlns="http://www.w3.org/2000/svg" xmlns:xlink="http://www.w3.org/1999/xlink" x="0px" y="0px" width="16px" height="16px" viewBox="0 0 16 16" enable-background="new 0 0 16 16" xml:space="preserve">
  <g id="main">
    <g id="icon">
      <path d="M5.999,0.05859L5.227,0.2305L4.624,0.5092L4.171,0.8885L3.851,1.362L3.645,1.924L3.534,2.567L3.502,3.286L3.57,4.276L3.785,5.273L4.165,6.233L4.421,6.687L4.725,7.117L4.824,7.299L4.861,7.491L4.84,7.688L4.764,7.883L4.464,8.242L3.989,8.52L2.904,9.035L2.034,9.628L1.357,10.27L0.848,10.95L0.4844,11.62L0.2426,12.28L0.09902,12.88L0.03027,13.41L0.0007812,13.78L0.05859,13.93L0.2199,14L6.382,14L6.145,13.45L5.956,12.83L5.84,12.18L5.8,11.5L5.829,10.92L5.916,10.35L6.057,9.807L6.249,9.283L6.489,8.785L6.775,8.315L7.103,7.876L7.471,7.471L7.876,7.103L8.315,6.775L8.785,6.489L9.283,6.249L9.807,6.057L9.898,6.033L10.2,5.273L10.42,4.276L10.48,3.286L10.45,2.567L10.34,1.924L10.13,1.362L9.813,0.8885L9.358,0.5092L8.753,0.2305L7.977,0.05859L7.014,0L6.959,0zz" fill="#6485C3"/>
    </g>
    <g id="overlay">
      <path d="M11.5,7c-2.4853,0,-4.5,2.0147,-4.5,4.5s2.0147,4.5,4.5,4.5c2.4853,0,4.5,-2.0147,4.5,-4.5S13.9853,7,11.5,7zM10.7004,14.1607l-2.4222,-2.4221l1,-1l1.4214,1.4214l2.9821,-2.9071l1.0001,1.0001L10.7004,14.1607z" fill="#52B250"/>
      <polygon points="8.2782,11.7386 9.2783,10.7385 10.6997,12.1599 13.6817,9.2528 14.6819,10.2529 10.7004,14.1607" fill="#FFFFFF" stroke-linejoin="miter"/>
    </g>
  </g>
</svg>
