<?xml version="1.0" encoding="UTF-8"?>
<!DOCTYPE svg PUBLIC "-//W3C//DTD SVG 1.1//EN" "http://www.w3.org/Graphics/SVG/1.1/DTD/svg11.dtd">
<svg version="1.1" id="Layer_1" xmlns="http://www.w3.org/2000/svg" xmlns:xlink="http://www.w3.org/1999/xlink" x="0px" y="0px" width="16px" height="16px" viewBox="0 0 16 16" enable-background="new 0 0 16 16" xml:space="preserve">
  <g id="main">
    <g id="icon">
      <path d="M1,13L8.395,13L8.567,12.88L8.369,12.17L8.301,11.41L8.335,10.89L8.434,10.42L8.598,10.01L8.826,9.66L9.115,9.366L9.465,9.132L9.874,8.96L10.34,8.849L10.45,8.381L10.62,7.97L10.86,7.619L11.16,7.328L11.53,7.099L11.95,6.935L12.44,6.835L12.98,6.801L13,6.801L13,3L1,3zz" fill="#FFFFFF" opacity="0.4"/>
      <path d="M0,14L7.385,14L7.397,13.98L7.696,13.59L8.083,13.22L8.395,13L1,13L1,3L13,3L13,6.801L13.01,6.801L13.62,6.844L14,6.935L14,2L0,2zz" fill="#6D6E71"/>
      <path d="M0,3L14,3L14,0L0,0zz" fill="#6485C3"/>
      <path d="M3,12L8.354,12L8.301,11.41L8.328,11L7.5,11L7.5,9L9.779,9L9.874,8.96L10.34,8.849L10.45,8.381L10.62,7.97L10.86,7.619L11,7.484L11,5L3,5zM6.5,6L6.5,8L4,8L4,6zM10,6L10,8L7.5,8L7.5,6zM6.5,9L6.5,11L4,11L4,9zz" fill="#7B7B7B"/>
    </g>
    <g id="overlay">
      <path d="M13.9056,16c0.0551,0,0.0985,-0.0438,0.0943,-0.0951l-0.0127,-0.1576c-0.0448,-0.5537,-0.3257,-1.5622,-1.7031,-2.0955c-0.3166,-0.1266,-0.4671,-0.4015,-0.3166,-0.6015c0.3764,-0.475,0.5263,-1.0851,0.5263,-1.6417c0,-0.862,-0.2722,-1.408,-1.4873,-1.408h-0.0236c-1.2104,0,-1.4815,0.546,-1.4815,1.408c0,0.5566,0.1493,1.1667,0.5243,1.6417c0.15,0.2,0,0.475,-0.3153,0.6015c-1.3721,0.5333,-1.6518,1.5418,-1.6965,2.0955l-0.0127,0.1576c-0.0041,0.0513,0.0391,0.0951,0.094,0.0951H13.9056z" fill="#6485C3"/>
      <path d="M15.987,13.7475c-0.0448,-0.5537,-0.3257,-1.5622,-1.7031,-2.0955c-0.3166,-0.1266,-0.4671,-0.4015,-0.3166,-0.6015c0.3764,-0.475,0.5263,-1.0851,0.5263,-1.6417c0,-0.862,-0.2722,-1.408,-1.4873,-1.408h-0.0236c-1.2104,0,-1.4815,0.546,-1.4815,1.408c0,0.0246,0.0006,0.0494,0.0012,0.0742c1.0359,0.1446,1.5414,0.7783,1.5414,1.9256c0,0.6517,-0.1712,1.2663,-0.4864,1.7601c0.5477,0.2238,0.9441,0.5183,1.2318,0.8315h2.1161c0.0551,0,0.0985,-0.0438,0.0943,-0.0951L15.987,13.7475z" fill="#6485C3"/>
    </g>
  </g>
</svg>
