<?xml version="1.0" encoding="UTF-8"?>
<!DOCTYPE svg PUBLIC "-//W3C//DTD SVG 1.1//EN" "http://www.w3.org/Graphics/SVG/1.1/DTD/svg11.dtd">
<svg version="1.1" id="Layer_1" xmlns="http://www.w3.org/2000/svg" xmlns:xlink="http://www.w3.org/1999/xlink" x="0px" y="0px" width="16px" height="16px" viewBox="0 0 16 16" enable-background="new 0 0 16 16" xml:space="preserve">
  <g id="main">
    <g id="icon">
      <path d="M6.329,0.4713L5.677,0.5709L5.048,0.7326L4.446,0.9531L3.872,1.229L3.331,1.558L2.826,1.936L2.36,2.36L1.936,2.826L1.558,3.331L1.229,3.872L0.9531,4.446L0.7326,5.048L0.5709,5.677L0.4713,6.329L0.4375,7L0.4713,7.671L0.5709,8.323L0.7326,8.952L0.9531,9.554L1.229,10.13L1.558,10.67L1.936,11.17L2.36,11.64L2.826,12.06L3.331,12.44L3.872,12.77L4.446,13.05L5.048,13.27L5.677,13.43L6.167,13.5L6.145,13.45L5.956,12.83L5.84,12.18L5.8,11.5L5.829,10.92L5.916,10.35L6.057,9.807L6.249,9.283L6.489,8.785L6.775,8.315L7.103,7.876L7.471,7.471L7.876,7.103L8.315,6.775L8.785,6.489L9.283,6.249L9.807,6.057L10.35,5.916L10.92,5.829L11.5,5.8L12.18,5.84L12.83,5.956L13.45,6.145L13.5,6.167L13.43,5.677L13.27,5.048L13.05,4.446L12.77,3.872L12.44,3.331L12.06,2.826L11.64,2.36L11.17,1.936L10.67,1.558L10.13,1.229L9.554,0.9531L8.952,0.7326L8.323,0.5709L7.671,0.4713L7,0.4375zz" fill="#FFFFFF" opacity="0.5"/>
      <path d="M6.285,0.03613L5.591,0.1424L4.921,0.3152L4.278,0.551L3.666,0.8461L3.089,1.197L2.55,1.6L2.053,2.053L1.6,2.55L1.197,3.089L0.8461,3.666L0.551,4.278L0.3152,4.921L0.1424,5.591L0.03613,6.285L0,7L0.03613,7.715L0.1424,8.409L0.3152,9.079L0.551,9.722L0.8461,10.33L1.197,10.91L1.6,11.45L2.053,11.95L2.55,12.4L3.089,12.8L3.666,13.15L4.278,13.45L4.921,13.68L5.591,13.86L6.285,13.96L6.368,13.97L6.145,13.45L5.968,12.87L5.8,12.84L5.229,12.69L4.681,12.49L4.16,12.24L3.668,11.94L3.209,11.6L2.786,11.21L2.4,10.79L2.057,10.33L1.758,9.84L1.506,9.319L1.305,8.771L1.158,8.2L1.068,7.609L1.037,7L1.068,6.391L1.158,5.8L1.305,5.229L1.506,4.681L1.758,4.16L2.057,3.668L2.4,3.209L2.786,2.786L3.209,2.4L3.668,2.057L4.16,1.758L4.681,1.506L5.229,1.305L5.8,1.158L6.391,1.068L7,1.037L7.609,1.068L8.2,1.158L8.771,1.305L9.319,1.506L9.84,1.758L10.33,2.057L10.79,2.4L11.21,2.786L11.6,3.209L11.94,3.668L12.24,4.16L12.49,4.681L12.69,5.229L12.84,5.8L12.87,5.968L13.45,6.145L13.97,6.368L13.96,6.285L13.86,5.591L13.68,4.921L13.45,4.278L13.15,3.666L12.8,3.089L12.4,2.55L11.95,2.053L11.45,1.6L10.91,1.197L10.33,0.8461L9.722,0.551L9.079,0.3152L8.409,0.1424L7.715,0.03613L7,0zz" fill="#6D6E71"/>
      <path d="M6.533,7.534L7.021,7.986L7.103,7.876L7.471,7.471L7.647,7.312L7.467,7.141L7.467,1.867L6.533,1.867zz" fill="#6485C3"/>
      <path d="M3.15,4.025L4.025,4.025L4.025,3.15L3.15,3.15zM9.975,4.025L10.85,4.025L10.85,3.15L9.975,3.15zM1.75,7.438L2.625,7.438L2.625,6.562L1.75,6.562zM3.15,10.85L4.025,10.85L4.025,9.975L3.15,9.975zz" fill="#7B7B7B"/>
    </g>
    <g id="overlay">
      <path d="M11.5,7c-2.4853,0,-4.5,2.0147,-4.5,4.5s2.0147,4.5,4.5,4.5c2.4853,0,4.5,-2.0147,4.5,-4.5S13.9853,7,11.5,7zM10.7004,14.1607l-2.4222,-2.4221l1,-1l1.4214,1.4214l2.9821,-2.9071l1.0001,1.0001L10.7004,14.1607z" fill="#52B250"/>
      <polygon points="8.2782,11.7386 9.2783,10.7385 10.6997,12.1599 13.6817,9.2528 14.6819,10.2529 10.7004,14.1607" fill="#FFFFFF" stroke-linejoin="miter"/>
    </g>
  </g>
</svg>
