<?xml version="1.0" encoding="UTF-8"?>
<!DOCTYPE svg PUBLIC "-//W3C//DTD SVG 1.1//EN" "http://www.w3.org/Graphics/SVG/1.1/DTD/svg11.dtd">
<svg version="1.1" id="Layer_1" xmlns="http://www.w3.org/2000/svg" xmlns:xlink="http://www.w3.org/1999/xlink" x="0px" y="0px" width="16px" height="16px" viewBox="0 0 16 16" enable-background="new 0 0 16 16" xml:space="preserve">
  <g id="main">
    <g id="icon">
      <path d="M9.44,0.1496L9.215,0.2986L5.136,4.378L7.868,7.111L7.876,7.103L8.315,6.775L8.785,6.489L9.283,6.249L9.807,6.057L10.35,5.916L10.92,5.829L11.5,5.8L12.18,5.84L12.74,5.941L13.8,4.885L13.95,4.66L14,4.405L13.95,4.15L13.8,3.925L10.17,0.2986L9.95,0.1496L9.695,0.1zz" fill="#CB525D"/>
      <path d="M0.2986,9.215L0.1496,9.44L0.1,9.695L0.1496,9.95L0.2986,10.17L3.925,13.8L4.15,13.95L4.405,14L4.66,13.95L4.885,13.8L5.941,12.74L5.84,12.18L5.8,11.5L5.829,10.92L5.916,10.35L6.057,9.807L6.249,9.283L6.489,8.785L6.775,8.315L7.103,7.876L7.221,7.747L4.494,5.02zz" fill="#6485C3"/>
      <path d="M4.494,5.02L7.221,7.747L7.471,7.471L7.868,7.111L5.136,4.378zz" fill="#FFFFFF" opacity="0.6"/>
    </g>
    <g id="overlay">
      <path d="M11.5,7c-2.4853,0,-4.5,2.0147,-4.5,4.5s2.0147,4.5,4.5,4.5c2.4853,0,4.5,-2.0147,4.5,-4.5S13.9853,7,11.5,7zM10.7004,14.1607l-2.4222,-2.4221l1,-1l1.4214,1.4214l2.9821,-2.9071l1.0001,1.0001L10.7004,14.1607z" fill="#52B250"/>
      <polygon points="8.2782,11.7386 9.2783,10.7385 10.6997,12.1599 13.6817,9.2528 14.6819,10.2529 10.7004,14.1607" fill="#FFFFFF" stroke-linejoin="miter"/>
    </g>
  </g>
</svg>
