<?xml version="1.0" encoding="UTF-8"?>
<!DOCTYPE svg PUBLIC "-//W3C//DTD SVG 1.1//EN" "http://www.w3.org/Graphics/SVG/1.1/DTD/svg11.dtd">
<svg version="1.1" id="Layer_1" xmlns="http://www.w3.org/2000/svg" xmlns:xlink="http://www.w3.org/1999/xlink" x="0px" y="0px" width="16px" height="16px" viewBox="0 0 16 16" enable-background="new 0 0 16 16" xml:space="preserve">
  <g id="main">
    <g id="icon">
      <path d="M11.44,2.15L11.22,2.299L10.37,3.139L10.48,3.316L9.824,3.69L8.803,4.711L8.817,4.763L8.982,4.929L10.48,5.784L9.028,8.27L11.72,10.96L15.8,6.885L15.95,6.66L16,6.405L15.95,6.15L15.8,5.925L12.17,2.299L11.95,2.15L11.69,2.1zz" fill="#CB525D"/>
      <path d="M6.617,8.193L6.461,8.346L6.4,8.57L6.4,10.2L4.7,10.2L3.314,10.2L2.299,11.22L2.15,11.44L2.1,11.69L2.15,11.95L2.299,12.17L5.925,15.8L6.15,15.95L6.405,16L6.66,15.95L6.885,15.8L11.08,11.61L8.48,9.007L7.053,8.191L6.828,8.133zz" fill="#6485C3"/>
      <path d="M8.568,9.057L8.48,9.007L11.08,11.61L11.72,10.96L9.028,8.27zz" fill="#FFFFFF" opacity="0.6"/>
    </g>
    <g id="overlay">
      <polygon points="3.8,9 3.8,5.7501 0.8689,7.425 0.1689,6.225 3.1,4.55 0.1689,2.875 0.8689,1.675 3.8,3.3499 3.8,0 5.2,0 5.2,3.3499 8.1311,1.675 8.8311,2.875 5.9,4.55 8.8311,6.225 8.1311,7.425 5.2,5.7501 5.2,9" fill="#EEAC55" stroke-linejoin="miter"/>
    </g>
  </g>
</svg>
