<?xml version="1.0" encoding="UTF-8"?>
<!DOCTYPE svg PUBLIC "-//W3C//DTD SVG 1.1//EN" "http://www.w3.org/Graphics/SVG/1.1/DTD/svg11.dtd">
<svg version="1.1" id="Layer_1" xmlns="http://www.w3.org/2000/svg" xmlns:xlink="http://www.w3.org/1999/xlink" x="0px" y="0px" width="16px" height="16px" viewBox="0 0 16 16" enable-background="new 0 0 16 16" xml:space="preserve">
  <g id="main">
    <g id="icon">
      <path d="M0,14L6.8,14L6.8,13L1,13L1,1L9,1L9,5.012L13,5L13,6.313L14,7.23L14,4.65L9.362,0L0,0zz" fill="#6D6E71"/>
      <path d="M1,13L6.8,13L6.8,10.16L12.05,5.44L13,6.313L13,5L9,5.012L9,1L1,1zz" fill="#FFFFFF" opacity="0.4"/>
      <path d="M2,4L8,4L8,3L2,3zM2,6L8,6L8,5L2,5zz" fill="#B7B7B7"/>
      <path d="M6.497,7.455L5.895,7.55L5.09,7.737L4.225,8.053L3.832,8.266L3.496,8.522L3.244,8.823L3.097,9.173L3.069,9.426L3.098,9.633L3.246,9.917L3.414,10.07L2.757,10.54L2.222,11.07L2.102,11.22L2.005,11.44L2.033,11.68L2.178,11.87L2.401,11.96L3.001,12L3.576,11.97L4.175,11.87L4.774,11.71L5.349,11.46L5.546,11.6L5.901,11.71L6.307,11.71L6.733,11.61L6.8,11.57L6.8,10.46L6.693,10.58L6.462,10.72L6.24,10.79L6.06,10.8L6.022,10.58L5.882,10.4L5.605,10.31L5.326,10.4L4.952,10.63L4.534,10.81L3.638,11.03L4.371,10.56L5.069,10.16L5.267,9.947L5.296,9.656L5.142,9.406L4.869,9.299L4.471,9.306L4.025,9.312L4.253,9.093L4.683,8.861L5.295,8.641L6.064,8.457L6.85,8.354L6.703,8.462L6.234,8.859L6.142,9.018L6.118,9.193L6.162,9.364L6.272,9.511L6.43,9.603L6.605,9.627L6.777,9.583L6.923,9.473L7.24,9.213L7.632,8.888L7.79,8.665L7.884,8.386L7.893,8.132L7.845,7.933L7.681,7.685L7.384,7.502L6.991,7.433zz" fill="#6485C3"/>
    </g>
    <g id="overlay">
      <polygon points="12.04,7.0609 8,10.6902 8,16 11,16 11,13 13,13 13,16 16,16 16,10.693" fill="#6485C3" stroke-linejoin="miter"/>
    </g>
  </g>
</svg>
