<?xml version="1.0" encoding="UTF-8"?>
<!DOCTYPE svg PUBLIC "-//W3C//DTD SVG 1.1//EN" "http://www.w3.org/Graphics/SVG/1.1/DTD/svg11.dtd">
<svg version="1.1" id="Layer_1" xmlns="http://www.w3.org/2000/svg" xmlns:xlink="http://www.w3.org/1999/xlink" x="0px" y="0px" width="24px" height="24px" viewBox="0 0 24 24" enable-background="new 0 0 24 24" xml:space="preserve">
  <g id="icon">
    <path d="M4.3342,16.9054h5.2443c0.8857,0,1.6038,0.6608,1.6038,1.4758c0,1.3179,-0.9747,2.4666,-2.3641,2.7862l-0.0998,0.0229c-1.1569,0.2662,-2.3673,0.2662,-3.5242,0l-0.0998,-0.0229c-1.3894,-0.3197,-2.3641,-1.4684,-2.3641,-2.7862C2.7304,17.5661,3.4485,16.9054,4.3342,16.9054zM9.5764,12.3682c0,-1.3951,-1.173,-2.5261,-2.6201,-2.5261c-1.447,0,-2.6201,1.131,-2.6201,2.5261s1.1731,2.5261,2.6201,2.5261C8.4034,14.8943,9.5764,13.7634,9.5764,12.3682z" fill="#F5F5F5"/>
    <path d="M6.9564,15.5892c1.8278,0,3.3149,-1.4449,3.3149,-3.221s-1.487,-3.221,-3.3149,-3.221c-1.8279,0,-3.315,1.4449,-3.315,3.221S5.1285,15.5892,6.9564,15.5892zM6.9564,10.537c1.0615,0,1.9251,0.8215,1.9251,1.8312s-0.8636,1.8312,-1.9251,1.8312c-1.0616,0,-1.9252,-0.8215,-1.9252,-1.8312S5.8948,10.537,6.9564,10.537zM12,18.3836c0,1.5933,-1.2104,2.9737,-2.9435,3.357l-0.1018,0.0224c-0.6365,0.1407,-1.2942,0.212,-1.9546,0.212c-0.6605,0,-1.3183,-0.0713,-1.9551,-0.2121l-0.1012,-0.0224C3.2105,21.3573,2,19.9768,2,18.3836c0,-1.1543,1.0465,-2.0935,2.3329,-2.0935h0.2368c0.3869,0,0.7017,0.2918,0.7017,0.6506s-0.3147,0.6506,-0.7017,0.6506h-0.2368c-0.5126,0,-0.9296,0.3554,-0.9296,0.7922c0,0.9883,0.7672,1.8482,1.8657,2.0911l0.101,0.0222c0.2414,0.0534,0.4868,0.0932,0.734,0.1225l0.3142,-2.6641l-0.3225,-1.0129c-0.0413,-0.1294,-0.0151,-0.2654,0.0718,-0.3733c0.0855,-0.1061,0.2159,-0.167,0.3579,-0.167h0.985c0.142,0,0.2724,0.0609,0.3579,0.167c0.0869,0.1078,0.1131,0.2439,0.0718,0.3734l-0.3226,1.0128l0.3137,2.6594c0.2352,-0.029,0.4687,-0.0668,0.6984,-0.1176l0.1018,-0.0224c1.0982,-0.2428,1.8653,-1.1027,1.8653,-2.0911c0,-0.4368,-0.4171,-0.7922,-0.9297,-0.7922h-0.2367c-0.3869,0,-0.7017,-0.2918,-0.7017,-0.6506s0.3147,-0.6506,0.7017,-0.6506h0.2367C10.9535,16.2901,12,17.2293,12,18.3836z" fill="#0891b2"/>
    <path d="M21.25,4.675v11.65c0,1.0631,-0.8619,1.925,-1.925,1.925h-5.7278c-0.0572,-1.5017,-1.0733,-2.7779,-2.4895,-3.3033c0.4834,-0.7462,0.7636,-1.6308,0.7636,-2.5785c0,-2.6583,-2.2048,-4.821,-4.9149,-4.821c-0.4162,0,-0.8202,0.0514,-1.2064,0.1474V4.675c0,-1.0632,0.8619,-1.925,1.925,-1.925h11.65C20.3881,2.75,21.25,3.6118,21.25,4.675z" fill="#0891b2"/>
    <path d="M18.25,2h-9.5C6.6789,2,5,3.6789,5,5.75v1.2727c0,0.4307,0.4,0.7534,0.8194,0.6553c0.365,-0.0854,0.7456,-0.1307,1.137,-0.1307c0.7417,0,1.4451,0.1629,2.0762,0.4527H9.5v0.2445c0.2613,0.1557,0.5066,0.3347,0.733,0.5339c0.2987,0.2629,0.767,0.0551,0.767,-0.3428V8h5v5h-3.6556c-0.29,0,-0.5382,0.201,-0.6063,0.4828c-0.017,0.0703,-0.0356,0.1401,-0.0557,0.2092c-0.1173,0.4032,0.1748,0.808,0.5948,0.808H16v3h-1.8158c-0.344,0,-0.618,0.2907,-0.5932,0.6339c0.006,0.0825,0.009,0.1658,0.009,0.2497c0,0.0021,0,0.0042,0,0.0062c-0.0005,0.3354,0.2645,0.6102,0.5998,0.6102H18.25c2.0711,0,3.75,-1.6789,3.75,-3.75v-9.5C22,3.6789,20.3211,2,18.25,2zM9.5,6.5H6.5v-0.75C6.5,4.5074,7.5073,3.5,8.75,3.5H9.5V6.5zM16,6.5h-5V3.5h5V6.5zM20.5,15.25c0,1.2426,-1.0074,2.25,-2.25,2.25H17.5v-3h3V15.25zM20.5,13h-3V8h3V13zM20.5,6.5h-3V3.5h0.75c1.2426,0,2.25,1.0074,2.25,2.25V6.5z" fill="#F5F5F5"/>
  </g>
</svg>
